<svg width="49" height="50" viewBox="0 0 49 50" fill="none" xmlns="http://www.w3.org/2000/svg">
<path d="M47.7467 20.3856C48.0491 22.0331 48.2138 23.7556 48.2138 25.5531C48.2138 39.6131 38.9606 49.6106 24.985 49.6106C21.8067 49.6116 18.6595 48.9757 15.723 47.7393C12.7865 46.5029 10.1183 44.6902 7.87096 42.4047C5.62361 40.1193 3.8411 37.4059 2.62529 34.4196C1.40947 31.4334 0.784188 28.2327 0.785157 25.0006C0.784188 21.7685 1.40947 18.5679 2.62529 15.5816C3.8411 12.5954 5.62361 9.88198 7.87096 7.59653C10.1183 5.31108 12.7865 3.49836 15.723 2.26194C18.6595 1.02552 21.8067 0.389641 24.985 0.390626C31.5192 0.390626 36.9792 2.83563 41.1682 6.80563L34.3463 13.7431V13.7256C31.8069 11.2656 28.584 10.0031 24.985 10.0031C17.0003 10.0031 10.5103 16.8631 10.5103 24.9856C10.5103 33.1056 17.0003 39.9806 24.985 39.9806C32.2297 39.9806 37.1611 35.7681 38.1739 29.9831H24.985V20.3856H47.7492H47.7467Z" fill="#333333"/>
</svg>
