<svg width="18" height="18" viewBox="0 0 18 18" fill="none" xmlns="http://www.w3.org/2000/svg">
<path d="M9.0013 10.666C9.16612 10.666 9.32724 10.6171 9.46428 10.5256C9.60132 10.434 9.70813 10.3039 9.7712 10.1516C9.83427 9.99931 9.85078 9.83176 9.81862 9.67011C9.78647 9.50846 9.7071 9.35997 9.59056 9.24343C9.47401 9.12688 9.32553 9.04751 9.16388 9.01536C9.00223 8.98321 8.83467 8.99971 8.6824 9.06278C8.53013 9.12586 8.39998 9.23267 8.30841 9.36971C8.21684 9.50675 8.16797 9.66786 8.16797 9.83268C8.16797 10.0537 8.25577 10.2657 8.41205 10.4219C8.56833 10.5782 8.78029 10.666 9.0013 10.666ZM13.168 10.666C13.3328 10.666 13.4939 10.6171 13.6309 10.5256C13.768 10.434 13.8748 10.3039 13.9379 10.1516C14.0009 9.99931 14.0174 9.83176 13.9853 9.67011C13.9531 9.50846 13.8738 9.35997 13.7572 9.24343C13.6407 9.12688 13.4922 9.04751 13.3305 9.01536C13.1689 8.98321 13.0013 8.99971 12.8491 9.06278C12.6968 9.12586 12.5666 9.23267 12.4751 9.36971C12.3835 9.50675 12.3346 9.66786 12.3346 9.83268C12.3346 10.0537 12.4224 10.2657 12.5787 10.4219C12.735 10.5782 12.947 10.666 13.168 10.666ZM9.0013 13.9993C9.16612 13.9993 9.32724 13.9505 9.46428 13.8589C9.60132 13.7673 9.70813 13.6372 9.7712 13.4849C9.83427 13.3326 9.85078 13.1651 9.81862 13.0034C9.78647 12.8418 9.7071 12.6933 9.59056 12.5768C9.47401 12.4602 9.32553 12.3808 9.16388 12.3487C9.00223 12.3165 8.83467 12.333 8.6824 12.3961C8.53013 12.4592 8.39998 12.566 8.30841 12.703C8.21684 12.8401 8.16797 13.0012 8.16797 13.166C8.16797 13.387 8.25577 13.599 8.41205 13.7553C8.56833 13.9116 8.78029 13.9993 9.0013 13.9993ZM13.168 13.9993C13.3328 13.9993 13.4939 13.9505 13.6309 13.8589C13.768 13.7673 13.8748 13.6372 13.9379 13.4849C14.0009 13.3326 14.0174 13.1651 13.9853 13.0034C13.9531 12.8418 13.8738 12.6933 13.7572 12.5768C13.6407 12.4602 13.4922 12.3808 13.3305 12.3487C13.1689 12.3165 13.0013 12.333 12.8491 12.3961C12.6968 12.4592 12.5666 12.566 12.4751 12.703C12.3835 12.8401 12.3346 13.0012 12.3346 13.166C12.3346 13.387 12.4224 13.599 12.5787 13.7553C12.735 13.9116 12.947 13.9993 13.168 13.9993ZM4.83464 10.666C4.99945 10.666 5.16057 10.6171 5.29761 10.5256C5.43465 10.434 5.54146 10.3039 5.60454 10.1516C5.66761 9.99931 5.68411 9.83176 5.65196 9.67011C5.6198 9.50846 5.54043 9.35997 5.42389 9.24343C5.30735 9.12688 5.15886 9.04751 4.99721 9.01536C4.83556 8.98321 4.668 8.99971 4.51573 9.06278C4.36346 9.12586 4.23331 9.23267 4.14174 9.36971C4.05018 9.50675 4.0013 9.66786 4.0013 9.83268C4.0013 10.0537 4.0891 10.2657 4.24538 10.4219C4.40166 10.5782 4.61362 10.666 4.83464 10.666ZM14.8346 2.33268H14.0013V1.49935C14.0013 1.27834 13.9135 1.06637 13.7572 0.910093C13.6009 0.753813 13.389 0.666016 13.168 0.666016C12.947 0.666016 12.735 0.753813 12.5787 0.910093C12.4224 1.06637 12.3346 1.27834 12.3346 1.49935V2.33268H5.66797V1.49935C5.66797 1.27834 5.58017 1.06637 5.42389 0.910093C5.26761 0.753813 5.05565 0.666016 4.83464 0.666016C4.61362 0.666016 4.40166 0.753813 4.24538 0.910093C4.0891 1.06637 4.0013 1.27834 4.0013 1.49935V2.33268H3.16797C2.50493 2.33268 1.86904 2.59607 1.4002 3.06492C0.931361 3.53376 0.667969 4.16964 0.667969 4.83268V14.8327C0.667969 15.4957 0.931361 16.1316 1.4002 16.6004C1.86904 17.0693 2.50493 17.3327 3.16797 17.3327H14.8346C15.4977 17.3327 16.1336 17.0693 16.6024 16.6004C17.0712 16.1316 17.3346 15.4957 17.3346 14.8327V4.83268C17.3346 4.16964 17.0712 3.53376 16.6024 3.06492C16.1336 2.59607 15.4977 2.33268 14.8346 2.33268ZM15.668 14.8327C15.668 15.0537 15.5802 15.2657 15.4239 15.4219C15.2676 15.5782 15.0556 15.666 14.8346 15.666H3.16797C2.94695 15.666 2.73499 15.5782 2.57871 15.4219C2.42243 15.2657 2.33464 15.0537 2.33464 14.8327V7.33268H15.668V14.8327ZM15.668 5.66602H2.33464V4.83268C2.33464 4.61167 2.42243 4.39971 2.57871 4.24343C2.73499 4.08715 2.94695 3.99935 3.16797 3.99935H14.8346C15.0556 3.99935 15.2676 4.08715 15.4239 4.24343C15.5802 4.39971 15.668 4.61167 15.668 4.83268V5.66602ZM4.83464 13.9993C4.99945 13.9993 5.16057 13.9505 5.29761 13.8589C5.43465 13.7673 5.54146 13.6372 5.60454 13.4849C5.66761 13.3326 5.68411 13.1651 5.65196 13.0034C5.6198 12.8418 5.54043 12.6933 5.42389 12.5768C5.30735 12.4602 5.15886 12.3808 4.99721 12.3487C4.83556 12.3165 4.668 12.333 4.51573 12.3961C4.36346 12.4592 4.23331 12.566 4.14174 12.703C4.05018 12.8401 4.0013 13.0012 4.0013 13.166C4.0013 13.387 4.0891 13.599 4.24538 13.7553C4.40166 13.9116 4.61362 13.9993 4.83464 13.9993Z" fill="#058B94"/>
</svg>
