<svg width="24" height="24" viewBox="0 0 24 24" fill="none" xmlns="http://www.w3.org/2000/svg">
<g clip-path="url(#clip0_7956_25780)">
<path d="M9.00001 11.9998L11 13.9998L15 9.99975M7.94636 4.24947L6.25195 4.23679C5.1357 4.22843 4.22868 5.13545 4.23704 6.2517L4.24972 7.94611C4.25377 8.48691 4.03863 9.0063 3.65336 9.38584L2.44627 10.5751C1.65105 11.3585 1.65105 12.6412 2.44627 13.4246L3.65336 14.6137C4.03863 14.9933 4.25377 15.5127 4.24972 16.0535L4.23704 17.7479C4.22868 18.8641 5.1357 19.7711 6.25195 19.7628L7.94636 19.7501C8.48716 19.7461 9.00655 19.9612 9.38609 20.3465L10.5753 21.5536C11.3587 22.3488 12.6414 22.3488 13.4248 21.5536L14.6139 20.3465C14.9935 19.9612 15.5129 19.7461 16.0537 19.7501L17.7481 19.7628C18.8643 19.7711 19.7713 18.8641 19.763 17.7479L19.7503 16.0535C19.7463 15.5127 19.9614 14.9933 20.3467 14.6137L21.5538 13.4246C22.349 12.6412 22.349 11.3585 21.5538 10.5751L20.3467 9.38584C19.9614 9.0063 19.7463 8.48691 19.7503 7.94611L19.763 6.2517C19.7713 5.13545 18.8643 4.22843 17.7481 4.23679L16.0537 4.24947C15.5129 4.25352 14.9935 4.03838 14.6139 3.65311L13.4248 2.44602C12.6414 1.6508 11.3586 1.6508 10.5753 2.44602L9.38609 3.65311C9.00655 4.03838 8.48716 4.25352 7.94636 4.24947Z" stroke="#808080" stroke-width="2" stroke-linecap="round" stroke-linejoin="round"/>
</g>
<defs>
<clipPath id="clip0_7956_25780">
<rect width="24" height="24" fill="white"/>
</clipPath>
</defs>
</svg>
