<svg width="18" height="18" viewBox="0 0 18 18" fill="none" xmlns="http://www.w3.org/2000/svg">
<path d="M1.5 16V16.5H2H8H8.5V16V2V1.5H8H2H1.5V2V16ZM9.5 16V16.5H10H16H16.5V16V9V8.5H16H10H9.5V9V16ZM9.5 7V7.5H10H16H16.5V7V2V1.5H16H10H9.5V2V7ZM2 17.5C1.5836 17.5 1.23939 17.3577 0.940427 17.0593C0.642222 16.7604 0.5 16.4163 0.5 16V2C0.5 1.58365 0.642263 1.23949 0.940553 0.940553C1.23949 0.642263 1.58365 0.5 2 0.5H16C16.4163 0.5 16.7604 0.642223 17.0593 0.940429C17.3577 1.23939 17.5 1.5836 17.5 2V16C17.5 16.4163 17.3577 16.7605 17.0594 17.0594C16.7605 17.3577 16.4163 17.5 16 17.5H2Z" fill="black" stroke="#808080"/>
</svg>
