<svg width="22" height="23" viewBox="0 0 22 23" fill="none" xmlns="http://www.w3.org/2000/svg">
<path d="M0.636719 5.38361H2.891M2.891 5.38361H20.9252M2.891 5.38361V20.0563C2.891 20.6123 3.1285 21.1454 3.55126 21.5385C3.97402 21.9316 4.54741 22.1524 5.14528 22.1524H16.4167C17.0145 22.1524 17.5879 21.9316 18.0107 21.5385C18.4335 21.1454 18.671 20.6123 18.671 20.0563V5.38361H2.891ZM6.27242 5.38361V3.28751C6.27242 2.73159 6.50992 2.19844 6.93268 1.80534C7.35544 1.41225 7.92883 1.19141 8.5267 1.19141H13.0353C13.6331 1.19141 14.2065 1.41225 14.6293 1.80534C15.052 2.19844 15.2895 2.73159 15.2895 3.28751V5.38361M8.5267 10.6239V16.9122M13.0353 10.6239V16.9122" stroke="#FF647C" stroke-linecap="round" stroke-linejoin="round"/>
</svg>
