<svg width="25" height="25" viewBox="0 0 25 25" fill="none" xmlns="http://www.w3.org/2000/svg">
<path d="M15.6424 10.4341L15.6257 10.4173M9.39243 10.4341L9.37565 10.4173M8.33398 15.6257C8.33398 15.6257 8.46434 15.8864 8.77117 16.2234C9.33169 16.8389 10.4812 17.709 12.5007 17.709C14.5201 17.709 15.6696 16.8389 16.2301 16.2234C16.537 15.8864 16.6673 15.6257 16.6673 15.6257M12.5007 22.9173C6.74768 22.9173 2.08398 18.2536 2.08398 12.5007C2.08398 6.74768 6.74768 2.08398 12.5007 2.08398C18.2536 2.08398 22.9173 6.74768 22.9173 12.5007C22.9173 18.2536 18.2536 22.9173 12.5007 22.9173Z" stroke="#808080" stroke-width="2" stroke-linecap="round" stroke-linejoin="round"/>
</svg>
