<svg width="51" height="51" viewBox="0 0 51 51" fill="none" xmlns="http://www.w3.org/2000/svg">
<path d="M49.5466 0.472673H6.49649C6.29393 0.471311 6.09909 0.550791 5.95558 0.693848C5.81251 0.837368 5.73258 1.03221 5.73441 1.23476V27.5134C5.73441 27.9339 6.07549 28.275 6.4965 28.275C6.91706 28.275 7.25814 27.9339 7.25814 27.5134V9.55015H48.7595V48.8436H7.25814V42.3327C7.25814 41.9117 6.91706 41.5706 6.4965 41.5706C6.07549 41.5706 5.73441 41.9117 5.73441 42.3327V49.5726C5.73259 49.7752 5.81252 49.97 5.95558 50.1135C6.0991 50.2566 6.29394 50.3361 6.49649 50.3347H49.5466C49.9676 50.3347 50.3086 49.9936 50.3086 49.5726V1.23591C50.3086 1.0338 50.2283 0.839879 50.0852 0.697266C49.9426 0.5542 49.7487 0.473813 49.5466 0.473813V0.472673ZM7.25803 8.02548V1.99647H48.7594V8.02548H7.25803Z" fill="#058B94"/>
<path d="M45.0394 4.48378C44.8968 4.6223 44.8164 4.8126 44.8164 5.01153C44.8164 5.21 44.8968 5.4003 45.0394 5.53882C45.1788 5.68733 45.3759 5.76818 45.5799 5.75999C45.7829 5.76544 45.9791 5.68506 46.1203 5.53882C46.2625 5.4003 46.3429 5.21001 46.3429 5.01153C46.3429 4.81261 46.2625 4.6223 46.1203 4.48378C45.8165 4.19811 45.3428 4.19811 45.0394 4.48378Z" fill="#058B94"/>
<path d="M42.1956 4.99894C42.1956 5.4195 41.8545 5.76058 41.434 5.76058C41.013 5.76058 40.6719 5.4195 40.6719 4.99894C40.6719 4.57838 41.013 4.2373 41.434 4.2373C41.8545 4.2373 42.1956 4.57838 42.1956 4.99894Z" fill="#058B94"/>
<path d="M36.7343 4.48351C36.5917 4.62203 36.5117 4.81232 36.5117 5.01125C36.5117 5.20972 36.5917 5.40003 36.7343 5.53855C36.8732 5.68388 37.0672 5.76427 37.2684 5.75972C37.4718 5.76789 37.6689 5.68705 37.8084 5.53855C37.9501 5.39412 38.0295 5.20019 38.03 4.99809C38.0182 4.79825 37.9405 4.60796 37.8084 4.45764C37.4959 4.19194 37.0336 4.20328 36.7343 4.48351Z" fill="#058B94"/>
<path d="M16.3091 20.2338C17.1429 20.2338 17.8219 19.5634 17.8327 18.73V15.702C17.8218 14.865 17.1461 14.1892 16.3091 14.1787H13.2816C12.4477 14.1892 11.7773 14.8681 11.7773 15.702V18.73C11.781 19.5588 12.4522 20.23 13.2816 20.2338H16.3091ZM13.2816 15.6762H16.3091V18.7037H13.2816V15.6762Z" fill="#058B94"/>
<path d="M12.5391 43.4116C12.5355 43.8262 12.867 44.1664 13.2817 44.1737H16.3091C16.7142 44.1768 17.1039 44.0174 17.3905 43.7313C17.6766 43.4447 17.836 43.055 17.8329 42.6499V39.6224C17.8292 39.2219 17.6666 38.839 17.381 38.5579C17.0953 38.2772 16.7097 38.1214 16.3091 38.1251H14.8049C14.6023 38.1232 14.4075 38.2027 14.2644 38.3462C14.1213 38.4893 14.0414 38.6841 14.0432 38.8867C14.0469 39.3059 14.3857 39.6447 14.8049 39.6483H16.3091V42.6758H13.2817C12.877 42.6826 12.5495 43.0074 12.5391 43.4116Z" fill="#058B94"/>
<path d="M44.3494 14.1788H38.3398C37.9206 14.1825 37.5813 14.5213 37.5782 14.9405C37.5763 15.143 37.6558 15.3379 37.7993 15.4809C37.9424 15.6244 38.1372 15.7039 38.3398 15.7021H44.3688C44.5713 15.7039 44.7662 15.6244 44.9092 15.4809C45.0528 15.3379 45.1322 15.143 45.1304 14.9405C45.1291 14.7356 45.0455 14.5399 44.8988 14.3968C44.7521 14.2538 44.5541 14.1752 44.3492 14.1788H44.3494Z" fill="#058B94"/>
<path d="M33.7838 14.1787H22.4414C22.0299 14.1923 21.7025 14.5284 21.6993 14.9404C21.6961 15.1402 21.7724 15.3328 21.9119 15.4758C22.0513 15.6189 22.242 15.7006 22.4414 15.702H33.7838C33.9837 15.7006 34.1744 15.6189 34.3138 15.4758C34.4528 15.3328 34.5296 15.1402 34.5259 14.9404C34.5227 14.5284 34.1953 14.1923 33.7838 14.1787Z" fill="#058B94"/>
<path d="M30.7736 19.4915C30.7767 19.8976 31.1033 20.2268 31.5093 20.2337H39.8238C40.035 20.2536 40.2452 20.1832 40.4024 20.0402C40.5595 19.8971 40.649 19.6941 40.649 19.4815C40.649 19.2695 40.5595 19.0664 40.4024 18.9234C40.2452 18.7803 40.035 18.7099 39.8238 18.7299H31.5093C31.3104 18.7331 31.1215 18.8153 30.9834 18.9583C30.8453 19.101 30.7699 19.2931 30.7736 19.4915Z" fill="#058B94"/>
<path d="M22.4427 20.2342H27.756C28.1443 20.1983 28.4408 19.8722 28.4408 19.4821C28.4408 19.0924 28.1443 18.7663 27.756 18.7305H22.4427C22.0548 18.7663 21.7578 19.0924 21.7578 19.4821C21.7578 19.8722 22.0548 20.1983 22.4427 20.2342Z" fill="#058B94"/>
<path d="M44.3519 26.1643H30.751C30.5394 26.1448 30.3295 26.2152 30.1724 26.3583C30.0152 26.5013 29.9258 26.7039 29.9258 26.9164C29.9258 27.129 30.0153 27.3316 30.1724 27.4746C30.3295 27.6177 30.5394 27.6881 30.751 27.6686H44.3519C44.5635 27.6881 44.7738 27.6177 44.9305 27.4746C45.0876 27.3316 45.1771 27.129 45.1771 26.9164C45.1771 26.7039 45.0876 26.5013 44.9305 26.3583C44.7738 26.2152 44.5635 26.1448 44.3519 26.1643Z" fill="#058B94"/>
<path d="M22.4427 27.6695H26.2064C26.418 27.6891 26.6278 27.6187 26.785 27.4756C26.9421 27.3325 27.0316 27.13 27.0316 26.9174C27.0316 26.7049 26.9421 26.5023 26.785 26.3592C26.6278 26.2162 26.418 26.1458 26.2064 26.1653H22.4427C22.0548 26.2016 21.7578 26.5273 21.7578 26.9174C21.7578 27.3076 22.0548 27.6332 22.4427 27.6695Z" fill="#058B94"/>
<path d="M38.3026 32.2127C38.7232 32.2127 39.0643 31.8717 39.0643 31.4511C39.0643 31.0305 38.7232 30.6895 38.3026 30.6895H34.559C34.138 30.6895 33.7969 31.0305 33.7969 31.4511C33.7969 31.8717 34.138 32.2127 34.559 32.2127H38.3026Z" fill="#058B94"/>
<path d="M22.4413 32.2127H30.7758C31.1963 32.2127 31.5374 31.8717 31.5374 31.4511C31.5374 31.0305 31.1963 30.6895 30.7758 30.6895H22.4413C22.0208 30.6895 21.6797 31.0305 21.6797 31.4511C21.6797 31.8717 22.0208 32.2127 22.4413 32.2127Z" fill="#058B94"/>
<path d="M32.2736 38.8876C32.2767 39.2996 32.6042 39.6352 33.0157 39.6493H44.3512C44.7704 39.6456 45.1097 39.3068 45.1128 38.8876C45.1147 38.6851 45.0352 38.4902 44.8917 38.3472C44.7486 38.2037 44.5538 38.1242 44.3512 38.126H33.0157C32.8158 38.1274 32.6251 38.2091 32.4857 38.3522C32.3467 38.4952 32.2699 38.6878 32.2736 38.8876Z" fill="#058B94"/>
<path d="M22.4415 39.6494H28.4905C28.8992 39.6321 29.2231 39.2969 29.2262 38.8877C29.2294 38.6847 29.1504 38.4885 29.0069 38.345C28.8634 38.2015 28.6672 38.1225 28.4642 38.1261H22.4414C22.242 38.1275 22.0513 38.2092 21.9119 38.3523C21.7724 38.4953 21.6961 38.6879 21.6993 38.8877C21.7025 39.2997 22.03 39.6353 22.4415 39.6494Z" fill="#058B94"/>
<path d="M22.4413 44.1741H35.2748C35.6954 44.1741 36.0365 43.833 36.0365 43.412C36.0365 42.9915 35.6954 42.6504 35.2748 42.6504H22.4413C22.0208 42.6504 21.6797 42.9915 21.6797 43.412C21.6797 43.833 22.0208 44.1741 22.4413 44.1741Z" fill="#058B94"/>
<path d="M9.40659 43.2107C9.52603 43.485 9.79763 43.6616 10.0965 43.6598C10.4058 43.6339 10.6737 43.4346 10.7868 43.1457L14.0423 33.7112H17.0697C17.6692 33.7112 18.2438 33.4733 18.6675 33.0495C19.0912 32.6258 19.3292 32.0508 19.3292 31.4518V26.9269C19.3328 26.3242 19.0967 25.7447 18.6729 25.316C18.2492 24.8878 17.6724 24.6448 17.0697 24.6416H12.5122C11.9072 24.6448 11.3277 24.8869 10.8999 25.3147C10.4721 25.7425 10.2305 26.3216 10.2268 26.927V29.9608L0.805629 33.2163C0.517229 33.3035 0.317402 33.5664 0.310588 33.8676C0.287426 34.1855 0.467735 34.483 0.760215 34.6097L6.71749 37.2529L9.40659 43.2107ZM11.7765 26.9333C11.7765 26.5128 12.1175 26.1717 12.5381 26.1717H17.0961C17.5167 26.1717 17.8577 26.5128 17.8577 26.9333V31.4586V31.4582C17.8541 31.8778 17.5153 32.2166 17.0961 32.2203H14.5568L15.5528 29.4399C15.6373 29.161 15.5564 28.8585 15.3444 28.6587C15.1413 28.4471 14.8307 28.3776 14.5568 28.4829L11.7764 29.414L11.7765 26.9333ZM13.5995 30.4036L10.0379 40.8214L8.04545 36.342L8.04591 36.3415C7.96507 36.1753 7.82927 36.0418 7.66168 35.9641L3.18227 33.9849L13.5995 30.4036Z" fill="#058B94"/>
</svg>
