<svg width="30" height="30" viewBox="0 0 30 30" fill="none" xmlns="http://www.w3.org/2000/svg">
<g clip-path="url(#clip0_3248_11566)">
<path d="M3.33333 4.16602C2.44928 4.16602 1.60143 4.5172 0.976311 5.14233C0.35119 5.76745 0 6.61529 0 7.49935L0 22.4993C0 23.3834 0.35119 24.2312 0.976311 24.8564C1.60143 25.4815 2.44928 25.8327 3.33333 25.8327H10V4.16602H3.33333Z" fill="#009A49"/>
<path d="M10 4.16602H20V25.8327H10V4.16602Z" fill="#EEEEEE"/>
<path d="M26.6667 4.16602H20V25.8327H26.6667C27.5507 25.8327 28.3986 25.4815 29.0237 24.8564C29.6488 24.2312 30 23.3834 30 22.4993V7.49935C30 6.61529 29.6488 5.76745 29.0237 5.14233C28.3986 4.5172 27.5507 4.16602 26.6667 4.16602Z" fill="#009A49"/>
</g>
<defs>
<clipPath id="clip0_3248_11566">
<rect width="30" height="30" fill="white"/>
</clipPath>
</defs>
</svg>
