<svg width="37" height="38" viewBox="0 0 37 38" fill="none" xmlns="http://www.w3.org/2000/svg">
<path d="M33.0774 16.0776C33.267 17.121 33.3703 18.2119 33.3703 19.3503C33.3703 28.255 27.5675 34.5867 18.8031 34.5867C16.81 34.5874 14.8363 34.1846 12.9947 33.4016C11.1532 32.6185 9.47995 31.4704 8.07059 30.023C6.66124 28.5755 5.54339 26.8571 4.78093 24.9658C4.01847 23.0745 3.62635 21.0474 3.62695 19.0004C3.62635 16.9534 4.01847 14.9263 4.78093 13.035C5.54339 11.1437 6.66124 9.42525 8.07059 7.9778C9.47995 6.53035 11.1532 5.3823 12.9947 4.59923C14.8363 3.81617 16.81 3.41344 18.8031 3.41406C22.9009 3.41406 26.3249 4.96256 28.9519 7.4769L24.6738 11.8706V11.8596C23.0812 10.3016 21.0601 9.50198 18.8031 9.50198C13.7958 9.50198 9.72579 13.8466 9.72579 18.9909C9.72579 24.1336 13.7958 28.4877 18.8031 28.4877C23.3464 28.4877 26.439 25.8198 27.0742 22.156H18.8031V16.0776H33.079H33.0774Z" fill="#333333"/>
</svg>
