<svg width="30" height="30" viewBox="0 0 30 30" fill="none" xmlns="http://www.w3.org/2000/svg">
<path d="M24.835 3.28125H5.16504C4.125 3.28125 3.28125 4.125 3.28125 5.16504V24.835C3.28125 25.875 4.125 26.7188 5.16504 26.7188H24.835C25.875 26.7188 26.7188 25.875 26.7188 24.835V5.16504C26.7188 4.125 25.875 3.28125 24.835 3.28125ZM24.835 24.8438C11.7158 24.8408 5.15625 24.8379 5.15625 24.835C5.15918 11.7158 5.16211 5.15625 5.16504 5.15625C18.2842 5.15918 24.8438 5.16211 24.8438 5.16504C24.8408 18.2842 24.8379 24.8438 24.835 24.8438ZM6.75586 12.0674H10.2334V23.2529H6.75586V12.0674ZM8.49609 10.5381C9.60645 10.5381 10.5117 9.63574 10.5117 8.52246C10.5117 8.25777 10.4596 7.99566 10.3583 7.75111C10.257 7.50657 10.1085 7.28437 9.92136 7.0972C9.73419 6.91003 9.51199 6.76156 9.26744 6.66027C9.02289 6.55897 8.76079 6.50684 8.49609 6.50684C8.2314 6.50684 7.96929 6.55897 7.72475 6.66027C7.4802 6.76156 7.258 6.91003 7.07083 7.0972C6.88366 7.28437 6.73519 7.50657 6.6339 7.75111C6.5326 7.99566 6.48047 8.25777 6.48047 8.52246C6.47754 9.63574 7.37988 10.5381 8.49609 10.5381ZM15.8877 17.7188C15.8877 16.2598 16.166 14.8477 17.9736 14.8477C19.7549 14.8477 19.7812 16.5146 19.7812 17.8125V23.2529H23.2559V17.1182C23.2559 14.1064 22.6055 11.7891 19.0869 11.7891C17.3965 11.7891 16.2627 12.7178 15.7969 13.5967H15.75V12.0674H12.4131V23.2529H15.8877V17.7188Z" fill="#4D4D4D"/>
</svg>
