<svg width="19" height="19" viewBox="0 0 19 19" fill="none" xmlns="http://www.w3.org/2000/svg">
<circle cx="9.5" cy="9.5" r="9.5" fill="#F7FEFF"/>
<path d="M7.625 8.875C9.00571 8.875 10.125 7.75571 10.125 6.375C10.125 4.99429 9.00571 3.875 7.625 3.875C6.24429 3.875 5.125 4.99429 5.125 6.375C5.125 7.75571 6.24429 8.875 7.625 8.875Z" stroke="#FF5964" stroke-width="1.5" stroke-linecap="round" stroke-linejoin="round"/>
<path d="M3.25 15.125V12.625C3.25 11.9346 3.80964 11.375 4.5 11.375H10.75C11.4404 11.375 12 11.9346 12 12.625V15.125" stroke="#FF5964" stroke-width="1.5" stroke-linecap="round" stroke-linejoin="round"/>
<path d="M12 3.875C12.5377 4.01269 13.0144 4.32544 13.3548 4.76394C13.6951 5.20245 13.8799 5.74177 13.8799 6.29688C13.8799 6.85198 13.6951 7.3913 13.3548 7.82981C13.0144 8.26831 12.5377 8.58106 12 8.71875" stroke="#FF5964" stroke-width="1.5" stroke-linecap="round" stroke-linejoin="round"/>
<path d="M13.875 11.375H14.5C15.1904 11.375 15.75 11.9346 15.75 12.625V15.125" stroke="#FF5964" stroke-width="1.5" stroke-linecap="round" stroke-linejoin="round"/>
</svg>
