<svg width="52" height="52" viewBox="0 0 52 52" fill="none" xmlns="http://www.w3.org/2000/svg">
<path d="M23.5 1.44338C25.047 0.550212 26.953 0.550212 28.5 1.44338L46.0167 11.5566C47.5637 12.4498 48.5167 14.1004 48.5167 15.8868V36.1132C48.5167 37.8996 47.5637 39.5502 46.0167 40.4434L28.5 50.5566C26.953 51.4498 25.047 51.4498 23.5 50.5566L5.98334 40.4434C4.43633 39.5502 3.48334 37.8996 3.48334 36.1132V15.8868C3.48334 14.1004 4.43633 12.4498 5.98334 11.5566L23.5 1.44338Z" fill="#035D63"/>
<path fill-rule="evenodd" clip-rule="evenodd" d="M19.7204 28.8874C20.5018 28.106 21.5616 27.667 22.6667 27.667H29.3333C30.4384 27.667 31.4982 28.106 32.2796 28.8874C33.061 29.6688 33.5 30.7286 33.5 31.8337V33.5003C33.5 33.9606 33.1269 34.3337 32.6667 34.3337C32.2064 34.3337 31.8333 33.9606 31.8333 33.5003V31.8337C31.8333 31.1706 31.5699 30.5347 31.1011 30.0659C30.6323 29.5971 29.9964 29.3337 29.3333 29.3337H22.6667C22.0036 29.3337 21.3677 29.5971 20.8989 30.0659C20.4301 30.5347 20.1667 31.1706 20.1667 31.8337V33.5003C20.1667 33.9606 19.7936 34.3337 19.3333 34.3337C18.8731 34.3337 18.5 33.9606 18.5 33.5003V31.8337C18.5 30.7286 18.939 29.6688 19.7204 28.8874Z" fill="white"/>
<path fill-rule="evenodd" clip-rule="evenodd" d="M26 19.3337C24.6193 19.3337 23.5 20.4529 23.5 21.8337C23.5 23.2144 24.6193 24.3337 26 24.3337C27.3808 24.3337 28.5 23.2144 28.5 21.8337C28.5 20.4529 27.3808 19.3337 26 19.3337ZM21.8334 21.8337C21.8334 19.5325 23.6989 17.667 26 17.667C28.3012 17.667 30.1667 19.5325 30.1667 21.8337C30.1667 24.1348 28.3012 26.0003 26 26.0003C23.6989 26.0003 21.8334 24.1348 21.8334 21.8337Z" fill="white"/>
</svg>
