<svg width="52" height="52" viewBox="0 0 52 52" fill="none" xmlns="http://www.w3.org/2000/svg">
<path d="M23.5 1.44338C25.047 0.550212 26.953 0.550212 28.5 1.44338L46.0167 11.5566C47.5637 12.4498 48.5167 14.1004 48.5167 15.8868V36.1132C48.5167 37.8996 47.5637 39.5502 46.0167 40.4434L28.5 50.5566C26.953 51.4498 25.047 51.4498 23.5 50.5566L5.98334 40.4434C4.43633 39.5502 3.48334 37.8996 3.48334 36.1132V15.8868C3.48334 14.1004 4.43633 12.4498 5.98334 11.5566L23.5 1.44338Z" fill="#035D63"/>
<path d="M23.5 25.1667C25.3409 25.1667 26.8333 23.6743 26.8333 21.8333C26.8333 19.9924 25.3409 18.5 23.5 18.5C21.659 18.5 20.1666 19.9924 20.1666 21.8333C20.1666 23.6743 21.659 25.1667 23.5 25.1667Z" stroke="#F7FEFF" stroke-width="1.5" stroke-linecap="round" stroke-linejoin="round"/>
<path d="M17.6666 33.5V30.1667C17.6666 29.2462 18.4128 28.5 19.3333 28.5H27.6666C28.5871 28.5 29.3333 29.2462 29.3333 30.1667V33.5" stroke="#F7FEFF" stroke-width="1.5" stroke-linecap="round" stroke-linejoin="round"/>
<path d="M29.3334 18.5C30.0504 18.6836 30.6859 19.1006 31.1397 19.6853C31.5935 20.2699 31.8399 20.989 31.8399 21.7292C31.8399 22.4693 31.5935 23.1884 31.1397 23.7731C30.6859 24.3577 30.0504 24.7747 29.3334 24.9583" stroke="#F7FEFF" stroke-width="1.5" stroke-linecap="round" stroke-linejoin="round"/>
<path d="M31.8334 28.5H32.6667C33.5872 28.5 34.3334 29.2462 34.3334 30.1667V33.5" stroke="#F7FEFF" stroke-width="1.5" stroke-linecap="round" stroke-linejoin="round"/>
</svg>
