<svg width="45" height="31" viewBox="0 0 45 31" fill="none" xmlns="http://www.w3.org/2000/svg">
<g clip-path="url(#clip0_3860_20710)">
<path d="M41.3202 29.5139C41.5225 27.8964 42.5303 26.3027 44.0812 25.7764C43.4696 27.4412 43.4697 29.2675 44.0816 30.9323C44.3199 31.5734 44.6521 32.2619 44.4279 32.9081C44.2885 33.3102 43.9473 33.6178 43.5659 33.8102C43.1844 34.0025 42.7611 34.0942 42.3431 34.184L42.2609 34.2517C41.5973 32.7614 41.118 31.1313 41.3202 29.5139Z" fill="#035D63"/>
<path d="M44.0954 25.8071C43.1922 26.8136 42.6309 28.0776 42.4911 29.4195C42.4558 29.7079 42.4665 30 42.5227 30.285C42.5864 30.5609 42.7233 30.8148 42.9191 31.0204C43.0978 31.2156 43.3033 31.3948 43.4311 31.6298C43.4948 31.7511 43.5319 31.8844 43.5402 32.021C43.5484 32.1575 43.5275 32.2943 43.4788 32.4223C43.3659 32.7443 43.1435 33.0067 42.9169 33.2559C42.6654 33.5325 42.3998 33.8159 42.2929 34.1826C42.2799 34.2271 42.2113 34.2045 42.2243 34.1601C42.4103 33.522 43.033 33.1596 43.33 32.5849C43.4686 32.3168 43.5268 32.0054 43.3968 31.7224C43.2832 31.4748 43.0715 31.2899 42.8888 31.0938C42.6949 30.8961 42.5526 30.6542 42.4743 30.3891C42.4037 30.1079 42.3817 29.8167 42.4093 29.5281C42.4611 28.8773 42.6154 28.2387 42.8666 27.6356C43.1495 26.9458 43.5489 26.3091 44.0476 25.7532C44.0785 25.7188 44.1261 25.7729 44.0954 25.8071H44.0954Z" fill="white"/>
<path d="M42.5113 28.9845C42.2881 28.9306 42.0915 28.7996 41.9564 28.6148C41.8214 28.43 41.7569 28.2035 41.7743 27.9757C41.7779 27.9296 41.8501 27.9332 41.8464 27.9793C41.8298 28.1914 41.89 28.4023 42.0161 28.5742C42.1421 28.746 42.3258 28.8673 42.5339 28.9163C42.5791 28.927 42.5562 28.9951 42.5113 28.9845V28.9845Z" fill="white"/>
<path d="M42.817 30.9329C43.2201 30.6935 43.5177 30.3118 43.6504 29.8639C43.6635 29.8195 43.7321 29.8421 43.719 29.8864C43.58 30.3523 43.2695 30.7489 42.8495 30.9971C42.8095 31.0207 42.7772 30.9564 42.817 30.9329V30.9329Z" fill="white"/>
<path d="M43.2171 27.0135C43.299 27.0522 43.3894 27.0701 43.4801 27.0655C43.5707 27.061 43.6588 27.0341 43.7364 26.9873C43.7762 26.9631 43.8084 27.0275 43.7689 27.0514C43.6829 27.1027 43.5856 27.1323 43.4855 27.1376C43.3853 27.1429 43.2854 27.1237 43.1944 27.0817C43.1855 27.0784 43.1782 27.072 43.1739 27.0635C43.1696 27.0551 43.1688 27.0454 43.1714 27.0363C43.1745 27.0273 43.181 27.0198 43.1895 27.0156C43.1981 27.0113 43.208 27.0105 43.2171 27.0135V27.0135Z" fill="white"/>
<path d="M48.808 28.6651C48.7836 28.6809 48.7592 28.6967 48.7348 28.713C48.4082 28.9267 48.0996 29.1663 47.812 29.4297C47.7894 29.4497 47.7668 29.4703 47.7449 29.4909C47.0588 30.1327 46.4985 30.8956 46.0924 31.7408C45.9311 32.0773 45.7958 32.4255 45.6876 32.7824C45.5382 33.2754 45.4157 33.8216 45.1201 34.2248C45.0897 34.2672 45.0567 34.3077 45.0213 34.3461H42.3496C42.3435 34.343 42.3374 34.3406 42.3313 34.3376L42.2246 34.3424C42.2289 34.3236 42.2337 34.3042 42.238 34.2854C42.2405 34.2745 42.2435 34.2636 42.2459 34.2527C42.2478 34.2454 42.2496 34.2381 42.2508 34.2315C42.2514 34.229 42.2521 34.2266 42.2526 34.2248C42.2539 34.2181 42.2557 34.2121 42.2569 34.206C42.2838 34.0975 42.3114 33.989 42.3398 33.8804C42.3398 33.8798 42.3398 33.8798 42.3404 33.8792C42.5593 33.0528 42.8494 32.2374 43.2548 31.4917C43.267 31.4692 43.2792 31.4462 43.2926 31.4238C43.4772 31.0886 43.689 30.7691 43.9259 30.4682C44.0562 30.3039 44.1948 30.1463 44.3411 29.9959C44.7198 29.6082 45.1576 29.282 45.6382 29.0295C46.5965 28.5263 47.7059 28.3335 48.73 28.6409C48.7562 28.6488 48.7818 28.6567 48.808 28.6651Z" fill="#035D63"/>
<path d="M48.8013 28.6989C47.4709 28.9617 46.2575 29.6348 45.3336 30.6225C45.1309 30.8316 44.9626 31.0712 44.8349 31.3325C44.7188 31.591 44.6744 31.8757 44.7063 32.157C44.7308 32.4199 44.7864 32.686 44.7462 32.9502C44.7236 33.0852 44.6726 33.2139 44.5965 33.3278C44.5204 33.4418 44.4209 33.5385 44.3046 33.6115C44.0196 33.801 43.6831 33.8774 43.3514 33.9406C42.9831 34.0109 42.5995 34.0781 42.2921 34.3069C42.2548 34.3346 42.2138 34.2755 42.251 34.2478C42.7857 33.8498 43.5023 33.9333 44.0873 33.6523C44.3603 33.5211 44.5952 33.3074 44.6628 33.0036C44.722 32.7379 44.6648 32.4635 44.6377 32.1975C44.6025 31.9235 44.6353 31.6451 44.7333 31.3866C44.8472 31.1198 45.0059 30.8741 45.2026 30.6602C45.6379 30.1716 46.1477 29.7541 46.7133 29.423C47.3567 29.0416 48.0611 28.7725 48.7958 28.6272C48.8412 28.6183 48.8465 28.69 48.8013 28.6989V28.6989Z" fill="white"/>
<path d="M32.6899 21.348C32.7452 21.2912 32.7873 21.223 32.8132 21.1483C32.8391 21.0736 32.8483 20.9941 32.84 20.9155C32.8317 20.8368 32.8061 20.761 32.7652 20.6932C32.7242 20.6255 32.6688 20.5675 32.6029 20.5234L33.0968 18.6655L32.1452 18.9839L31.822 20.6993C31.7548 20.8144 31.7324 20.95 31.7589 21.0805C31.7855 21.2109 31.8593 21.3271 31.9663 21.4071C32.0733 21.487 32.206 21.5252 32.3394 21.5143C32.4728 21.5034 32.5975 21.4443 32.6899 21.348V21.348Z" fill="#9E616A"/>
<path d="M33.5893 18.5049L33.3349 18.5748C33.3349 18.5748 32.6702 22.8608 32.6161 25.1194C32.562 27.378 32.7783 33.0783 32.7783 33.0783H34.1841L35.3195 23.3985L35.8602 33.0783H37.3741C37.3741 33.0783 38.4554 20.3871 37.9688 19.3653C37.4822 18.3436 33.5893 18.5049 33.5893 18.5049Z" fill="#035D63"/>
<path d="M35.6159 10.9423C36.3174 10.9423 36.8861 10.3766 36.8861 9.67889C36.8861 8.98115 36.3174 8.41553 35.6159 8.41553C34.9144 8.41553 34.3457 8.98115 34.3457 9.67889C34.3457 10.3766 34.9144 10.9423 35.6159 10.9423Z" fill="#9E616A"/>
<path d="M38.8335 12.5896L36.862 11.3081L34.819 11.3881L32.832 12.482L33.589 16.6766L33.2646 19.0965C33.2646 19.0965 36.1842 18.7739 36.833 19.2579C37.212 19.545 37.6589 19.7302 38.1307 19.7956L38.0225 15.6548L38.8335 12.5896Z" fill="#058B94"/>
<path d="M33.2098 12.4284L33.0056 12.3862L32.8314 12.4822C32.8314 12.4822 32.3447 13.1275 32.3447 13.719C32.3447 14.3106 31.75 20.0108 31.75 20.0108L32.8314 20.4948L33.6964 16.0314L33.2098 12.4284Z" fill="#058B94"/>
<path d="M36.7289 8.75272C36.7289 8.75272 37.0611 8.12104 36.3302 8.06361C36.3302 8.06361 35.7071 7.50143 35.072 7.96084C35.072 7.96084 34.7256 7.96084 34.5362 8.35074C34.5362 8.35074 34.2637 8.24796 34.2038 8.52301C34.2038 8.52301 34.0045 9.09727 34.2038 9.6141C34.4032 10.1309 34.4694 10.1884 34.4694 10.1884C34.4694 10.1884 34.1418 9.10479 34.9392 9.04737C35.7366 8.98994 36.629 8.4943 36.6954 9.12598C36.7619 9.75766 36.8619 9.9133 36.8619 9.9133C36.8619 9.9133 37.493 9.01113 36.7289 8.75272Z" fill="#2F2E41"/>
<path d="M20.3157 16.1847H4.58203V4.46143H20.3157V16.1847Z" fill="white"/>
<path d="M19.9396 8.44827H5.33613C4.95897 8.44827 4.59726 8.29785 4.33057 8.0301C4.06389 7.76234 3.91406 7.39919 3.91406 7.02052C3.91406 6.64186 4.06389 6.27871 4.33057 6.01095C4.59726 5.7432 4.95897 5.59277 5.33613 5.59277H19.9396C20.3168 5.59277 20.6785 5.7432 20.9452 6.01095C21.2119 6.27871 21.3617 6.64186 21.3617 7.02052C21.3617 7.39919 21.2119 7.76234 20.9452 8.0301C20.6785 8.29785 20.3168 8.44827 19.9396 8.44827Z" fill="#058B94"/>
<path d="M5.33607 6.05957C5.08221 6.05957 4.83875 6.16082 4.65925 6.34104C4.47975 6.52126 4.37891 6.76569 4.37891 7.02056C4.37891 7.27543 4.47975 7.51986 4.65925 7.70008C4.83875 7.8803 5.08221 7.98154 5.33607 7.98154H19.9396C20.1934 7.98154 20.4369 7.8803 20.6164 7.70008C20.7959 7.51986 20.8967 7.27543 20.8967 7.02056C20.8967 6.76569 20.7959 6.52126 20.6164 6.34104C20.4369 6.16082 20.1934 6.05957 19.9396 6.05957H5.33607Z" fill="white"/>
<path d="M25.1019 5.68506C24.7516 5.68506 24.4157 5.82475 24.1681 6.07341C23.9204 6.32207 23.7813 6.65932 23.7813 7.01098C23.7812 7.36263 23.9204 7.69989 24.1681 7.94855C24.4157 8.19721 24.7516 8.3369 25.1019 8.3369H25.1019C25.4522 8.3369 25.7881 8.19721 26.0357 7.94855C26.2834 7.69989 26.4225 7.36264 26.4225 7.01098C26.4225 6.65932 26.2834 6.32207 26.0357 6.07341C25.7881 5.82475 25.4522 5.68506 25.1019 5.68506Z" fill="#035D63"/>
<path d="M24.9757 7.56185C24.941 7.56191 24.9071 7.55061 24.8793 7.52967L24.8776 7.52838L24.5144 7.24945C24.4976 7.2365 24.4835 7.22036 24.4729 7.20193C24.4622 7.18351 24.4553 7.16316 24.4526 7.14206C24.4498 7.12096 24.4512 7.09952 24.4566 7.07895C24.4621 7.05839 24.4716 7.03911 24.4845 7.02222C24.4974 7.00533 24.5135 6.99115 24.5318 6.9805C24.5502 6.96986 24.5704 6.96294 24.5915 6.96016C24.6125 6.95738 24.6338 6.95878 24.6543 6.96429C24.6748 6.96979 24.694 6.9793 24.7108 6.99225L24.9461 7.17337L25.5019 6.44526C25.5148 6.42838 25.5309 6.41421 25.5492 6.40357C25.5676 6.39293 25.5878 6.38602 25.6088 6.38323C25.6298 6.38045 25.6512 6.38184 25.6716 6.38734C25.6921 6.39283 25.7113 6.40232 25.7281 6.41527L25.7282 6.4153L25.7247 6.42011L25.7283 6.4153C25.7622 6.44147 25.7844 6.48009 25.79 6.52267C25.7956 6.56526 25.7841 6.60833 25.7581 6.64244L25.1043 7.49846C25.0891 7.51819 25.0697 7.53415 25.0474 7.54511C25.0252 7.55607 25.0007 7.56173 24.9759 7.56166L24.9757 7.56185Z" fill="white"/>
<path d="M19.9396 13.2808H5.33613C4.95897 13.2808 4.59726 13.1304 4.33057 12.8626C4.06389 12.5949 3.91406 12.2317 3.91406 11.853C3.91406 11.4744 4.06389 11.1112 4.33057 10.8435C4.59726 10.5757 4.95897 10.4253 5.33613 10.4253H19.9396C20.3168 10.4253 20.6785 10.5757 20.9452 10.8435C21.2119 11.1112 21.3617 11.4744 21.3617 11.853C21.3617 12.2317 21.2119 12.5949 20.9452 12.8626C20.6785 13.1304 20.3168 13.2808 19.9396 13.2808Z" fill="#058B94"/>
<path d="M5.33607 10.8921C5.08221 10.8921 4.83875 10.9933 4.65925 11.1736C4.47975 11.3538 4.37891 11.5982 4.37891 11.8531C4.37891 12.1079 4.47975 12.3524 4.65925 12.5326C4.83875 12.7128 5.08221 12.8141 5.33607 12.8141H19.9396C20.1934 12.8141 20.4369 12.7128 20.6164 12.5326C20.7959 12.3524 20.8967 12.1079 20.8967 11.8531C20.8967 11.5982 20.7959 11.3538 20.6164 11.1736C20.4369 10.9933 20.1934 10.8921 19.9396 10.8921H5.33607Z" fill="white"/>
<path d="M25.1019 10.5176C24.7516 10.5176 24.4157 10.6573 24.1681 10.9059C23.9204 11.1546 23.7813 11.4918 23.7813 11.8435C23.7812 12.1952 23.9204 12.5324 24.1681 12.7811C24.4157 13.0297 24.7516 13.1694 25.1019 13.1694H25.1019C25.4522 13.1694 25.7881 13.0297 26.0357 12.7811C26.2834 12.5324 26.4225 12.1952 26.4225 11.8435C26.4225 11.4918 26.2834 11.1546 26.0357 10.9059C25.7881 10.6573 25.4522 10.5176 25.1019 10.5176Z" fill="#035D63"/>
<path d="M24.9757 12.3944C24.941 12.3944 24.9071 12.3831 24.8793 12.3622L24.8776 12.3609L24.5144 12.082C24.4976 12.069 24.4835 12.0529 24.4729 12.0345C24.4622 12.016 24.4553 11.9957 24.4526 11.9746C24.4498 11.9535 24.4512 11.932 24.4566 11.9115C24.4621 11.8909 24.4716 11.8716 24.4845 11.8547C24.4974 11.8378 24.5135 11.8237 24.5318 11.813C24.5502 11.8024 24.5704 11.7955 24.5915 11.7927C24.6125 11.7899 24.6338 11.7913 24.6543 11.7968C24.6748 11.8023 24.694 11.8118 24.7108 11.8248L24.9461 12.0059L25.5019 11.2778C25.5148 11.2609 25.5309 11.2467 25.5492 11.2361C25.5676 11.2254 25.5878 11.2185 25.6088 11.2157C25.6298 11.213 25.6512 11.2144 25.6716 11.2199C25.6921 11.2254 25.7113 11.2348 25.7281 11.2478L25.7282 11.2478L25.7247 11.2526L25.7283 11.2478C25.7622 11.274 25.7844 11.3126 25.79 11.3552C25.7956 11.3978 25.7841 11.4408 25.7581 11.475L25.1043 12.331C25.0891 12.3507 25.0697 12.3667 25.0474 12.3776C25.0252 12.3886 25.0007 12.3942 24.9759 12.3942L24.9757 12.3944Z" fill="white"/>
<path d="M19.9396 18.1133H5.33613C4.95897 18.1133 4.59726 17.9629 4.33057 17.6951C4.06389 17.4274 3.91406 17.0642 3.91406 16.6856C3.91406 16.3069 4.06389 15.9437 4.33057 15.676C4.59726 15.4082 4.95897 15.2578 5.33613 15.2578H19.9396C20.3168 15.2578 20.6785 15.4082 20.9452 15.676C21.2119 15.9437 21.3617 16.3069 21.3617 16.6856C21.3617 17.0642 21.2119 17.4274 20.9452 17.6951C20.6785 17.9629 20.3168 18.1133 19.9396 18.1133Z" fill="#058B94"/>
<path d="M5.33607 15.7246C5.08221 15.7246 4.83875 15.8259 4.65925 16.0061C4.47975 16.1863 4.37891 16.4307 4.37891 16.6856C4.37891 16.9405 4.47975 17.1849 4.65925 17.3651C4.83875 17.5453 5.08221 17.6466 5.33607 17.6466H19.9396C20.1934 17.6466 20.4369 17.5453 20.6164 17.3651C20.7959 17.1849 20.8967 16.9405 20.8967 16.6856C20.8967 16.4307 20.7959 16.1863 20.6164 16.0061C20.4369 15.8259 20.1934 15.7246 19.9396 15.7246H5.33607Z" fill="white"/>
<path d="M25.1019 15.3501C24.7516 15.3501 24.4157 15.4898 24.1681 15.7384C23.9204 15.9871 23.7813 16.3244 23.7813 16.676C23.7812 17.0277 23.9204 17.3649 24.1681 17.6136C24.4157 17.8622 24.7516 18.0019 25.1019 18.0019H25.1019C25.4522 18.0019 25.7881 17.8622 26.0357 17.6136C26.2834 17.3649 26.4225 17.0277 26.4225 16.676C26.4225 16.3244 26.2834 15.9871 26.0357 15.7385C25.7881 15.4898 25.4522 15.3501 25.1019 15.3501Z" fill="#E6E6E6"/>
<path d="M44.9711 34.4736H39.0918V30.061H44.9711V34.4736Z" fill="white"/>
<path d="M44.9711 34.4736H39.0918V30.061H44.9711V34.4736ZM39.1999 34.3661H44.8629V30.1686H39.1999V34.3661Z" fill="#E6E6E6"/>
<path d="M41.3993 26.556L37.0078 22.668L39.9576 19.3721L44.3491 23.2601L41.3993 26.556Z" fill="white"/>
<path d="M41.3993 26.556L37.0078 22.668L39.9576 19.3721L44.3491 23.2601L41.3993 26.556ZM37.1605 22.6592L41.3904 26.4042L44.1964 23.2689L39.9665 19.5239L37.1605 22.6592Z" fill="#E6E6E6"/>
<path d="M39.7348 20.7822L39.543 20.9966L42.776 23.859L42.9678 23.6446L39.7348 20.7822Z" fill="#058B94"/>
<path d="M39.1587 21.4253L38.9668 21.6396L42.1998 24.502L42.3917 24.2877L39.1587 21.4253Z" fill="#058B94"/>
<path d="M38.5825 22.0688L38.3906 22.2832L41.6236 25.1456L41.8155 24.9312L38.5825 22.0688Z" fill="#058B94"/>
<path d="M38.1607 21.3076C38.122 21.2386 38.0989 21.162 38.0932 21.0831C38.0875 21.0042 38.0992 20.9251 38.1276 20.8513C38.1559 20.7774 38.2002 20.7106 38.2573 20.6556C38.3145 20.6007 38.383 20.5588 38.4581 20.533L38.4614 18.6113L39.2986 19.1625L39.1672 20.9029C39.2024 21.0313 39.189 21.1681 39.1295 21.2873C39.0701 21.4066 38.9688 21.5 38.8447 21.5499C38.7206 21.5998 38.5825 21.6027 38.4564 21.558C38.3303 21.5134 38.2251 21.4243 38.1607 21.3076V21.3076Z" fill="#9E616A"/>
<path d="M38.2378 12.8049L38.6119 12.4463L38.8867 12.6435C38.8867 12.6435 39.157 12.9662 39.3733 13.9342C39.5895 14.9021 39.3733 20.226 39.3733 20.226L38.1838 20.0647L38.346 17.2683L37.8594 14.9021L38.2378 12.8049Z" fill="#058B94"/>
</g>
<defs>
<clipPath id="clip0_3860_20710">
<rect width="50" height="34.5238" fill="white"/>
</clipPath>
</defs>
</svg>
