<svg width="50" height="39" viewBox="0 0 50 39" fill="none" xmlns="http://www.w3.org/2000/svg">
<g clip-path="url(#clip0_3860_20709)">
<rect width="50" height="38.3117" rx="4" fill="white"/>
<g clip-path="url(#clip1_3860_20709)">
<path d="M46.3202 37.5139C46.5225 35.8964 47.5303 34.3027 49.0812 33.7764C48.4696 35.4412 48.4697 37.2675 49.0816 38.9323C49.3199 39.5734 49.6521 40.2619 49.4279 40.9081C49.2885 41.3102 48.9473 41.6178 48.5659 41.8102C48.1844 42.0025 47.7611 42.0942 47.3431 42.184L47.2609 42.2517C46.5973 40.7614 46.118 39.1313 46.3202 37.5139Z" fill="#035D63"/>
<path d="M49.0954 33.8071C48.1922 34.8136 47.6309 36.0776 47.4911 37.4195C47.4558 37.7079 47.4665 38 47.5227 38.285C47.5864 38.5609 47.7233 38.8148 47.9191 39.0204C48.0978 39.2156 48.3033 39.3948 48.4311 39.6298C48.4948 39.7511 48.5319 39.8844 48.5402 40.021C48.5484 40.1575 48.5275 40.2943 48.4788 40.4223C48.3659 40.7443 48.1435 41.0067 47.9169 41.2559C47.6654 41.5325 47.3998 41.8159 47.2929 42.1826C47.2799 42.2271 47.2113 42.2045 47.2243 42.1601C47.4103 41.522 48.033 41.1596 48.33 40.5849C48.4686 40.3168 48.5268 40.0054 48.3968 39.7224C48.2832 39.4748 48.0715 39.2899 47.8888 39.0938C47.6949 38.8961 47.5526 38.6542 47.4743 38.3891C47.4037 38.1079 47.3817 37.8167 47.4093 37.5281C47.4611 36.8773 47.6154 36.2387 47.8666 35.6356C48.1495 34.9458 48.5489 34.3091 49.0476 33.7532C49.0785 33.7188 49.1261 33.7729 49.0954 33.8071H49.0954Z" fill="white"/>
<path d="M47.5113 36.9845C47.2881 36.9306 47.0915 36.7996 46.9564 36.6148C46.8214 36.43 46.7569 36.2035 46.7743 35.9757C46.7779 35.9296 46.8501 35.9332 46.8464 35.9793C46.8298 36.1914 46.89 36.4023 47.0161 36.5742C47.1421 36.746 47.3258 36.8673 47.5339 36.9163C47.5791 36.927 47.5562 36.9951 47.5113 36.9845V36.9845Z" fill="white"/>
<path d="M47.817 38.9329C48.2201 38.6935 48.5177 38.3118 48.6504 37.8639C48.6635 37.8195 48.7321 37.8421 48.719 37.8864C48.58 38.3523 48.2695 38.7489 47.8495 38.9971C47.8095 39.0207 47.7772 38.9564 47.817 38.9329V38.9329Z" fill="white"/>
<path d="M48.2171 35.0135C48.299 35.0522 48.3894 35.0701 48.4801 35.0655C48.5707 35.061 48.6588 35.0341 48.7364 34.9873C48.7762 34.9631 48.8084 35.0275 48.7689 35.0514C48.6829 35.1027 48.5856 35.1323 48.4855 35.1376C48.3853 35.1429 48.2854 35.1237 48.1944 35.0817C48.1855 35.0784 48.1782 35.072 48.1739 35.0635C48.1696 35.0551 48.1688 35.0454 48.1714 35.0363C48.1745 35.0273 48.181 35.0198 48.1895 35.0156C48.1981 35.0113 48.208 35.0105 48.2171 35.0135V35.0135Z" fill="white"/>
<path d="M53.808 36.6651C53.7836 36.6809 53.7592 36.6967 53.7348 36.713C53.4082 36.9267 53.0996 37.1663 52.812 37.4297C52.7894 37.4497 52.7668 37.4703 52.7449 37.4909C52.0588 38.1327 51.4985 38.8956 51.0924 39.7408C50.9311 40.0773 50.7958 40.4255 50.6876 40.7824C50.5382 41.2754 50.4157 41.8216 50.1201 42.2248C50.0897 42.2672 50.0567 42.3077 50.0213 42.3461H47.3496C47.3435 42.343 47.3374 42.3406 47.3313 42.3376L47.2246 42.3424C47.2289 42.3236 47.2337 42.3042 47.238 42.2854C47.2405 42.2745 47.2435 42.2636 47.2459 42.2527C47.2478 42.2454 47.2496 42.2381 47.2508 42.2315C47.2514 42.229 47.2521 42.2266 47.2526 42.2248C47.2539 42.2181 47.2557 42.2121 47.2569 42.206C47.2838 42.0975 47.3114 41.989 47.3398 41.8804C47.3398 41.8798 47.3398 41.8798 47.3404 41.8792C47.5593 41.0528 47.8494 40.2374 48.2548 39.4917C48.267 39.4692 48.2792 39.4462 48.2926 39.4238C48.4772 39.0886 48.689 38.7691 48.9259 38.4682C49.0562 38.3039 49.1948 38.1463 49.3411 37.9959C49.7198 37.6082 50.1576 37.282 50.6382 37.0295C51.5965 36.5263 52.7059 36.3335 53.73 36.6409C53.7562 36.6488 53.7818 36.6567 53.808 36.6651Z" fill="#035D63"/>
<path d="M53.8013 36.6989C52.4709 36.9617 51.2575 37.6348 50.3336 38.6225C50.1309 38.8316 49.9626 39.0712 49.8349 39.3325C49.7188 39.591 49.6744 39.8757 49.7063 40.157C49.7308 40.4199 49.7864 40.686 49.7462 40.9502C49.7236 41.0852 49.6726 41.2139 49.5965 41.3278C49.5204 41.4418 49.4209 41.5385 49.3046 41.6115C49.0196 41.801 48.6831 41.8774 48.3514 41.9406C47.9831 42.0109 47.5995 42.0781 47.2921 42.3069C47.2548 42.3346 47.2138 42.2755 47.251 42.2478C47.7857 41.8498 48.5023 41.9333 49.0873 41.6523C49.3603 41.5211 49.5952 41.3074 49.6628 41.0036C49.722 40.7379 49.6648 40.4635 49.6377 40.1975C49.6025 39.9235 49.6353 39.6451 49.7333 39.3866C49.8472 39.1198 50.0059 38.8741 50.2026 38.6602C50.6379 38.1716 51.1477 37.7541 51.7133 37.423C52.3567 37.0416 53.0611 36.7725 53.7958 36.6272C53.8412 36.6183 53.8465 36.69 53.8013 36.6989V36.6989Z" fill="white"/>
<path d="M37.6899 29.348C37.7452 29.2912 37.7873 29.223 37.8132 29.1483C37.8391 29.0736 37.8483 28.9941 37.84 28.9155C37.8317 28.8368 37.8061 28.761 37.7652 28.6932C37.7242 28.6255 37.6688 28.5675 37.6029 28.5234L38.0968 26.6655L37.1452 26.9839L36.822 28.6993C36.7548 28.8144 36.7324 28.95 36.7589 29.0805C36.7855 29.2109 36.8593 29.3271 36.9663 29.4071C37.0733 29.487 37.206 29.5252 37.3394 29.5143C37.4728 29.5034 37.5975 29.4443 37.6899 29.348V29.348Z" fill="#9E616A"/>
<path d="M38.5893 26.5049L38.3349 26.5748C38.3349 26.5748 37.6702 30.8608 37.6161 33.1194C37.562 35.378 37.7783 41.0783 37.7783 41.0783H39.1841L40.3195 31.3985L40.8602 41.0783H42.3741C42.3741 41.0783 43.4554 28.3871 42.9688 27.3653C42.4822 26.3436 38.5893 26.5049 38.5893 26.5049Z" fill="#035D63"/>
<path d="M40.6159 18.9423C41.3174 18.9423 41.8861 18.3766 41.8861 17.6789C41.8861 16.9812 41.3174 16.4155 40.6159 16.4155C39.9144 16.4155 39.3457 16.9812 39.3457 17.6789C39.3457 18.3766 39.9144 18.9423 40.6159 18.9423Z" fill="#9E616A"/>
<path d="M43.8335 20.5896L41.862 19.3081L39.819 19.3881L37.832 20.482L38.589 24.6766L38.2646 27.0965C38.2646 27.0965 41.1842 26.7739 41.833 27.2579C42.212 27.545 42.6589 27.7302 43.1307 27.7956L43.0225 23.6548L43.8335 20.5896Z" fill="#058B94"/>
<path d="M38.2098 20.4284L38.0056 20.3862L37.8314 20.4822C37.8314 20.4822 37.3447 21.1275 37.3447 21.719C37.3447 22.3106 36.75 28.0108 36.75 28.0108L37.8314 28.4948L38.6964 24.0314L38.2098 20.4284Z" fill="#058B94"/>
<path d="M41.7289 16.7527C41.7289 16.7527 42.0611 16.121 41.3302 16.0636C41.3302 16.0636 40.7071 15.5014 40.072 15.9608C40.072 15.9608 39.7256 15.9608 39.5362 16.3507C39.5362 16.3507 39.2637 16.248 39.2038 16.523C39.2038 16.523 39.0045 17.0973 39.2038 17.6141C39.4032 18.1309 39.4694 18.1884 39.4694 18.1884C39.4694 18.1884 39.1418 17.1048 39.9392 17.0474C40.7366 16.9899 41.629 16.4943 41.6954 17.126C41.7619 17.7577 41.8619 17.9133 41.8619 17.9133C41.8619 17.9133 42.493 17.0111 41.7289 16.7527Z" fill="#2F2E41"/>
<path d="M25.3157 24.1847H9.58203V12.4614H25.3157V24.1847Z" fill="white"/>
<path d="M24.9396 16.4483H10.3361C9.95897 16.4483 9.59726 16.2979 9.33057 16.0301C9.06389 15.7623 8.91406 15.3992 8.91406 15.0205C8.91406 14.6419 9.06389 14.2787 9.33057 14.011C9.59726 13.7432 9.95897 13.5928 10.3361 13.5928H24.9396C25.3168 13.5928 25.6785 13.7432 25.9452 14.011C26.2119 14.2787 26.3617 14.6419 26.3617 15.0205C26.3617 15.3992 26.2119 15.7623 25.9452 16.0301C25.6785 16.2979 25.3168 16.4483 24.9396 16.4483V16.4483Z" fill="#058B94"/>
<path d="M10.3361 14.0596C10.0822 14.0596 9.83875 14.1608 9.65925 14.341C9.47975 14.5213 9.37891 14.7657 9.37891 15.0206C9.37891 15.2754 9.47975 15.5199 9.65925 15.7001C9.83875 15.8803 10.0822 15.9815 10.3361 15.9815H24.9396C25.1934 15.9815 25.4369 15.8803 25.6164 15.7001C25.7959 15.5199 25.8967 15.2754 25.8967 15.0206C25.8967 14.7657 25.7959 14.5213 25.6164 14.341C25.4369 14.1608 25.1934 14.0596 24.9396 14.0596H10.3361Z" fill="white"/>
<path d="M30.1019 13.6851C29.7516 13.6851 29.4157 13.8248 29.1681 14.0734C28.9204 14.3221 28.7813 14.6593 28.7813 15.011C28.7812 15.3626 28.9204 15.6999 29.1681 15.9485C29.4157 16.1972 29.7516 16.3369 30.1019 16.3369H30.1019C30.4522 16.3369 30.7881 16.1972 31.0357 15.9485C31.2834 15.6999 31.4225 15.3626 31.4225 15.011C31.4225 14.6593 31.2834 14.3221 31.0357 14.0734C30.7881 13.8248 30.4522 13.6851 30.1019 13.6851V13.6851Z" fill="#035D63"/>
<path d="M29.9757 15.5618C29.941 15.5619 29.9071 15.5506 29.8793 15.5297L29.8776 15.5284L29.5144 15.2494C29.4976 15.2365 29.4835 15.2204 29.4729 15.2019C29.4622 15.1835 29.4553 15.1632 29.4526 15.1421C29.4498 15.121 29.4512 15.0995 29.4566 15.079C29.4621 15.0584 29.4716 15.0391 29.4845 15.0222C29.4974 15.0053 29.5135 14.9912 29.5318 14.9805C29.5502 14.9699 29.5704 14.9629 29.5915 14.9602C29.6125 14.9574 29.6338 14.9588 29.6543 14.9643C29.6748 14.9698 29.694 14.9793 29.7108 14.9923L29.9461 15.1734L30.5019 14.4453C30.5148 14.4284 30.5309 14.4142 30.5492 14.4036C30.5676 14.3929 30.5878 14.386 30.6088 14.3832C30.6298 14.3804 30.6512 14.3818 30.6716 14.3873C30.6921 14.3928 30.7113 14.4023 30.7281 14.4153L30.7282 14.4153L30.7247 14.4201L30.7283 14.4153C30.7622 14.4415 30.7844 14.4801 30.79 14.5227C30.7956 14.5653 30.7841 14.6083 30.7581 14.6424L30.1043 15.4985C30.0891 15.5182 30.0697 15.5341 30.0474 15.5451C30.0252 15.5561 30.0007 15.5617 29.9759 15.5617L29.9757 15.5618Z" fill="white"/>
<path d="M24.9396 21.2808H10.3361C9.95897 21.2808 9.59726 21.1304 9.33057 20.8626C9.06389 20.5949 8.91406 20.2317 8.91406 19.853C8.91406 19.4744 9.06389 19.1112 9.33057 18.8435C9.59726 18.5757 9.95897 18.4253 10.3361 18.4253H24.9396C25.3168 18.4253 25.6785 18.5757 25.9452 18.8435C26.2119 19.1112 26.3617 19.4744 26.3617 19.853C26.3617 20.2317 26.2119 20.5949 25.9452 20.8626C25.6785 21.1304 25.3168 21.2808 24.9396 21.2808V21.2808Z" fill="#058B94"/>
<path d="M10.3361 18.8921C10.0822 18.8921 9.83875 18.9933 9.65925 19.1736C9.47975 19.3538 9.37891 19.5982 9.37891 19.8531C9.37891 20.1079 9.47975 20.3524 9.65925 20.5326C9.83875 20.7128 10.0822 20.8141 10.3361 20.8141H24.9396C25.1934 20.8141 25.4369 20.7128 25.6164 20.5326C25.7959 20.3524 25.8967 20.1079 25.8967 19.8531C25.8967 19.5982 25.7959 19.3538 25.6164 19.1736C25.4369 18.9933 25.1934 18.8921 24.9396 18.8921H10.3361Z" fill="white"/>
<path d="M30.1019 18.5176C29.7516 18.5176 29.4157 18.6573 29.1681 18.9059C28.9204 19.1546 28.7813 19.4918 28.7813 19.8435C28.7812 20.1952 28.9204 20.5324 29.1681 20.7811C29.4157 21.0297 29.7516 21.1694 30.1019 21.1694H30.1019C30.4522 21.1694 30.7881 21.0297 31.0357 20.7811C31.2834 20.5324 31.4225 20.1952 31.4225 19.8435C31.4225 19.4918 31.2834 19.1546 31.0357 18.9059C30.7881 18.6573 30.4522 18.5176 30.1019 18.5176V18.5176Z" fill="#035D63"/>
<path d="M29.9757 20.3944C29.941 20.3944 29.9071 20.3831 29.8793 20.3622L29.8776 20.3609L29.5144 20.082C29.4976 20.069 29.4835 20.0529 29.4729 20.0345C29.4622 20.016 29.4553 19.9957 29.4526 19.9746C29.4498 19.9535 29.4512 19.932 29.4566 19.9115C29.4621 19.8909 29.4716 19.8716 29.4845 19.8547C29.4974 19.8378 29.5135 19.8237 29.5318 19.813C29.5502 19.8024 29.5704 19.7955 29.5915 19.7927C29.6125 19.7899 29.6338 19.7913 29.6543 19.7968C29.6748 19.8023 29.694 19.8118 29.7108 19.8248L29.9461 20.0059L30.5019 19.2778C30.5148 19.2609 30.5309 19.2467 30.5492 19.2361C30.5676 19.2254 30.5878 19.2185 30.6088 19.2157C30.6298 19.213 30.6512 19.2144 30.6716 19.2199C30.6921 19.2254 30.7113 19.2348 30.7281 19.2478L30.7282 19.2478L30.7247 19.2526L30.7283 19.2478C30.7622 19.274 30.7844 19.3126 30.79 19.3552C30.7956 19.3978 30.7841 19.4408 30.7581 19.475L30.1043 20.331C30.0891 20.3507 30.0697 20.3667 30.0474 20.3776C30.0252 20.3886 30.0007 20.3942 29.9759 20.3942L29.9757 20.3944Z" fill="white"/>
<path d="M24.9396 26.1133H10.3361C9.95897 26.1133 9.59726 25.9629 9.33057 25.6951C9.06389 25.4274 8.91406 25.0642 8.91406 24.6856C8.91406 24.3069 9.06389 23.9437 9.33057 23.676C9.59726 23.4082 9.95897 23.2578 10.3361 23.2578H24.9396C25.3168 23.2578 25.6785 23.4082 25.9452 23.676C26.2119 23.9437 26.3617 24.3069 26.3617 24.6856C26.3617 25.0642 26.2119 25.4274 25.9452 25.6951C25.6785 25.9629 25.3168 26.1133 24.9396 26.1133V26.1133Z" fill="#058B94"/>
<path d="M10.3361 23.7246C10.0822 23.7246 9.83875 23.8259 9.65925 24.0061C9.47975 24.1863 9.37891 24.4307 9.37891 24.6856C9.37891 24.9405 9.47975 25.1849 9.65925 25.3651C9.83875 25.5453 10.0822 25.6466 10.3361 25.6466H24.9396C25.1934 25.6466 25.4369 25.5453 25.6164 25.3651C25.7959 25.1849 25.8967 24.9405 25.8967 24.6856C25.8967 24.4307 25.7959 24.1863 25.6164 24.0061C25.4369 23.8259 25.1934 23.7246 24.9396 23.7246H10.3361Z" fill="white"/>
<path d="M30.1019 23.3501C29.7516 23.3501 29.4157 23.4898 29.1681 23.7384C28.9204 23.9871 28.7813 24.3244 28.7813 24.676C28.7812 25.0277 28.9204 25.3649 29.1681 25.6136C29.4157 25.8622 29.7516 26.0019 30.1019 26.0019H30.1019C30.4522 26.0019 30.7881 25.8622 31.0357 25.6136C31.2834 25.3649 31.4225 25.0277 31.4225 24.676C31.4225 24.3244 31.2834 23.9871 31.0357 23.7385C30.7881 23.4898 30.4522 23.3501 30.1019 23.3501Z" fill="#E6E6E6"/>
<path d="M49.9711 42.4736H44.0918V38.061H49.9711V42.4736Z" fill="white"/>
<path d="M49.9711 42.4736H44.0918V38.061H49.9711V42.4736ZM44.1999 42.3661H49.8629V38.1686H44.1999V42.3661Z" fill="#E6E6E6"/>
<path d="M46.3993 34.556L42.0078 30.668L44.9576 27.3721L49.3491 31.2601L46.3993 34.556Z" fill="white"/>
<path d="M46.3993 34.556L42.0078 30.668L44.9576 27.3721L49.3491 31.2601L46.3993 34.556ZM42.1605 30.6592L46.3904 34.4042L49.1964 31.2689L44.9665 27.5239L42.1605 30.6592Z" fill="#E6E6E6"/>
<path d="M44.7348 28.7822L44.543 28.9966L47.776 31.859L47.9678 31.6446L44.7348 28.7822Z" fill="#058B94"/>
<path d="M44.1587 29.4253L43.9668 29.6396L47.1998 32.502L47.3917 32.2877L44.1587 29.4253Z" fill="#058B94"/>
<path d="M43.5825 30.0688L43.3906 30.2832L46.6236 33.1456L46.8155 32.9312L43.5825 30.0688Z" fill="#058B94"/>
<path d="M43.1607 29.3076C43.122 29.2386 43.0989 29.162 43.0932 29.0831C43.0875 29.0042 43.0992 28.9251 43.1276 28.8513C43.1559 28.7774 43.2002 28.7106 43.2573 28.6556C43.3145 28.6007 43.383 28.5588 43.4581 28.533L43.4614 26.6113L44.2986 27.1625L44.1672 28.9029C44.2024 29.0313 44.189 29.1681 44.1295 29.2873C44.0701 29.4066 43.9688 29.5 43.8447 29.5499C43.7206 29.5998 43.5825 29.6027 43.4564 29.558C43.3303 29.5134 43.2251 29.4243 43.1607 29.3076V29.3076Z" fill="#9E616A"/>
<path d="M43.2378 20.8049L43.6119 20.4463L43.8867 20.6435C43.8867 20.6435 44.157 20.9662 44.3733 21.9342C44.5895 22.9021 44.3733 28.226 44.3733 28.226L43.1838 28.0647L43.346 25.2683L42.8594 22.9021L43.2378 20.8049Z" fill="#058B94"/>
</g>
</g>
<defs>
<clipPath id="clip0_3860_20709">
<rect width="50" height="38.3117" rx="4" fill="white"/>
</clipPath>
<clipPath id="clip1_3860_20709">
<rect width="50" height="34.5238" fill="white" transform="translate(5 8)"/>
</clipPath>
</defs>
</svg>
