<svg width="16" height="18" viewBox="0 0 16 18" fill="none" xmlns="http://www.w3.org/2000/svg">
<path d="M1.00938 3.17116V14.83M13.8668 1.15068C13.9699 1.06919 14.0939 1.0184 14.2245 1.00413C14.3552 0.989867 14.4872 1.0127 14.6055 1.07001C14.7238 1.12733 14.8235 1.21681 14.8933 1.3282C14.9631 1.43958 15.0001 1.56837 15 1.69981V16.3014C14.9998 16.4327 14.9627 16.5613 14.8928 16.6725C14.823 16.7838 14.7232 16.8731 14.605 16.9302C14.4867 16.9874 14.3548 17.0101 14.2242 16.9958C14.0937 16.9815 13.9698 16.9307 13.8668 16.8493L4.62013 9.54971C4.53716 9.48424 4.4701 9.40081 4.424 9.3057C4.3779 9.21059 4.35395 9.10627 4.35395 9.00058C4.35395 8.89489 4.3779 8.79057 4.424 8.69546C4.4701 8.60035 4.53716 8.51693 4.62013 8.45145L13.8668 1.15068Z" stroke="#058B94" stroke-width="2" stroke-linecap="round" stroke-linejoin="round"/>
</svg>
