<svg width="11" height="19" viewBox="0 0 11 19" fill="none" xmlns="http://www.w3.org/2000/svg">
<path d="M0.365445 18.2608C0.835469 18.7308 1.59326 18.7308 2.06329 18.2608L10.0345 10.2895C10.1234 10.2008 10.194 10.0954 10.2421 9.97935C10.2903 9.86331 10.315 9.73891 10.315 9.61328C10.315 9.48765 10.2903 9.36326 10.2421 9.24721C10.194 9.13117 10.1234 9.02576 10.0345 8.93702L2.06329 0.965799C1.59326 0.495775 0.835469 0.495775 0.365445 0.965799C-0.104579 1.43582 -0.104579 2.19362 0.365445 2.66364L7.31029 9.61808L0.355853 16.5725C-0.104579 17.0329 -0.104579 17.8003 0.365445 18.2608Z" fill="#058B94"/>
</svg>
