<svg width="11" height="19" viewBox="0 0 11 19" fill="none" xmlns="http://www.w3.org/2000/svg">
<path d="M10.6346 18.2608C10.1645 18.7308 9.40674 18.7308 8.93671 18.2608L0.96549 10.2895C0.876566 10.2008 0.806017 10.0954 0.757881 9.97935C0.709745 9.86331 0.684968 9.73891 0.684968 9.61328C0.684968 9.48765 0.709745 9.36326 0.757881 9.24721C0.806017 9.13117 0.876566 9.02576 0.96549 8.93702L8.93671 0.965799C9.40674 0.495775 10.1645 0.495775 10.6346 0.965799C11.1046 1.43582 11.1046 2.19362 10.6346 2.66364L3.68971 9.61808L10.6441 16.5725C11.1046 17.0329 11.1046 17.8003 10.6346 18.2608Z" fill="#058B94"/>
</svg>
