<svg width="16" height="18" viewBox="0 0 16 18" fill="none" xmlns="http://www.w3.org/2000/svg">
<path d="M14.9906 3.17116V14.83M2.13324 1.15068C2.03012 1.06919 1.90612 1.0184 1.77546 1.00413C1.6448 0.989867 1.51277 1.0127 1.39449 1.07001C1.27621 1.12733 1.17647 1.21681 1.1067 1.3282C1.03693 1.43958 0.999948 1.56837 1 1.69981V16.3014C1.00017 16.4327 1.0373 16.5613 1.10716 16.6725C1.17702 16.7838 1.27677 16.8731 1.39501 16.9302C1.51325 16.9874 1.6452 17.0101 1.77575 16.9958C1.9063 16.9815 2.03019 16.9307 2.13324 16.8493L11.3799 9.54971C11.4628 9.48424 11.5299 9.40081 11.576 9.3057C11.6221 9.21059 11.646 9.10627 11.646 9.00058C11.646 8.89489 11.6221 8.79057 11.576 8.69546C11.5299 8.60035 11.4628 8.51693 11.3799 8.45145L2.13324 1.15068Z" stroke="#058B94" stroke-width="2" stroke-linecap="round" stroke-linejoin="round"/>
</svg>
