<svg width="19" height="19" viewBox="0 0 19 19" fill="none" xmlns="http://www.w3.org/2000/svg">
<circle cx="9.5" cy="9.5" r="9.5" fill="#F7FEFF"/>
<path d="M8.875 4.875H4.5C4.15482 4.875 3.875 5.15482 3.875 5.5V9.875C3.875 10.2202 4.15482 10.5 4.5 10.5H8.875C9.22018 10.5 9.5 10.2202 9.5 9.875V5.5C9.5 5.15482 9.22018 4.875 8.875 4.875Z" stroke="#FF5964" stroke-width="1.5" stroke-linecap="round" stroke-linejoin="round"/>
<path d="M14.8125 13H12.3125C12.1399 13 12 13.1399 12 13.3125V15.8125C12 15.9851 12.1399 16.125 12.3125 16.125H14.8125C14.9851 16.125 15.125 15.9851 15.125 15.8125V13.3125C15.125 13.1399 14.9851 13 14.8125 13Z" stroke="#FF5964" stroke-width="1.5" stroke-linecap="round" stroke-linejoin="round"/>
<path d="M14.8125 7.375H12.3125C12.1399 7.375 12 7.51491 12 7.6875V10.1875C12 10.3601 12.1399 10.5 12.3125 10.5H14.8125C14.9851 10.5 15.125 10.3601 15.125 10.1875V7.6875C15.125 7.51491 14.9851 7.375 14.8125 7.375Z" stroke="#FF5964" stroke-width="1.5" stroke-linecap="round" stroke-linejoin="round"/>
<path d="M9.1875 13H6.6875C6.51491 13 6.375 13.1399 6.375 13.3125V15.8125C6.375 15.9851 6.51491 16.125 6.6875 16.125H9.1875C9.36009 16.125 9.5 15.9851 9.5 15.8125V13.3125C9.5 13.1399 9.36009 13 9.1875 13Z" stroke="#FF5964" stroke-width="1.5" stroke-linecap="round" stroke-linejoin="round"/>
</svg>
