<svg width="24" height="24" viewBox="0 0 24 24" fill="none" xmlns="http://www.w3.org/2000/svg">
<path d="M11 3H4C3.44772 3 3 3.44772 3 4V11C3 11.5523 3.44772 12 4 12H11C11.5523 12 12 11.5523 12 11V4C12 3.44772 11.5523 3 11 3Z" stroke="#808080" stroke-width="2" stroke-linecap="round" stroke-linejoin="round"/>
<path d="M20.5 16H16.5C16.2239 16 16 16.2239 16 16.5V20.5C16 20.7761 16.2239 21 16.5 21H20.5C20.7761 21 21 20.7761 21 20.5V16.5C21 16.2239 20.7761 16 20.5 16Z" stroke="#808080" stroke-width="2" stroke-linecap="round" stroke-linejoin="round"/>
<path d="M20.5 7H16.5C16.2239 7 16 7.22386 16 7.5V11.5C16 11.7761 16.2239 12 16.5 12H20.5C20.7761 12 21 11.7761 21 11.5V7.5C21 7.22386 20.7761 7 20.5 7Z" stroke="#808080" stroke-width="2" stroke-linecap="round" stroke-linejoin="round"/>
<path d="M11.5 16H7.5C7.22386 16 7 16.2239 7 16.5V20.5C7 20.7761 7.22386 21 7.5 21H11.5C11.7761 21 12 20.7761 12 20.5V16.5C12 16.2239 11.7761 16 11.5 16Z" stroke="#808080" stroke-width="2" stroke-linecap="round" stroke-linejoin="round"/>
</svg>
