<svg width="16" height="16" viewBox="0 0 16 16" fill="none" xmlns="http://www.w3.org/2000/svg">
<path d="M15.8135 15.0576L11.3372 10.5866C12.3536 9.37671 12.8638 7.82108 12.7612 6.2442C12.6585 4.66731 11.9511 3.19092 10.7863 2.12298C9.62158 1.05504 8.08951 0.478013 6.50966 0.512244C4.9298 0.546475 3.42416 1.18933 2.30677 2.30671C1.18939 3.4241 0.546536 4.92974 0.512305 6.50959C0.478074 8.08945 1.05511 9.62152 2.12305 10.7863C3.19099 11.951 4.66737 12.6585 6.24426 12.7611C7.82115 12.8637 9.37678 12.3536 10.5867 11.3371L15.0576 15.8134C15.1071 15.8633 15.166 15.9029 15.2309 15.9299C15.2957 15.9569 15.3653 15.9708 15.4355 15.9708C15.5058 15.9708 15.5754 15.9569 15.6402 15.9299C15.7051 15.9029 15.764 15.8633 15.8135 15.8134C15.8633 15.7639 15.9029 15.705 15.93 15.6402C15.957 15.5753 15.9709 15.5057 15.9709 15.4355C15.9709 15.3652 15.957 15.2957 15.93 15.2308C15.9029 15.1659 15.8633 15.1071 15.8135 15.0576ZM1.59684 6.65323C1.59684 5.65315 1.89339 4.67554 2.449 3.84401C3.00461 3.01248 3.79432 2.36438 4.71827 1.98167C5.64221 1.59896 6.6589 1.49883 7.63975 1.69393C8.62061 1.88904 9.52158 2.37062 10.2287 3.07777C10.9359 3.78493 11.4175 4.6859 11.6126 5.66676C11.8077 6.64762 11.7076 7.6643 11.3248 8.58825C10.9421 9.51219 10.294 10.3019 9.4625 10.8575C8.63097 11.4131 7.65336 11.7097 6.65329 11.7097C5.31267 11.7083 4.02736 11.1751 3.07939 10.2271C2.13143 9.27916 1.59824 7.99385 1.59684 6.65323Z" fill="#4F4F4F"/>
</svg>
