<svg width="20" height="20" viewBox="0 0 20 20" fill="none" xmlns="http://www.w3.org/2000/svg">
<path d="M3.75988 17.8248C4.9173 15.5547 7.27709 14 10 14C12.7019 14 15.0462 15.5308 16.2131 17.7723M12.3333 8.4444C12.3333 9.7945 11.2389 10.8889 9.8889 10.8889C8.5389 10.8889 7.44444 9.7945 7.44444 8.4444C7.44444 7.09442 8.5389 6 9.8889 6C11.2389 6 12.3333 7.09442 12.3333 8.4444ZM10 19C6.25027 19 4.3754 19 3.06107 18.0451C2.6366 17.7367 2.26331 17.3634 1.95491 16.9389C1 15.6246 1 13.7497 1 10C1 6.25027 1 4.3754 1.95491 3.06107C2.26331 2.6366 2.6366 2.26331 3.06107 1.95491C4.3754 1 6.25027 1 10 1C13.7497 1 15.6246 1 16.9389 1.95491C17.3634 2.26331 17.7367 2.6366 18.0451 3.06107C19 4.3754 19 6.25027 19 10C19 13.7497 19 15.6246 18.0451 16.9389C17.7367 17.3634 17.3634 17.7367 16.9389 18.0451C15.6246 19 13.7497 19 10 19Z" stroke="black" stroke-width="2" stroke-linecap="round" stroke-linejoin="round"/>
</svg>
