<svg width="24" height="24" viewBox="0 0 24 24" fill="none" xmlns="http://www.w3.org/2000/svg">
<path d="M21.835 0.28125H2.16504C1.125 0.28125 0.28125 1.125 0.28125 2.16504V21.835C0.28125 22.875 1.125 23.7188 2.16504 23.7188H21.835C22.875 23.7188 23.7188 22.875 23.7188 21.835V2.16504C23.7188 1.125 22.875 0.28125 21.835 0.28125ZM21.835 21.8438C8.71582 21.8408 2.15625 21.8379 2.15625 21.835C2.15918 8.71582 2.16211 2.15625 2.16504 2.15625C15.2842 2.15918 21.8438 2.16211 21.8438 2.16504C21.8408 15.2842 21.8379 21.8438 21.835 21.8438ZM3.75586 9.06738H7.2334V20.2529H3.75586V9.06738ZM5.49609 7.53809C6.60645 7.53809 7.51172 6.63574 7.51172 5.52246C7.51172 5.25777 7.45958 4.99566 7.35829 4.75111C7.25699 4.50657 7.10852 4.28437 6.92136 4.0972C6.73419 3.91003 6.51199 3.76156 6.26744 3.66027C6.02289 3.55897 5.76079 3.50684 5.49609 3.50684C5.2314 3.50684 4.96929 3.55897 4.72475 3.66027C4.4802 3.76156 4.258 3.91003 4.07083 4.0972C3.88366 4.28437 3.73519 4.50657 3.6339 4.75111C3.5326 4.99566 3.48047 5.25777 3.48047 5.52246C3.47754 6.63574 4.37988 7.53809 5.49609 7.53809ZM12.8877 14.7188C12.8877 13.2598 13.166 11.8477 14.9736 11.8477C16.7549 11.8477 16.7812 13.5146 16.7812 14.8125V20.2529H20.2559V14.1182C20.2559 11.1064 19.6055 8.78906 16.0869 8.78906C14.3965 8.78906 13.2627 9.71777 12.7969 10.5967H12.75V9.06738H9.41309V20.2529H12.8877V14.7188Z" fill="#4D4D4D"/>
</svg>
