<svg width="22" height="22" viewBox="0 0 22 22" fill="none" xmlns="http://www.w3.org/2000/svg">
<path d="M9.0761 2.16311C9.136 1.50438 9.6883 1 10.3497 1H11.6503C12.3117 1 12.864 1.50438 12.9239 2.16311C12.9731 2.70392 13.3623 3.14543 13.8708 3.336C14.0015 3.38499 14.1307 3.43724 14.2582 3.49263C14.7613 3.71129 15.3531 3.66938 15.7745 3.31818C16.2953 2.8842 17.0611 2.91894 17.5404 3.39829L18.4584 4.31623C18.9154 4.77326 18.9485 5.50338 18.5347 5.99992C18.1901 6.41349 18.158 6.99745 18.3897 7.48341C18.49 7.69386 18.5816 7.90926 18.664 8.12916C18.8546 8.63767 19.2961 9.0269 19.8369 9.0761C20.4956 9.136 21 9.6883 21 10.3497V11.6503C21 12.3117 20.4956 12.864 19.8369 12.9239C19.2961 12.9731 18.8546 13.3623 18.664 13.8708C18.59 14.0682 18.5086 14.262 18.4202 14.4518C18.2053 14.913 18.2401 15.4637 18.5658 15.8546C18.962 16.33 18.9303 17.0291 18.4927 17.4667L17.4667 18.4927C17.0291 18.9303 16.33 18.962 15.8546 18.5658C15.4637 18.2401 14.913 18.2053 14.4518 18.4202C14.262 18.5086 14.0682 18.59 13.8708 18.664C13.3623 18.8546 12.9731 19.2961 12.9239 19.8369C12.864 20.4956 12.3117 21 11.6503 21H10.3497C9.6883 21 9.136 20.4956 9.0761 19.8369C9.0269 19.2961 8.63767 18.8546 8.12917 18.664C7.90927 18.5816 7.69387 18.49 7.48343 18.3897C6.99746 18.158 6.4135 18.1901 5.99992 18.5347C5.50338 18.9485 4.77325 18.9154 4.31622 18.4584L3.39829 17.5404C2.91893 17.0611 2.8842 16.2953 3.31818 15.7745C3.66939 15.3531 3.71129 14.7613 3.49263 14.2582C3.43724 14.1307 3.385 14.0016 3.336 13.8708C3.14544 13.3623 2.70392 12.9731 2.16311 12.9239C1.50438 12.864 1 12.3117 1 11.6503V10.3497C1 9.6883 1.50438 9.136 2.16311 9.0761C2.70393 9.0269 3.14544 8.63768 3.33601 8.12917C3.3936 7.9755 3.45568 7.82402 3.52209 7.67489C3.7571 7.14716 3.71804 6.52257 3.34821 6.07877C2.89722 5.53758 2.93332 4.74179 3.43145 4.24365L4.24364 3.43146C4.74178 2.93332 5.53757 2.89722 6.07876 3.34822C6.52256 3.71805 7.14715 3.7571 7.67488 3.52209C7.82401 3.45568 7.97549 3.3936 8.12916 3.33601C8.63767 3.14544 9.0269 2.70393 9.0761 2.16311Z" stroke="#808080" stroke-width="2" stroke-linecap="round" stroke-linejoin="round"/>
</svg>
