<svg width="23" height="23" viewBox="0 0 23 23" fill="none" xmlns="http://www.w3.org/2000/svg">
<path d="M14.6424 9.43409L14.6257 9.41732M8.39243 9.43409L8.37565 9.41732M7.33398 14.6257C7.33398 14.6257 7.46434 14.8864 7.77117 15.2234C8.33169 15.8389 9.48117 16.709 11.5007 16.709C13.5201 16.709 14.6696 15.8389 15.2301 15.2234C15.537 14.8864 15.6673 14.6257 15.6673 14.6257M11.5007 21.9173C5.74768 21.9173 1.08398 17.2536 1.08398 11.5007C1.08398 5.74768 5.74768 1.08398 11.5007 1.08398C17.2536 1.08398 21.9173 5.74768 21.9173 11.5007C21.9173 17.2536 17.2536 21.9173 11.5007 21.9173Z" stroke="#058B94" stroke-width="2" stroke-linecap="round" stroke-linejoin="round"/>
</svg>
