<svg width="40" height="41" viewBox="0 0 40 41" fill="none" xmlns="http://www.w3.org/2000/svg">
<path d="M19.6817 23.1088H25.4544C25.9696 23.1088 26.4017 22.9419 26.7508 22.608C27.0987 22.2752 27.2726 21.8624 27.2726 21.3697C27.2726 20.8769 27.0987 20.4636 26.7508 20.1297C26.4017 19.7969 25.9696 19.6306 25.4544 19.6306H19.6817L21.318 18.0653C21.6817 17.7465 21.8556 17.3477 21.8399 16.8688C21.8253 16.3911 21.6362 15.9784 21.2726 15.6306C20.9393 15.3117 20.515 15.1523 19.9999 15.1523C19.4847 15.1523 19.0605 15.3117 18.7271 15.6306L13.9999 20.1523C13.6665 20.4711 13.4999 20.8769 13.4999 21.3697C13.4999 21.8624 13.6665 22.2682 13.9999 22.5871L18.7271 27.1088C19.0605 27.4277 19.4847 27.5871 19.9999 27.5871C20.515 27.5871 20.9393 27.4277 21.2726 27.1088C21.6059 26.79 21.7726 26.3917 21.7726 25.914C21.7726 25.4352 21.6059 25.0219 21.2726 24.674L19.6817 23.1088ZM7.27259 33.5436H32.7271V9.19578H7.27259V33.5436ZM7.27259 9.19578V33.5436V9.19578ZM7.27259 37.0219C6.27259 37.0219 5.41623 36.6816 4.7035 36.001C3.99199 35.3193 3.63623 34.5001 3.63623 33.5436V9.19578C3.63623 8.23926 3.99199 7.42013 4.7035 6.73839C5.41623 6.05781 6.27259 5.71752 7.27259 5.71752H14.909C15.3029 4.67404 15.9623 3.83346 16.8871 3.19578C17.8108 2.5581 18.8484 2.23926 19.9999 2.23926C21.1514 2.23926 22.1896 2.5581 23.1144 3.19578C24.038 3.83346 24.6968 4.67404 25.0908 5.71752H32.7271C33.7271 5.71752 34.5835 6.05781 35.2962 6.73839C36.0077 7.42013 36.3635 8.23926 36.3635 9.19578V33.5436C36.3635 34.5001 36.0077 35.3193 35.2962 36.001C34.5835 36.6816 33.7271 37.0219 32.7271 37.0219H7.27259ZM19.9999 7.89143C20.3938 7.89143 20.7199 7.76795 20.978 7.521C21.235 7.2752 21.3635 6.9639 21.3635 6.58708C21.3635 6.21027 21.235 5.89839 20.978 5.65143C20.7199 5.40563 20.3938 5.28274 19.9999 5.28274C19.6059 5.28274 19.2805 5.40563 19.0235 5.65143C18.7653 5.89839 18.6362 6.21027 18.6362 6.58708C18.6362 6.9639 18.7653 7.2752 19.0235 7.521C19.2805 7.76795 19.6059 7.89143 19.9999 7.89143Z" fill="#058B94"/>
</svg>
