<svg width="40" height="41" viewBox="0 0 40 41" fill="none" xmlns="http://www.w3.org/2000/svg">
<path d="M15.0002 18.8333C18.6821 18.8333 21.6668 15.8486 21.6668 12.1667C21.6668 8.48477 18.6821 5.5 15.0002 5.5C11.3183 5.5 8.3335 8.48477 8.3335 12.1667C8.3335 15.8486 11.3183 18.8333 15.0002 18.8333Z" stroke="#058B94" stroke-width="4" stroke-linecap="round" stroke-linejoin="round"/>
<path d="M3.3335 35.5V28.8333C3.3335 26.9923 4.82588 25.5 6.66683 25.5H23.3335C25.1745 25.5 26.6668 26.9923 26.6668 28.8333V35.5" stroke="#058B94" stroke-width="4" stroke-linecap="round" stroke-linejoin="round"/>
<path d="M26.6665 5.5C28.1005 5.86717 29.3715 6.70117 30.2792 7.87052C31.1868 9.03987 31.6795 10.478 31.6795 11.9583C31.6795 13.4386 31.1868 14.8768 30.2792 16.0461C29.3715 17.2155 28.1005 18.0495 26.6665 18.4167" stroke="#058B94" stroke-width="4" stroke-linecap="round" stroke-linejoin="round"/>
<path d="M31.6665 25.5H33.3332C35.1742 25.5 36.6665 26.9923 36.6665 28.8333V35.5" stroke="#058B94" stroke-width="4" stroke-linecap="round" stroke-linejoin="round"/>
</svg>
