<svg width="33" height="36" viewBox="0 0 33 36" fill="none" xmlns="http://www.w3.org/2000/svg">
<path d="M16.9743 21.6088H11.394C10.896 21.6088 10.4783 21.4419 10.1408 21.108C9.80452 20.7752 9.63638 20.3624 9.63638 19.8697C9.63638 19.3769 9.80452 18.9636 10.1408 18.6297C10.4783 18.2969 10.896 18.1306 11.394 18.1306H16.9743L15.3924 16.5653C15.0409 16.2465 14.8728 15.8477 14.888 15.3688C14.9021 14.8911 15.0849 14.4784 15.4364 14.1306C15.7586 13.8117 16.1687 13.6523 16.6667 13.6523C17.1647 13.6523 17.5748 13.8117 17.897 14.1306L22.4667 18.6523C22.7889 18.9711 22.95 19.3769 22.95 19.8697C22.95 20.3624 22.7889 20.7682 22.4667 21.0871L17.897 25.6088C17.5748 25.9277 17.1647 26.0871 16.6667 26.0871C16.1687 26.0871 15.7586 25.9277 15.4364 25.6088C15.1142 25.29 14.953 24.8917 14.953 24.414C14.953 23.9352 15.1142 23.5219 15.4364 23.174L16.9743 21.6088ZM28.9697 32.0436H4.36365V7.69578H28.9697V32.0436ZM28.9697 7.69578V32.0436V7.69578ZM28.9697 35.5219C29.9364 35.5219 30.7642 35.1816 31.4532 34.501C32.141 33.8193 32.4849 33.0001 32.4849 32.0436V7.69578C32.4849 6.73926 32.141 5.92013 31.4532 5.23839C30.7642 4.55781 29.9364 4.21752 28.9697 4.21752H21.5879C21.2071 3.17404 20.5697 2.33346 19.6757 1.69578C18.7828 1.0581 17.7798 0.739258 16.6667 0.739258C15.5536 0.739258 14.55 1.0581 13.656 1.69578C12.7631 2.33346 12.1263 3.17404 11.7455 4.21752H4.36365C3.39698 4.21752 2.56917 4.55781 1.8802 5.23839C1.1924 5.92013 0.848499 6.73926 0.848499 7.69578V32.0436C0.848499 33.0001 1.1924 33.8193 1.8802 34.501C2.56917 35.1816 3.39698 35.5219 4.36365 35.5219H28.9697ZM16.6667 6.39143C16.2859 6.39143 15.9707 6.26795 15.7211 6.021C15.4727 5.7752 15.3485 5.4639 15.3485 5.08708C15.3485 4.71027 15.4727 4.39839 15.7211 4.15143C15.9707 3.90563 16.2859 3.78274 16.6667 3.78274C17.0475 3.78274 17.3621 3.90563 17.6105 4.15143C17.8601 4.39839 17.9849 4.71027 17.9849 5.08708C17.9849 5.4639 17.8601 5.7752 17.6105 6.021C17.3621 6.26795 17.0475 6.39143 16.6667 6.39143Z" fill="#058B94"/>
</svg>
