<svg width="19" height="21" viewBox="0 0 19 21" fill="none" xmlns="http://www.w3.org/2000/svg">
<path d="M9.29561 12.0657H8.11214L8.93711 12.9142L9.84437 13.8474C9.94683 13.9611 9.99561 14.0868 9.99561 14.2488C9.99561 14.4116 9.94663 14.5206 9.8551 14.6121C9.76673 14.7005 9.65481 14.7526 9.47822 14.7526C9.30163 14.7526 9.18971 14.7005 9.10134 14.6121L6.38829 11.8991C6.29992 11.8107 6.24778 11.6988 6.24778 11.5222C6.24778 11.3456 6.29992 11.2337 6.38829 11.1453L9.10134 8.43228C9.18971 8.34391 9.30163 8.29177 9.47822 8.29177C9.65481 8.29177 9.76673 8.34391 9.8551 8.43228C9.97652 8.5537 10.0299 8.68124 10.0344 8.83624L10.0345 8.83741C10.039 8.98172 9.99634 9.07985 9.89688 9.17102L9.88887 9.17836L9.88119 9.18604L8.94206 10.1252L8.0885 10.9787H9.29561H12.6087C12.7783 10.9787 12.8972 11.0305 12.9991 11.1318C13.1003 11.2336 13.1521 11.3525 13.1521 11.5222C13.1521 11.6922 13.1002 11.8105 12.9991 11.9116C12.897 12.0137 12.7781 12.0657 12.6087 12.0657H9.29561ZM1.67387 18.8266V19.3266H2.17387H16.7826H17.2826V18.8266V4.21786V3.71786H16.7826H10.2111C10.275 3.6742 10.3359 3.62381 10.3932 3.56654C10.6428 3.31695 10.7608 2.99905 10.7608 2.65264C10.7608 2.30623 10.6428 1.9885 10.394 1.73853L10.3923 1.73687C10.1424 1.48807 9.82463 1.37003 9.47822 1.37003C9.13181 1.37003 8.81391 1.4881 8.56432 1.7377C8.31451 1.98751 8.19561 2.30551 8.19561 2.65264C8.19561 2.999 8.31402 3.31653 8.56349 3.56571C8.62084 3.62334 8.68183 3.674 8.74598 3.71786H2.17387H1.67387V4.21786V18.8266ZM6.55648 2.6309H6.90753L7.02676 2.30072C7.21927 1.7676 7.53657 1.34611 7.98416 1.02346L7.98441 1.02328C8.42832 0.702875 8.92118 0.543945 9.47822 0.543945C10.0352 0.543945 10.5284 0.702823 10.9731 1.02328C11.42 1.34588 11.7371 1.76742 11.9297 2.30072L12.0489 2.6309H12.4H16.7826C17.2227 2.6309 17.5873 2.7816 17.9032 3.09675C18.2187 3.41278 18.3695 3.77749 18.3695 4.21786V18.8266C18.3695 19.2668 18.2188 19.6315 17.9034 19.9474C17.5875 20.2627 17.2228 20.4135 16.7826 20.4135H2.17387C1.73351 20.4135 1.3688 20.2627 1.05277 19.9472C0.737612 19.6313 0.586914 19.2667 0.586914 18.8266V4.21786C0.586914 3.7776 0.737684 3.41296 1.05299 3.09698C1.36897 2.78167 1.73361 2.6309 2.17387 2.6309H6.55648Z" fill="#808080" stroke="#808080"/>
</svg>
