<svg width="50" height="40" viewBox="0 0 50 40" fill="none" xmlns="http://www.w3.org/2000/svg">
<g clip-path="url(#clip0_3900_21276)">
<rect width="50" height="39.8936" rx="4" fill="white"/>
<g clip-path="url(#clip1_3900_21276)">
<path d="M54.9987 41.1504C54.9909 42.0293 54.9263 42.9068 54.8053 43.7774C54.8011 43.808 54.7964 43.8385 54.7922 43.8691L46.5335 43.8231C46.5093 43.7927 46.4854 43.762 46.4623 43.7309C46.3852 43.628 46.3129 43.5222 46.2466 43.4127C45.9277 42.8852 45.7818 42.2677 45.928 41.8416L45.9307 41.835C45.9622 41.7417 46.012 41.6555 46.0771 41.5814C46.4106 41.2072 47.0849 41.2696 47.6969 41.5716C47.148 40.9728 46.711 40.2173 46.6777 39.5428C46.6452 38.885 46.9903 38.415 47.3647 38.0157C47.377 38.0025 47.3892 37.9896 47.4015 37.9768C47.4075 37.9702 47.4138 37.964 47.4198 37.9574C47.7118 37.653 48.0523 37.353 48.5452 37.3893C49.0857 37.4291 49.685 37.8804 50.1052 38.4062C50.5255 38.9316 50.8047 39.5286 51.0877 40.1111C51.3711 40.6933 51.6777 41.2904 52.1325 41.788C51.5166 41.0115 51.0199 40.1281 50.8365 39.2689C50.653 38.4096 50.8145 37.5844 51.3634 37.1797C51.5301 37.0607 51.7229 36.9831 51.9258 36.9536C51.9495 36.9496 51.9736 36.9464 51.998 36.9436C52.5062 36.886 53.113 37.0612 53.6292 37.4799C54.1977 37.9409 54.5919 38.6244 54.788 39.2732C54.9841 39.922 55.005 40.5466 54.9987 41.1504Z" fill="#F2F2F2"/>
<path d="M51.6317 43.8515L51.5341 43.8509C51.512 43.8202 51.4904 43.7895 51.4684 43.7588C50.9509 43.0356 50.4335 42.3124 49.9163 41.5891C49.0692 40.4051 48.2224 39.2211 47.3758 38.0371C47.3708 38.0307 47.3671 38.0234 47.3648 38.0157C47.3576 37.9894 47.3769 37.9741 47.4017 37.9768C47.4121 37.9783 47.4221 37.982 47.431 37.9876C47.4399 37.9932 47.4475 38.0007 47.4533 38.0095C47.9282 38.6735 48.403 39.3373 48.8776 40.0008C49.7203 41.1788 50.5629 42.3568 51.4053 43.5347C51.4589 43.6094 51.5124 43.6846 51.566 43.7593C51.5881 43.7901 51.6101 43.8208 51.6317 43.8515Z" fill="white"/>
<path d="M13.9317 25.6877H5.8435C5.61987 25.6875 5.40547 25.5988 5.24734 25.4412C5.0892 25.2836 5.00025 25.0699 5 24.8471V15.1644C5.00025 14.9415 5.0892 14.7278 5.24734 14.5702C5.40547 14.4126 5.61987 14.324 5.8435 14.3237H13.9317C14.1553 14.324 14.3697 14.4126 14.5279 14.5702C14.686 14.7278 14.7749 14.9415 14.7752 15.1644V24.8471C14.7749 25.0699 14.686 25.2836 14.5279 25.4412C14.3697 25.5988 14.1553 25.6875 13.9317 25.6877ZM5.8435 14.431C5.6484 14.4312 5.46136 14.5085 5.32341 14.646C5.18546 14.7835 5.10786 14.9699 5.10764 15.1644V24.8471C5.10786 25.0415 5.18546 25.2279 5.32341 25.3654C5.46136 25.5029 5.6484 25.5802 5.8435 25.5804H13.9317C14.1268 25.5802 14.3138 25.5029 14.4518 25.3654C14.5897 25.2279 14.6673 25.0415 14.6675 24.8471V15.1644C14.6673 14.9699 14.5897 14.7835 14.4518 14.646C14.3138 14.5085 14.1268 14.4312 13.9317 14.431H5.8435Z" fill="#3F3D56"/>
<path d="M11.7783 15.1196H7.99698C7.81861 15.1194 7.64761 15.0487 7.52149 14.923C7.39536 14.7973 7.32442 14.6269 7.32422 14.4491V14.3055C7.32442 14.1277 7.39536 13.9573 7.52149 13.8316C7.64761 13.7059 7.81861 13.6352 7.99698 13.635H11.7783C11.9567 13.6352 12.1277 13.7059 12.2538 13.8316C12.38 13.9573 12.4509 14.1277 12.4511 14.3055V14.4491C12.4509 14.6269 12.38 14.7973 12.2538 14.923C12.1277 15.0487 11.9567 15.1194 11.7783 15.1196Z" fill="#CCCCCC"/>
<path d="M13.5964 20.3873H6.17825C6.12793 20.3873 6.0781 20.3775 6.03159 20.3584C5.98509 20.3392 5.94282 20.3111 5.90722 20.2757C5.87162 20.2402 5.84338 20.1982 5.82411 20.1518C5.80484 20.1055 5.79492 20.0558 5.79492 20.0057C5.79492 19.9556 5.80484 19.9059 5.82411 19.8596C5.84338 19.8132 5.87162 19.7712 5.90722 19.7357C5.94282 19.7003 5.98509 19.6722 6.03159 19.653C6.0781 19.6339 6.12793 19.6241 6.17825 19.6241H13.5964C13.6979 19.6242 13.7951 19.6645 13.8669 19.736C13.9386 19.8076 13.9788 19.9046 13.9788 20.0057C13.9788 20.1068 13.9386 20.2038 13.8669 20.2754C13.7951 20.3469 13.6979 20.3872 13.5964 20.3873Z" fill="#035D63"/>
<path d="M13.5964 22.009H6.17825C6.12793 22.0091 6.0781 21.9993 6.03159 21.9801C5.98509 21.961 5.94282 21.9329 5.90722 21.8974C5.87162 21.862 5.84338 21.8199 5.82411 21.7736C5.80484 21.7272 5.79492 21.6776 5.79492 21.6274C5.79492 21.5773 5.80484 21.5276 5.82411 21.4813C5.84338 21.435 5.87162 21.3929 5.90722 21.3575C5.94282 21.322 5.98509 21.2939 6.03159 21.2748C6.0781 21.2556 6.12793 21.2458 6.17825 21.2458H13.5964C13.6979 21.246 13.7951 21.2862 13.8669 21.3578C13.9386 21.4293 13.9788 21.5263 13.9788 21.6274C13.9788 21.7286 13.9386 21.8255 13.8669 21.8971C13.7951 21.9686 13.6979 22.0089 13.5964 22.009Z" fill="#035D63"/>
<path d="M11.6104 18.7656H8.16458C8.11426 18.7656 8.06442 18.7558 8.01792 18.7366C7.97141 18.7175 7.92915 18.6894 7.89355 18.6539C7.85795 18.6185 7.82971 18.5764 7.81044 18.5301C7.79117 18.4838 7.78125 18.4341 7.78125 18.384C7.78125 18.3338 7.79117 18.2842 7.81044 18.2378C7.82971 18.1915 7.85795 18.1494 7.89355 18.114C7.92915 18.0785 7.97141 18.0504 8.01792 18.0313C8.06442 18.0121 8.11426 18.0023 8.16458 18.0024H11.6104C11.6608 18.0023 11.7106 18.0121 11.7571 18.0313C11.8036 18.0504 11.8459 18.0785 11.8815 18.114C11.9171 18.1494 11.9453 18.1915 11.9646 18.2378C11.9838 18.2842 11.9938 18.3338 11.9938 18.384C11.9938 18.4341 11.9838 18.4838 11.9646 18.5301C11.9453 18.5764 11.9171 18.6185 11.8815 18.6539C11.8459 18.6894 11.8036 18.7175 11.7571 18.7366C11.7106 18.7558 11.6608 18.7656 11.6104 18.7656Z" fill="#035D63"/>
<path d="M31.1133 16.0527H23.0251C22.8015 16.0524 22.5871 15.9638 22.429 15.8062C22.2708 15.6486 22.1819 15.4349 22.1816 15.212V5.52929C22.1819 5.30641 22.2708 5.09273 22.429 4.93513C22.5871 4.77753 22.8015 4.68888 23.0251 4.68863H31.1133C31.337 4.68888 31.5514 4.77753 31.7095 4.93513C31.8676 5.09273 31.9566 5.30641 31.9568 5.52929V15.212C31.9566 15.4349 31.8676 15.6486 31.7095 15.8062C31.5514 15.9638 31.337 16.0524 31.1133 16.0527ZM23.0251 4.79591C22.83 4.79613 22.643 4.87346 22.5051 5.01095C22.3671 5.14844 22.2895 5.33485 22.2893 5.52929V15.212C22.2895 15.4065 22.3671 15.5929 22.5051 15.7304C22.643 15.8678 22.83 15.9452 23.0251 15.9454H31.1133C31.3084 15.9452 31.4955 15.8678 31.6334 15.7304C31.7714 15.5929 31.849 15.4065 31.8492 15.212V5.52929C31.849 5.33485 31.7714 5.14844 31.6334 5.01095C31.4955 4.87346 31.3084 4.79613 31.1133 4.79591H23.0251Z" fill="#3F3D56"/>
<path d="M28.96 5.48459H25.1786C25.0003 5.48439 24.8292 5.41369 24.7031 5.28799C24.577 5.16229 24.5061 4.99186 24.5059 4.8141V4.67049C24.5061 4.49273 24.577 4.3223 24.7031 4.1966C24.8292 4.07091 25.0003 4.0002 25.1786 4H28.96C29.1383 4.0002 29.3093 4.07091 29.4355 4.1966C29.5616 4.3223 29.6325 4.49273 29.6327 4.67049V4.8141C29.6325 4.99186 29.5616 5.16229 29.4355 5.28799C29.3093 5.41369 29.1383 5.48439 28.96 5.48459Z" fill="#CCCCCC"/>
<path d="M30.7781 10.7522H23.3599C23.3096 10.7523 23.2597 10.7425 23.2132 10.7233C23.1667 10.7042 23.1245 10.6761 23.0889 10.6406C23.0533 10.6052 23.025 10.5631 23.0058 10.5168C22.9865 10.4705 22.9766 10.4208 22.9766 10.3707C22.9766 10.3205 22.9865 10.2709 23.0058 10.2245C23.025 10.1782 23.0533 10.1361 23.0889 10.1007C23.1245 10.0652 23.1667 10.0371 23.2132 10.018C23.2597 9.99884 23.3096 9.98902 23.3599 9.98907H30.7781C30.8284 9.98902 30.8782 9.99884 30.9247 10.018C30.9712 10.0371 31.0135 10.0652 31.0491 10.1007C31.0847 10.1361 31.1129 10.1782 31.1322 10.2245C31.1515 10.2709 31.1614 10.3205 31.1614 10.3707C31.1614 10.4208 31.1515 10.4705 31.1322 10.5168C31.1129 10.5631 31.0847 10.6052 31.0491 10.6406C31.0135 10.6761 30.9712 10.7042 30.9247 10.7233C30.8782 10.7425 30.8284 10.7523 30.7781 10.7522Z" fill="#035D63"/>
<path d="M30.7776 12.374H23.3594C23.3092 12.374 23.2594 12.3641 23.2129 12.3449C23.1665 12.3258 23.1243 12.2976 23.0887 12.2622C23.0532 12.2268 23.0249 12.1847 23.0057 12.1384C22.9865 12.0921 22.9766 12.0425 22.9766 11.9924C22.9766 11.9423 22.9865 11.8927 23.0057 11.8464C23.0249 11.8001 23.0532 11.758 23.0887 11.7226C23.1243 11.6871 23.1665 11.659 23.2129 11.6399C23.2594 11.6207 23.3092 11.6108 23.3594 11.6108H30.7776C30.8279 11.6108 30.8777 11.6207 30.9241 11.6399C30.9706 11.659 31.0128 11.6871 31.0483 11.7226C31.0839 11.758 31.1121 11.8001 31.1313 11.8464C31.1506 11.8927 31.1605 11.9423 31.1605 11.9924C31.1605 12.0425 31.1506 12.0921 31.1313 12.1384C31.1121 12.1847 31.0839 12.2268 31.0483 12.2622C31.0128 12.2976 30.9706 12.3258 30.9241 12.3449C30.8777 12.3641 30.8279 12.374 30.7776 12.374Z" fill="#035D63"/>
<path d="M28.7921 9.13051H25.3462C25.2959 9.13057 25.2461 9.12074 25.1996 9.10159C25.1531 9.08244 25.1108 9.05435 25.0752 9.01891C25.0396 8.98347 25.0113 8.94138 24.9921 8.89506C24.9728 8.84873 24.9629 8.79907 24.9629 8.74893C24.9629 8.69878 24.9728 8.64912 24.9921 8.60279C25.0113 8.55647 25.0396 8.51438 25.0752 8.47894C25.1108 8.4435 25.1531 8.41541 25.1996 8.39626C25.2461 8.37711 25.2959 8.36728 25.3462 8.36734H28.7921C28.8936 8.36734 28.991 8.40754 29.0628 8.4791C29.1346 8.55066 29.175 8.64772 29.175 8.74893C29.175 8.85013 29.1346 8.94719 29.0628 9.01875C28.991 9.09031 28.8936 9.13051 28.7921 9.13051Z" fill="#035D63"/>
<path d="M47.6151 32.3669L40.5131 36.2244C40.3166 36.3308 40.0858 36.3552 39.8713 36.2922C39.6568 36.2293 39.4761 36.0841 39.3688 35.8885L34.7197 27.3864C34.6129 27.1906 34.5884 26.9605 34.6516 26.7467C34.7148 26.5329 34.8605 26.3528 35.0567 26.2459L42.1587 22.3885C42.3552 22.2821 42.586 22.2577 42.8005 22.3206C43.0151 22.3836 43.1958 22.5288 43.303 22.7244L47.9521 31.2265C48.0589 31.4223 48.0834 31.6524 48.0202 31.8662C47.957 32.08 47.8113 32.2601 47.6151 32.3669ZM35.1082 26.3401C34.937 26.4334 34.8099 26.5905 34.7548 26.777C34.6997 26.9635 34.721 27.1642 34.8142 27.335L39.4633 35.8371C39.5569 36.0078 39.7145 36.1344 39.9017 36.1894C40.0888 36.2443 40.2902 36.223 40.4616 36.1302L47.5636 32.2727C47.7348 32.1795 47.8619 32.0224 47.917 31.8359C47.9721 31.6494 47.9508 31.4487 47.8576 31.2778L43.2085 22.7757C43.1149 22.6051 42.9573 22.4784 42.7701 22.4235C42.583 22.3686 42.3816 22.3899 42.2102 22.4827L35.1082 26.3401Z" fill="#3F3D56"/>
<path d="M40.6493 24.1144L37.329 25.9178C37.1723 26.0027 36.9882 26.0222 36.8171 25.972C36.646 25.9217 36.5019 25.8059 36.4163 25.6499L36.3474 25.5238C36.2622 25.3676 36.2427 25.1842 36.2931 25.0136C36.3435 24.8431 36.4597 24.6995 36.6162 24.6142L39.9365 22.8108C40.0932 22.7259 40.2773 22.7065 40.4484 22.7567C40.6195 22.8069 40.7636 22.9227 40.8491 23.0787L40.9181 23.2048C41.0033 23.361 41.0228 23.5445 40.9724 23.715C40.922 23.8855 40.8058 24.0292 40.6493 24.1144Z" fill="#CCCCCC"/>
<path d="M44.7751 27.8726L38.2614 31.4104C38.2173 31.4344 38.1688 31.4495 38.1188 31.4548C38.0688 31.4601 38.0182 31.4556 37.97 31.4414C37.9218 31.4273 37.8768 31.4038 37.8377 31.3723C37.7986 31.3408 37.7661 31.302 37.742 31.258C37.7179 31.214 37.7028 31.1657 37.6975 31.1159C37.6921 31.066 37.6967 31.0156 37.7109 30.9676C37.7251 30.9195 37.7487 30.8747 37.7803 30.8357C37.8118 30.7967 37.8508 30.7643 37.895 30.7403L44.4086 27.2024C44.4978 27.154 44.6026 27.1429 44.7 27.1715C44.7974 27.2001 44.8795 27.266 44.9281 27.3549C44.9766 27.4438 44.9878 27.5482 44.9591 27.6453C44.9304 27.7424 44.8642 27.8241 44.7751 27.8726Z" fill="#035D63"/>
<path d="M45.5544 29.2965L39.0407 32.8344C38.9966 32.8584 38.9481 32.8735 38.8981 32.8788C38.8481 32.8841 38.7975 32.8796 38.7493 32.8654C38.7011 32.8512 38.6561 32.8278 38.617 32.7963C38.5779 32.7648 38.5454 32.726 38.5213 32.682C38.4972 32.638 38.4821 32.5897 38.4768 32.5398C38.4714 32.49 38.476 32.4396 38.4902 32.3916C38.5044 32.3435 38.528 32.2987 38.5596 32.2597C38.5911 32.2207 38.6301 32.1883 38.6743 32.1643L45.1879 28.6264C45.2321 28.6024 45.2805 28.5874 45.3305 28.582C45.3805 28.5767 45.4311 28.5813 45.4793 28.5954C45.5276 28.6096 45.5725 28.6331 45.6116 28.6646C45.6508 28.696 45.6833 28.7349 45.7073 28.7789C45.7314 28.8229 45.7465 28.8712 45.7519 28.921C45.7572 28.9708 45.7526 29.0212 45.7384 29.0693C45.7242 29.1174 45.7007 29.1622 45.6691 29.2012C45.6375 29.2402 45.5985 29.2726 45.5544 29.2965Z" fill="#035D63"/>
<path d="M42.252 27.3958L39.2262 29.0392C39.1821 29.0632 39.1336 29.0782 39.0836 29.0836C39.0336 29.0889 38.9831 29.0843 38.9349 29.0702C38.8866 29.056 38.8417 29.0325 38.8025 29.001C38.7634 28.9696 38.7309 28.9307 38.7068 28.8867C38.6828 28.8427 38.6677 28.7944 38.6623 28.7446C38.657 28.6948 38.6615 28.6444 38.6758 28.5963C38.69 28.5483 38.7135 28.5034 38.7451 28.4645C38.7767 28.4255 38.8157 28.393 38.8598 28.3691L41.8855 26.7257C41.9297 26.7017 41.9781 26.6866 42.0281 26.6813C42.0781 26.676 42.1287 26.6805 42.1769 26.6947C42.2251 26.7088 42.2701 26.7323 42.3092 26.7638C42.3483 26.7953 42.3809 26.8341 42.4049 26.8781C42.429 26.9221 42.4441 26.9704 42.4494 27.0202C42.4548 27.0701 42.4502 27.1205 42.436 27.1685C42.4218 27.2166 42.3982 27.2614 42.3667 27.3004C42.3351 27.3394 42.2961 27.3718 42.252 27.3958Z" fill="#035D63"/>
<path d="M20.0271 12.7687L16.2441 14.9577L16.2982 15.0505L20.0811 12.8615L20.0271 12.7687Z" fill="#3F3D56"/>
<path d="M20.1875 13.3562L20.7218 12.4285L19.6484 12.431L20.1875 13.3562Z" fill="#3F3D56"/>
<path d="M31.2241 27.1691C31.2156 27.1691 31.2071 27.1671 31.1995 27.1632L16.66 19.7195C16.6473 19.713 16.6378 19.7018 16.6334 19.6882C16.6291 19.6747 16.6303 19.66 16.6368 19.6474C16.6433 19.6347 16.6546 19.6252 16.6682 19.6208C16.6817 19.6165 16.6965 19.6176 16.7092 19.6241L31.2487 27.0678C31.2595 27.0733 31.2681 27.0822 31.2731 27.0932C31.2781 27.1041 31.2793 27.1164 31.2764 27.1281C31.2736 27.1398 31.2669 27.1502 31.2574 27.1577C31.2479 27.1651 31.2362 27.1691 31.2241 27.1691Z" fill="#3F3D56"/>
<path d="M30.8379 27.5198L31.9099 27.4673L31.3284 26.5682L30.8379 27.5198Z" fill="#3F3D56"/>
<path d="M46.225 33.3237C46.1494 33.2862 46.0829 33.2326 46.0302 33.1667C45.9776 33.1008 45.9401 33.0242 45.9204 32.9422C45.9007 32.8603 45.8992 32.7751 45.9161 32.6926C45.9331 32.61 45.9679 32.5322 46.0183 32.4645L45.5859 28.2517H46.5203L46.8639 32.3653C46.9723 32.4572 47.0431 32.5855 47.063 32.7259C47.0829 32.8664 47.0503 33.0092 46.9716 33.1273C46.8928 33.2455 46.7734 33.3307 46.6358 33.3669C46.4982 33.4031 46.352 33.3878 46.225 33.3237V33.3237Z" fill="#A0616A"/>
<path d="M45.3668 25.9267C46.0969 25.9267 46.6887 25.3369 46.6887 24.6093C46.6887 23.8816 46.0969 23.2918 45.3668 23.2918C44.6368 23.2918 44.0449 23.8816 44.0449 24.6093C44.0449 25.3369 44.6368 25.9267 45.3668 25.9267Z" fill="#A0616A"/>
<path d="M45.0661 30.6995L43.0932 30.2701C43.0414 30.2587 42.9947 30.2307 42.9604 30.1904C42.926 30.15 42.9059 30.0996 42.9031 30.0467C42.8803 29.608 42.8639 28.473 43.203 27.4134C43.2685 27.2102 43.3742 27.0222 43.5139 26.8605C43.6536 26.6988 43.8244 26.5666 44.0162 26.4719C44.208 26.3771 44.417 26.3216 44.6307 26.3087C44.8444 26.2958 45.0585 26.3258 45.2604 26.3969C45.4734 26.4715 45.6682 26.5901 45.832 26.745C45.9958 26.8999 46.1249 27.0876 46.2108 27.2957C46.2967 27.5039 46.3374 27.7277 46.3304 27.9527C46.3234 28.1776 46.2687 28.3985 46.17 28.6009C45.7325 29.4963 45.457 30.1447 45.3511 30.5282C45.3346 30.5877 45.2959 30.6386 45.2429 30.6705C45.1899 30.7023 45.1266 30.7127 45.0661 30.6995Z" fill="#058B94"/>
<path d="M43.2207 41.8068L42.2049 41.7289C42.148 41.7246 42.0945 41.7005 42.0538 41.6608C42.0131 41.621 41.9878 41.5682 41.9824 41.5116C41.8376 40.0067 41.2025 32.3807 42.9203 30.0328L42.9251 30.0262L42.9328 30.0234C42.9482 30.0178 44.4801 29.4733 45.3591 30.4711C45.3867 30.5028 45.4055 30.5412 45.4137 30.5823C45.4219 30.6235 45.4191 30.6661 45.4057 30.7059L45.3722 30.8062C45.3626 30.8346 45.36 30.8649 45.3647 30.8945C45.3693 30.9241 45.3811 30.9522 45.3989 30.9763C45.6428 31.305 46.4638 32.5708 46.7865 35.0598C46.7885 35.0757 46.7926 35.0912 46.7986 35.106L49.1809 40.9386C49.1931 40.9684 49.1992 41.0003 49.1988 41.0325C49.1984 41.0646 49.1916 41.0964 49.1787 41.1259C49.1659 41.1553 49.1472 41.182 49.1239 41.2042C49.1005 41.2264 49.073 41.2437 49.0428 41.2552L48.2932 41.5398C48.2386 41.5602 48.1785 41.5605 48.1238 41.5404C48.069 41.5204 48.0233 41.4815 47.9949 41.4307L44.5559 35.2122C44.5422 35.1875 44.521 35.1677 44.4953 35.1556C44.4696 35.1436 44.4408 35.14 44.413 35.1452C44.3851 35.1505 44.3596 35.1644 44.3401 35.185C44.3207 35.2056 44.3082 35.2317 44.3046 35.2598L43.4794 41.5972C43.4718 41.6553 43.4433 41.7087 43.3992 41.7474C43.355 41.7861 43.2983 41.8074 43.2395 41.8075C43.2332 41.8075 43.227 41.8073 43.2207 41.8068Z" fill="#035D63"/>
<path d="M40.2283 26.1396C40.2349 26.1685 40.2392 26.198 40.2412 26.2276L42.5531 27.5569L43.1151 27.2344L43.7142 28.0161L42.775 28.6832C42.6991 28.7371 42.6078 28.765 42.5146 28.7628C42.4215 28.7605 42.3316 28.7282 42.2584 28.6707L39.8744 26.7962C39.7668 26.8359 39.6496 26.842 39.5384 26.8137C39.4273 26.7854 39.3274 26.7241 39.2521 26.6378C39.1768 26.5516 39.1296 26.4445 39.1168 26.3309C39.104 26.2173 39.1263 26.1024 39.1805 26.0017C39.2348 25.901 39.3186 25.8191 39.4207 25.767C39.5228 25.7149 39.6385 25.695 39.7522 25.71C39.8659 25.7249 39.9724 25.774 40.0575 25.8508C40.1425 25.9275 40.2021 26.0283 40.2283 26.1396V26.1396Z" fill="#A0616A"/>
<path d="M42.585 27.424C42.592 27.39 42.6062 27.3579 42.6267 27.3299C42.6473 27.3019 42.6736 27.2787 42.704 27.2617L43.765 26.6705C43.906 26.5621 44.0843 26.5138 44.2609 26.5362C44.4376 26.5586 44.5981 26.6499 44.7072 26.7901C44.8164 26.9303 44.8654 27.1079 44.8434 27.284C44.8214 27.4601 44.7302 27.6203 44.5899 27.7295L43.744 28.605C43.7198 28.63 43.6906 28.6495 43.6582 28.6622C43.6258 28.6749 43.591 28.6805 43.5563 28.6786C43.5215 28.6767 43.4876 28.6673 43.4568 28.6512C43.426 28.635 43.399 28.6125 43.3778 28.585L42.6305 27.6198C42.6093 27.5924 42.5942 27.5607 42.5863 27.5269C42.5785 27.4931 42.578 27.458 42.585 27.424Z" fill="#058B94"/>
<path d="M45.3319 29.2468C45.3048 29.225 45.2828 29.1976 45.2673 29.1666C45.2518 29.1355 45.2432 29.1015 45.2422 29.0668L45.2041 27.8559C45.1724 27.6813 45.2115 27.5013 45.3128 27.3553C45.4141 27.2094 45.5694 27.1094 45.7445 27.0774C45.9197 27.0454 46.1004 27.0838 46.2471 27.1844C46.3938 27.2849 46.4946 27.4394 46.5272 27.6138L46.9174 28.7653C46.9286 28.7982 46.9325 28.8331 46.9289 28.8676C46.9252 28.9021 46.9142 28.9354 46.8965 28.9653C46.8788 28.9951 46.8549 29.0208 46.8263 29.0407C46.7978 29.0605 46.7653 29.0739 46.731 29.0801L45.5273 29.2967C45.493 29.3029 45.4578 29.3016 45.4241 29.293C45.3904 29.2844 45.3589 29.2686 45.3319 29.2468Z" fill="#6C63FF"/>
<path d="M45.1586 24.3062C44.8188 24.538 44.3727 24.7762 44.0257 24.5294C43.7979 24.3673 43.7261 24.0673 43.8185 23.8039C43.9846 23.3304 44.4412 23.1219 44.8777 22.9621C45.4452 22.7543 46.0631 22.5891 46.649 22.7378C47.2348 22.8866 47.7526 23.4519 47.6469 24.0452C47.5618 24.5223 47.1103 24.9192 47.1744 25.3996C47.2389 25.883 47.7844 26.1374 48.2659 26.2238C48.7475 26.3102 49.2864 26.338 49.6325 26.6827C50.074 27.1225 49.9637 27.9086 49.5483 28.3729C49.1329 28.8372 48.506 29.0477 47.8985 29.1907C47.0936 29.3803 46.2231 29.4799 45.4587 29.1653C44.6943 28.8507 44.0994 28.0038 44.3208 27.2096C44.4144 26.8742 44.6347 26.5907 44.8477 26.3147C45.0606 26.0387 45.2763 25.7501 45.3575 25.4115C45.4252 25.1293 45.3751 24.8017 45.1873 24.59C45.1532 24.5529 45.1317 24.5061 45.1259 24.4561C45.1202 24.4061 45.1305 24.3556 45.1553 24.3118L45.1586 24.3062Z" fill="#2F2E41"/>
</g>
</g>
<defs>
<clipPath id="clip0_3900_21276">
<rect width="50" height="39.8936" rx="4" fill="white"/>
</clipPath>
<clipPath id="clip1_3900_21276">
<rect width="50" height="39.881" fill="white" transform="translate(5 4)"/>
</clipPath>
</defs>
</svg>
