<svg width="220" height="166" viewBox="0 0 220 166" fill="none" xmlns="http://www.w3.org/2000/svg">
<g clip-path="url(#clip0_3671_3435)">
<rect width="220" height="165" transform="translate(0 0.5)" fill="white"/>
<g clip-path="url(#clip1_3671_3435)">
<path d="M25.1196 56.727L16.0065 51.6069C15.8836 46.129 17.103 40.7039 19.559 35.8027C21.6601 45.3152 32.7173 49.841 37.819 58.1466C39.3902 60.7492 40.3542 63.6711 40.6395 66.6959C40.9248 69.7206 40.5241 72.7706 39.467 75.6199L40.0664 82.9953C35.3564 81.5881 31.0082 79.179 27.3215 75.9342C23.6347 72.6893 20.697 68.6857 18.7108 64.1993C17.6215 61.6714 16.8557 59.0167 16.4314 56.2979C20.6803 56.749 25.1196 56.727 25.1196 56.727Z" fill="#F2F2F2"/>
<path d="M188.943 149.874L189.222 143.607C192.135 142.054 195.384 141.233 198.687 141.217C194.141 144.924 194.709 152.071 191.627 157.057C190.654 158.604 189.344 159.914 187.795 160.888C186.245 161.862 184.496 162.475 182.676 162.683L178.872 165.007C178.35 162.104 178.465 159.123 179.209 156.268C179.954 153.414 181.309 150.755 183.183 148.473C184.247 147.204 185.467 146.073 186.814 145.108C187.725 147.505 188.943 149.874 188.943 149.874Z" fill="#F2F2F2"/>
<path d="M179.14 161.781L175.695 161.781L174.057 148.527L179.141 148.528L179.14 161.781Z" fill="#FFB6B6"/>
<path d="M180.019 165.112L168.912 165.112V164.972C168.912 163.828 169.368 162.731 170.178 161.923C170.989 161.114 172.089 160.659 173.235 160.659H173.236L175.265 159.124L179.05 160.66L180.02 160.66L180.019 165.112Z" fill="#2F2E41"/>
<path d="M163.136 161.781L159.691 161.781L158.053 148.527L163.137 148.528L163.136 161.781Z" fill="#FFB6B6"/>
<path d="M164.016 165.112L152.908 165.112V164.972C152.909 163.828 153.364 162.731 154.175 161.923C154.986 161.114 156.085 160.659 157.232 160.659H157.232L159.261 159.124L163.046 160.66L164.016 160.66L164.016 165.112Z" fill="#2F2E41"/>
<path d="M161.646 89.3223L184.052 89.881C188.307 92.1866 188.372 97.1766 186.978 103.101C186.978 103.101 187.448 106.623 186.507 107.562C185.565 108.501 185.095 108.501 185.565 110.144C186.036 111.787 183.549 114.471 183.851 114.773C184.153 115.074 184.859 116.717 184.859 116.717L182.506 130.099C182.506 130.099 180.858 153.34 180.388 153.809C179.917 154.279 179.446 153.809 179.917 154.983C180.388 156.157 180.858 155.688 180.388 156.157C179.971 156.605 179.578 157.076 179.211 157.566H173.521C173.521 157.566 173.092 155.218 173.092 154.983C173.092 154.749 172.621 153.34 172.621 153.105C172.621 152.87 173.037 152.455 173.037 152.455C173.181 151.978 173.278 151.488 173.327 150.992C173.327 150.523 174.739 132.446 174.739 132.446L171.915 108.97L165.09 131.977C165.09 131.977 165.09 152.166 164.62 152.636C164.149 153.105 164.149 152.87 164.384 153.809C164.62 154.749 165.561 154.514 164.855 155.218C164.149 155.922 163.914 154.749 164.149 155.922L164.384 157.096L157.324 157.197C157.324 157.197 156.382 155.218 156.853 154.514C157.324 153.809 157.296 154.002 156.721 152.849C156.147 151.697 155.912 151.462 156.147 151.227C156.382 150.992 156.382 149.744 156.382 149.744L157.559 127.282C157.559 127.282 157.794 103.571 157.794 102.866C157.812 102.504 157.745 102.143 157.599 101.81V100.854L158.501 97.467L161.646 89.3223Z" fill="#035D63"/>
<path d="M175.106 42.8486C178.951 42.8486 182.068 39.7395 182.068 35.9043C182.068 32.069 178.951 28.96 175.106 28.96C171.261 28.96 168.145 32.069 168.145 35.9043C168.145 39.7395 171.261 42.8486 175.106 42.8486Z" fill="#FFB6B6"/>
<path d="M171.625 47.4386C170.125 48.3281 169.228 49.9622 168.713 51.6252C167.759 54.7039 167.185 57.887 167.004 61.1041L166.46 70.7358L159.723 91.2442C165.561 96.1724 187.509 92.3643 187.509 92.3643C187.509 92.3643 188.182 92.1403 187.509 91.4682C186.835 90.7962 186.179 91.3916 186.853 90.7195C187.527 90.0475 187.062 90.7962 186.838 90.1241C186.613 89.4521 186.838 89.9001 187.062 89.6761C187.287 89.4521 185.324 87.436 185.324 87.436L187.12 75.664L189.366 51.9188C186.671 48.5587 181.251 46.5779 181.251 46.5779L179.851 44.0635L172.849 44.6222L171.625 47.4386Z" fill="#058B94"/>
<path d="M170.67 31.8297C170.94 31.8318 171.208 31.8668 171.469 31.9341C171.983 32.0574 172.505 32.1448 173.031 32.1955C174.643 32.3468 176.157 33.0324 177.332 34.1428C178.507 35.2533 179.276 36.7246 179.514 38.3216C179.919 37.9698 180.839 37.3227 181.594 37.9241C181.605 37.9337 181.612 37.9386 181.639 37.926C182.14 37.6889 183.029 34.7705 183.056 32.2008C183.07 30.837 182.855 29.0954 181.749 28.5438L181.691 28.5148L181.676 28.4516C181.602 28.1448 180.776 27.6211 179.342 27.2135C176.735 26.4728 172.848 25.0298 170.66 27.1534C170.494 27.8693 169.956 29.4013 169.411 29.575C168.809 29.7672 168.288 29.9331 168.206 30.6705C168.138 31.72 168.143 32.7729 168.221 33.8217C168.425 33.18 168.826 32.6183 169.367 32.2157C169.752 31.9574 170.207 31.8226 170.67 31.8297Z" fill="#2F2E41"/>
<path d="M157.712 70.1996L169.084 62.9348L163.357 55.3398L157.701 62.2796L140.079 63.3577C139.615 62.9006 139.029 62.588 138.39 62.4579C137.751 62.3278 137.089 62.3858 136.483 62.6249C135.877 62.864 135.353 63.2738 134.977 63.8044C134.6 64.335 134.387 64.9634 134.362 65.613C134.337 66.2626 134.502 66.9054 134.838 67.463C135.173 68.0205 135.663 68.4688 136.249 68.753C136.835 69.0373 137.492 69.1453 138.138 69.0638C138.785 68.9824 139.394 68.7151 139.891 68.2945L157.712 70.1996Z" fill="#FFB6B6"/>
<path d="M179.64 52.7949C180.3 56.7793 167.836 64.3878 167.836 64.3878C167.835 63.4526 160.396 70.5127 160.061 69.7371C159.106 67.5327 158.435 62.3116 157.102 61.4759C156.339 60.9979 161.695 56.5083 161.695 56.5083C161.695 56.5083 164.498 53.6911 168.177 50.1376C169.198 49.1138 170.463 48.3643 171.853 47.9591C173.243 47.5538 174.713 47.506 176.126 47.8199C176.126 47.8199 178.98 48.8105 179.64 52.7949Z" fill="#058B94"/>
<path d="M203.077 72.1062L195.555 60.9189L188.064 66.7919L195.14 72.2853L196.593 89.8367C196.145 90.3086 195.844 90.9004 195.727 91.5399C195.61 92.1795 195.683 92.8392 195.935 93.4385C196.188 94.0378 196.609 94.551 197.149 94.9153C197.689 95.2796 198.323 95.4794 198.975 95.4904C199.627 95.5013 200.267 95.3228 200.819 94.9768C201.371 94.6307 201.81 94.132 202.082 93.5415C202.355 92.9509 202.449 92.294 202.354 91.6509C202.258 91.0078 201.978 90.4063 201.545 89.9196L203.077 72.1062Z" fill="#FFB6B6"/>
<path d="M185.169 50.6086C189.149 49.866 197.038 62.135 197.038 62.135C196.101 62.155 203.335 69.4244 202.565 69.7757C200.375 70.7741 195.157 71.5538 194.347 72.9015C193.884 73.6721 189.271 68.4261 189.271 68.4261C189.271 68.4261 186.388 65.6899 182.749 62.0962C181.701 61.0993 180.923 59.8541 180.487 58.4766C180.052 57.0991 179.973 55.634 180.257 54.2178C180.257 54.2178 181.19 51.3512 185.169 50.6086Z" fill="#058B94"/>
<path d="M205.001 165.167C205.001 165.211 204.993 165.254 204.976 165.295C204.959 165.335 204.935 165.372 204.904 165.403C204.873 165.434 204.836 165.458 204.795 165.475C204.755 165.492 204.711 165.5 204.668 165.5H126.165C126.077 165.5 125.992 165.465 125.93 165.403C125.867 165.34 125.832 165.256 125.832 165.167C125.832 165.079 125.867 164.995 125.93 164.932C125.992 164.87 126.077 164.835 126.165 164.835H204.668C204.711 164.835 204.755 164.843 204.795 164.86C204.836 164.877 204.873 164.901 204.904 164.932C204.935 164.963 204.959 165 204.976 165.04C204.993 165.08 205.001 165.124 205.001 165.167Z" fill="#CCCCCC"/>
<path d="M132.276 64.4199H37.003C35.5145 64.4216 34.0875 65.0122 33.0349 66.0621C31.9824 67.112 31.3904 68.5355 31.3887 70.0203V129.189C31.3904 130.674 31.9824 132.097 33.0349 133.147C34.0875 134.197 35.5145 134.788 37.003 134.789H132.276C133.765 134.788 135.192 134.197 136.244 133.147C137.297 132.097 137.889 130.674 137.891 129.189V70.0203C137.889 68.5355 137.297 67.112 136.244 66.0621C135.192 65.0121 133.765 64.4216 132.276 64.4199Z" fill="#058B94"/>
<path d="M132.276 64.4199H37.003C35.5145 64.4216 34.0875 65.0122 33.0349 66.0621C31.9824 67.112 31.3904 68.5355 31.3887 70.0203V129.189C31.3904 130.674 31.9824 132.097 33.0349 133.147C34.0875 134.197 35.5145 134.788 37.003 134.789H132.276C133.765 134.788 135.192 134.197 136.244 133.147C137.297 132.097 137.889 130.674 137.891 129.189V70.0203C137.889 68.5355 137.297 67.112 136.244 66.0621C135.192 65.0121 133.765 64.4216 132.276 64.4199ZM134.119 106.922C134.096 112.945 131.707 118.72 127.465 123.007C123.223 127.295 117.465 129.753 111.427 129.854C101.76 129.98 116.776 130.028 105.117 130.028C78.4558 130.028 50.6556 129.774 40.283 129.61C38.9183 129.581 37.6187 129.022 36.6616 128.052C35.7045 127.081 35.1658 125.775 35.1605 124.414V70.0247C35.1611 69.5371 35.3552 69.0695 35.7004 68.7243C36.0456 68.3791 36.5138 68.1844 37.0026 68.1826H132.272C132.761 68.1832 133.23 68.3768 133.576 68.721C133.922 69.0653 134.117 69.5322 134.119 70.0197V106.922Z" fill="#023C40"/>
<path d="M120.549 30.3477H47.9608C47.3186 30.3486 46.6923 30.5472 46.1674 30.9164C45.6425 31.2856 45.2447 31.8074 45.0282 32.4105L33.8174 63.7846C33.6501 64.2529 33.5979 64.7544 33.6653 65.247C33.7326 65.7395 33.9176 66.2088 34.2045 66.6153C34.4914 67.0218 34.872 67.3536 35.3142 67.5829C35.7564 67.8122 36.2473 67.9323 36.7457 67.933L134.098 68.1053H134.103C134.618 68.1053 135.125 67.9777 135.579 67.7341C136.032 67.4904 136.418 67.1383 136.702 66.7093C136.985 66.2802 137.158 65.7877 137.204 65.2758C137.25 64.7639 137.167 64.2487 136.964 63.7763L136.795 63.8488L136.964 63.7763L123.411 32.2299C123.171 31.671 122.772 31.1946 122.263 30.86C121.755 30.5253 121.158 30.3472 120.549 30.3477Z" fill="#023C40"/>
<path d="M137.216 64.4582C137.216 64.8789 137.13 65.2952 136.964 65.6819L123.411 89.9654C123.17 90.5231 122.77 90.9982 122.262 91.3323C121.753 91.6664 121.158 91.8448 120.549 91.8456H47.9615C47.319 91.845 46.6924 91.6466 46.1671 91.2776C45.6418 90.9087 45.2434 90.387 45.0263 89.7838L33.8177 65.6735C33.6803 65.2894 33.6201 64.8821 33.6406 64.4747C33.6612 64.0674 33.762 63.6681 33.9373 63.2997C34.1126 62.9313 34.359 62.6009 34.6624 62.3275C34.9657 62.0541 35.3202 61.843 35.7054 61.7064C36.0386 61.5863 36.3902 61.5249 36.7444 61.5248L48.6364 61.5024L53.4901 61.494L117.359 61.3823L122.215 61.3739L134.099 61.3516H134.101C134.927 61.3517 135.719 61.6791 136.304 62.2616C136.888 62.8442 137.216 63.6343 137.216 64.4582Z" fill="#035D63"/>
<path d="M44.1453 108.803C45.5847 108.803 65.351 110.008 65.351 111.444C65.351 112.879 45.5847 114.002 44.1453 114.002C43.4541 114.002 42.7912 113.728 42.3024 113.241C41.8136 112.753 41.5391 112.092 41.5391 111.403C41.5391 110.713 41.8136 110.052 42.3024 109.564C42.7912 109.077 43.4541 108.803 44.1453 108.803Z" fill="#035D63"/>
<path d="M116.028 11.2617H54.8233C53.1831 11.2636 51.6105 11.9144 50.4507 13.0714C49.2908 14.2283 48.6384 15.797 48.6365 17.4332V91.8454H120.549C121.139 91.8472 121.718 91.6794 122.215 91.362V17.4332C122.213 15.797 121.561 14.2283 120.401 13.0714C119.241 11.9144 117.669 11.2636 116.028 11.2617Z" fill="#E6E6E6"/>
<path d="M92.6672 16.2656H59.1254C57.6318 16.2671 56.1997 16.8594 55.1433 17.9126C54.0869 18.9659 53.4924 20.394 53.4902 21.8839V91.8456H117.359V40.8956C117.351 34.3656 114.747 28.1053 110.118 23.4879C105.489 18.8705 99.2135 16.2732 92.6672 16.2656Z" fill="white"/>
<path d="M106.477 85.6318H64.3704C64.0064 85.6318 63.6574 85.7761 63.4 86.0328C63.1426 86.2895 62.998 86.6377 62.998 87.0008C62.998 87.3639 63.1426 87.712 63.4 87.9688C63.6574 88.2255 64.0064 88.3697 64.3704 88.3697H106.477C106.841 88.3697 107.19 88.2255 107.447 87.9688C107.705 87.712 107.849 87.3639 107.849 87.0008C107.849 86.6377 107.705 86.2895 107.447 86.0328C107.19 85.7761 106.841 85.6318 106.477 85.6318Z" fill="#E4E4E4"/>
<path d="M106.478 80.2178H64.3718C64.0075 80.2178 63.658 80.3622 63.4004 80.6191C63.1428 80.8761 62.998 81.2247 62.998 81.5881C62.998 81.9516 63.1428 82.3001 63.4004 82.5571C63.658 82.8141 64.0075 82.9585 64.3718 82.9585H106.478C106.843 82.9585 107.192 82.8141 107.45 82.5571C107.707 82.3001 107.852 81.9516 107.852 81.5881C107.852 81.2247 107.707 80.8761 107.45 80.6191C107.192 80.3622 106.843 80.2178 106.478 80.2178Z" fill="#E4E4E4"/>
<path d="M82.6229 74.8066H64.3704C64.0064 74.8066 63.6574 74.9509 63.4 75.2076C63.1426 75.4643 62.998 75.8125 62.998 76.1756C62.998 76.5387 63.1426 76.8869 63.4 77.1436C63.6574 77.4003 64.0064 77.5445 64.3704 77.5445H82.6229C82.9869 77.5445 83.336 77.4003 83.5933 77.1436C83.8507 76.8869 83.9953 76.5387 83.9953 76.1756C83.9953 75.8125 83.8507 75.4643 83.5933 75.2076C83.336 74.9509 82.9869 74.8066 82.6229 74.8066Z" fill="#E4E4E4"/>
<path d="M106.478 63.4688H64.3718C64.0075 63.4688 63.658 63.6131 63.4004 63.8701C63.1428 64.1271 62.998 64.4757 62.998 64.8391C62.998 65.2025 63.1428 65.5511 63.4004 65.8081C63.658 66.0651 64.0075 66.2094 64.3718 66.2094H106.478C106.843 66.2094 107.192 66.0651 107.45 65.8081C107.707 65.5511 107.852 65.2025 107.852 64.8391C107.852 64.4757 107.707 64.1271 107.45 63.8701C107.192 63.6131 106.843 63.4688 106.478 63.4688Z" fill="#E4E4E4"/>
<path d="M106.477 58.0576H64.3704C64.0064 58.0576 63.6574 58.2018 63.4 58.4586C63.1426 58.7153 62.998 59.0635 62.998 59.4266C62.998 59.7896 63.1426 60.1378 63.4 60.3946C63.6574 60.6513 64.0064 60.7955 64.3704 60.7955H106.477C106.841 60.7955 107.19 60.6513 107.447 60.3946C107.705 60.1378 107.849 59.7896 107.849 59.4266C107.849 59.0635 107.705 58.7153 107.447 58.4586C107.19 58.2018 106.841 58.0576 106.477 58.0576Z" fill="#E4E4E4"/>
<path d="M82.6243 52.6426H64.3718C64.0075 52.6426 63.658 52.787 63.4004 53.0439C63.1428 53.3009 62.998 53.6495 62.998 54.0129C62.998 54.3764 63.1428 54.7249 63.4004 54.9819C63.658 55.2389 64.0075 55.3833 64.3718 55.3833H82.6243C82.9887 55.3833 83.3381 55.2389 83.5957 54.9819C83.8534 54.7249 83.9981 54.3764 83.9981 54.0129C83.9981 53.6495 83.8534 53.3009 83.5957 53.0439C83.3381 52.787 82.9887 52.6426 82.6243 52.6426Z" fill="#E4E4E4"/>
<path d="M106.478 41.3066H64.3718C64.0075 41.3066 63.658 41.451 63.4004 41.708C63.1428 41.965 62.998 42.3135 62.998 42.677C62.998 43.0404 63.1428 43.389 63.4004 43.646C63.658 43.903 64.0075 44.0473 64.3718 44.0473H106.478C106.843 44.0473 107.192 43.903 107.45 43.646C107.707 43.389 107.852 43.0404 107.852 42.677C107.852 42.3135 107.707 41.965 107.45 41.708C107.192 41.451 106.843 41.3066 106.478 41.3066Z" fill="#058B94"/>
<path d="M106.478 35.8945H64.3718C64.0075 35.8945 63.658 36.0389 63.4004 36.2959C63.1428 36.5529 62.998 36.9014 62.998 37.2649C62.998 37.6283 63.1428 37.9769 63.4004 38.2339C63.658 38.4908 64.0075 38.6352 64.3718 38.6352H106.478C106.843 38.6352 107.192 38.4908 107.45 38.2339C107.707 37.9769 107.852 37.6283 107.852 37.2649C107.852 36.9014 107.707 36.5529 107.45 36.2959C107.192 36.0389 106.843 35.8945 106.478 35.8945Z" fill="#058B94"/>
<path d="M82.6243 30.4805H64.3718C64.0075 30.4805 63.658 30.6248 63.4004 30.8818C63.1428 31.1388 62.998 31.4874 62.998 31.8508C62.998 32.2143 63.1428 32.5628 63.4004 32.8198C63.658 33.0768 64.0075 33.2212 64.3718 33.2212H82.6243C82.9887 33.2212 83.3381 33.0768 83.5957 32.8198C83.8534 32.5628 83.9981 32.2143 83.9981 31.8508C83.9981 31.4874 83.8534 31.1388 83.5957 30.8818C83.3381 30.6248 82.9887 30.4805 82.6243 30.4805Z" fill="#058B94"/>
<path d="M119.921 21.8237C125.824 21.8237 130.609 17.0502 130.609 11.1618C130.609 5.27347 125.824 0.5 119.921 0.5C114.018 0.5 109.232 5.27347 109.232 11.1618C109.232 17.0502 114.018 21.8237 119.921 21.8237Z" fill="#058B94"/>
<path d="M118.462 16.7105C118.278 16.7105 118.096 16.6676 117.931 16.5852C117.766 16.5029 117.622 16.3833 117.511 16.236L114.595 12.3576C114.501 12.2331 114.433 12.0912 114.394 11.9402C114.354 11.7891 114.346 11.6318 114.367 11.4773C114.389 11.3229 114.442 11.1742 114.521 11.0399C114.601 10.9056 114.706 10.7883 114.831 10.6947C114.956 10.6011 115.099 10.533 115.25 10.4944C115.402 10.4558 115.56 10.4474 115.714 10.4697C115.869 10.492 116.018 10.5445 116.153 10.6243C116.287 10.704 116.404 10.8095 116.498 10.9346L118.405 13.4717L123.305 6.14043C123.48 5.87871 123.752 5.69703 124.061 5.63534C124.371 5.57365 124.692 5.63702 124.954 5.8115C125.216 5.98598 125.399 6.25728 125.46 6.56572C125.522 6.87416 125.459 7.19447 125.284 7.45619L119.452 16.1823C119.346 16.3401 119.204 16.4704 119.038 16.5623C118.872 16.6541 118.686 16.7048 118.496 16.7101C118.485 16.7103 118.474 16.7105 118.462 16.7105Z" fill="white"/>
</g>
</g>
<defs>
<clipPath id="clip0_3671_3435">
<rect width="220" height="165" fill="white" transform="translate(0 0.5)"/>
</clipPath>
<clipPath id="clip1_3671_3435">
<rect width="189" height="165" fill="white" transform="translate(16 0.5)"/>
</clipPath>
</defs>
</svg>
