<svg width="180" height="162" viewBox="0 0 180 162" fill="none" xmlns="http://www.w3.org/2000/svg">
<g clip-path="url(#clip0_3860_55139)">
<path d="M92.0724 94.3255L52.8351 95.0121C52.2157 95.0243 51.6001 94.9148 51.0233 94.6899C50.4466 94.465 49.9201 94.1291 49.4739 93.7015C49.0278 93.2739 48.6708 92.763 48.4234 92.1979C48.1761 91.6329 48.0431 91.0248 48.0322 90.4085C48.0213 89.7923 48.1327 89.18 48.36 88.6066C48.5872 88.0332 48.9259 87.5101 49.3567 87.0672C49.7874 86.6242 50.3017 86.2701 50.8702 86.0252C51.4386 85.7803 52.0501 85.6493 52.6694 85.6399L91.9068 84.9535C92.4918 84.9433 93.0569 85.1647 93.4778 85.569C93.8987 85.9733 94.1409 86.5274 94.1512 87.1095L94.2392 92.0925C94.249 92.6492 94.0459 93.1887 93.671 93.6019C93.296 94.0151 92.7773 94.2711 92.2197 94.3181C92.1709 94.3222 92.1218 94.3246 92.0724 94.3255Z" fill="#FFB7B7"/>
<path d="M84.4949 95.599L52.304 97.0611C52.0146 97.0743 51.7254 97.0306 51.453 96.9326C51.1806 96.8346 50.9303 96.6841 50.7163 96.4898C50.5023 96.2955 50.3289 96.0612 50.2059 95.8002C50.083 95.5392 50.0129 95.2567 49.9997 94.9688L49.659 87.5433C49.6324 86.9618 49.839 86.3935 50.2333 85.9636C50.6277 85.5336 51.1776 85.2771 51.7621 85.2506L83.953 83.7884C84.2424 83.7753 84.5315 83.8189 84.804 83.917C85.0764 84.015 85.3267 84.1654 85.5407 84.3597C85.7547 84.554 85.9281 84.7883 86.0511 85.0493C86.174 85.3103 86.2441 85.5928 86.2573 85.8807L86.598 93.3062C86.6233 93.8733 86.4272 94.428 86.0507 94.8544C85.6742 95.2808 85.1465 95.5458 84.5781 95.5937C84.5506 95.596 84.5227 95.5978 84.4949 95.599Z" fill="#058B94"/>
<path d="M30.0574 159.305V117.767C30.058 117.185 30.2907 116.627 30.7042 116.216C31.1178 115.804 31.6785 115.573 32.2633 115.572H37.2724C37.8572 115.573 38.4179 115.804 38.8315 116.216C39.245 116.627 39.4777 117.185 39.4783 117.767V159.305C39.4777 159.887 39.245 160.445 38.8315 160.856C38.4179 161.268 37.8572 161.499 37.2724 161.5H32.2633C31.6785 161.499 31.1178 161.268 30.7042 160.856C30.2907 160.445 30.058 159.887 30.0574 159.305Z" fill="#035D63"/>
<path d="M43.2024 159.305V117.767C43.2031 117.185 43.4357 116.627 43.8492 116.216C44.2628 115.804 44.8235 115.573 45.4083 115.572H50.4174C51.0023 115.573 51.563 115.804 51.9765 116.216C52.3901 116.627 52.6227 117.185 52.6234 117.767V159.305C52.6227 159.887 52.3901 160.445 51.9765 160.856C51.563 161.268 51.0023 161.499 50.4174 161.5H45.4083C44.8235 161.499 44.2628 161.268 43.8492 160.856C43.4357 160.445 43.2031 159.887 43.2024 159.305Z" fill="#035D63"/>
<path d="M7.79028 53.6419L32.6406 83.8619C33.0326 84.3382 33.3265 84.8867 33.5054 85.476C33.6844 86.0654 33.7448 86.684 33.6834 87.2966C33.622 87.9092 33.4398 88.5037 33.1474 89.0462C32.855 89.5888 32.458 90.0687 31.9791 90.4585C31.5002 90.8484 30.9489 91.1405 30.3565 91.3183C29.7641 91.4961 29.1423 91.556 28.5266 91.4946C27.911 91.4332 27.3135 91.2517 26.7684 90.9605C26.2232 90.6693 25.7411 90.2741 25.3495 89.7975L0.498977 59.5776C0.315515 59.3545 0.178005 59.0977 0.0943101 58.8217C0.0106152 58.5458 -0.0176324 58.2561 0.0111844 57.9693C0.0400012 57.6825 0.125313 57.4042 0.262254 57.1502C0.399194 56.8962 0.585078 56.6715 0.809291 56.489L4.68603 53.333C5.13886 52.9644 5.7203 52.7899 6.30245 52.8478C6.8846 52.9057 7.41978 53.1914 7.79027 53.6419H7.79028Z" fill="#FFB7B7"/>
<path d="M16.0781 60.387L36.4838 85.202C36.6673 85.425 36.8048 85.6819 36.8885 85.9578C36.9722 86.2337 37.0004 86.5234 36.9716 86.8102C36.9428 87.097 36.8575 87.3753 36.7206 87.6293C36.5836 87.8833 36.3977 88.108 36.1735 88.2905L29.5518 93.681C29.3277 93.8635 29.0695 94.0003 28.7922 94.0836C28.5148 94.1669 28.2237 94.195 27.9355 94.1663C27.6472 94.1376 27.3675 94.0527 27.1122 93.9165C26.8569 93.7802 26.6311 93.5952 26.4477 93.3721L6.04183 68.5573C5.672 68.1065 5.49697 67.5282 5.55515 66.9492C5.61333 66.3702 5.89996 65.8378 6.35215 65.4688L12.9739 60.0781C13.4267 59.7095 14.0081 59.535 14.5903 59.5929C15.1724 59.6509 15.7076 59.9365 16.0781 60.387L16.0781 60.387Z" fill="#058B94"/>
<path d="M157.553 30.219C157.303 29.6295 156.886 29.1257 156.351 28.77C155.817 28.4143 155.19 28.2223 154.547 28.2178H94.5413C93.6788 28.2182 92.8517 28.5594 92.2418 29.1662C91.6319 29.7731 91.289 30.596 91.2886 31.4542V106.985C91.289 107.843 91.6319 108.666 92.2418 109.273C92.8517 109.88 93.6788 110.221 94.5413 110.221H154.549C155.411 110.22 156.238 109.879 156.848 109.272C157.457 108.666 157.801 107.843 157.802 106.985V31.4542C157.803 31.0302 157.719 30.6103 157.555 30.219H157.553ZM157.077 106.985C157.076 107.652 156.81 108.292 156.335 108.764C155.861 109.236 155.218 109.502 154.547 109.503H94.5413C93.8703 109.503 93.2268 109.237 92.7523 108.765C92.2778 108.293 92.0112 107.653 92.0109 106.985V31.4546C92.0118 30.7872 92.2787 30.1473 92.7531 29.6754C93.2274 29.2034 93.8705 28.9378 94.5413 28.9369H154.549C155.054 28.9388 155.548 29.0905 155.966 29.3726C156.384 29.6547 156.709 30.0544 156.898 30.5207C156.934 30.6136 156.966 30.7084 156.993 30.8047C157.05 31.0166 157.079 31.2352 157.079 31.4546L157.077 106.985Z" fill="#3F3D56"/>
<path d="M145.031 46.0503H126.956C126.766 46.0506 126.578 46.0136 126.402 45.9415C126.227 45.8693 126.067 45.7634 125.932 45.6297C125.798 45.4961 125.691 45.3374 125.618 45.1627C125.546 44.988 125.508 44.8007 125.508 44.6116C125.508 44.4225 125.546 44.2352 125.618 44.0605C125.691 43.8858 125.798 43.7271 125.932 43.5935C126.067 43.4598 126.227 43.3539 126.402 43.2817C126.578 43.2096 126.766 43.1726 126.956 43.1729H145.031C145.221 43.1726 145.409 43.2096 145.585 43.2817C145.761 43.3539 145.92 43.4598 146.055 43.5935C146.189 43.7271 146.296 43.8858 146.369 44.0605C146.442 44.2352 146.479 44.4225 146.479 44.6116C146.479 44.8007 146.442 44.988 146.369 45.1627C146.296 45.3374 146.189 45.4961 146.055 45.6297C145.92 45.7634 145.761 45.8693 145.585 45.9415C145.409 46.0136 145.221 46.0506 145.031 46.0503Z" fill="#3F3D56"/>
<path d="M145.031 53.6041H126.956C126.766 53.6044 126.578 53.5673 126.402 53.4952C126.227 53.423 126.067 53.3171 125.932 53.1834C125.798 53.0498 125.691 52.8911 125.618 52.7164C125.546 52.5417 125.508 52.3544 125.508 52.1653C125.508 51.9762 125.546 51.7889 125.618 51.6142C125.691 51.4395 125.798 51.2808 125.932 51.1472C126.067 51.0135 126.227 50.9076 126.402 50.8354C126.578 50.7633 126.766 50.7263 126.956 50.7266H145.031C145.221 50.7263 145.409 50.7633 145.585 50.8354C145.761 50.9076 145.92 51.0135 146.055 51.1472C146.189 51.2808 146.296 51.4395 146.369 51.6142C146.442 51.7889 146.479 51.9762 146.479 52.1653C146.479 52.3544 146.442 52.5417 146.369 52.7164C146.296 52.8911 146.189 53.0498 146.055 53.1834C145.92 53.3171 145.761 53.423 145.585 53.4952C145.409 53.5673 145.221 53.6044 145.031 53.6041Z" fill="#3F3D56"/>
<path d="M117.682 57.9045H104.474C104.042 57.904 103.629 57.7333 103.324 57.4299C103.019 57.1264 102.847 56.715 102.847 56.2858V40.7768C102.847 40.3477 103.019 39.9363 103.324 39.6328C103.629 39.3293 104.042 39.1587 104.474 39.1582H117.682C118.114 39.1587 118.527 39.3293 118.832 39.6328C119.137 39.9363 119.309 40.3477 119.309 40.7768V56.2858C119.309 56.715 119.137 57.1264 118.832 57.4299C118.527 57.7333 118.114 57.904 117.682 57.9045Z" fill="#058B94"/>
<path d="M144.905 69.0699H104.057C103.674 69.0699 103.306 68.9183 103.035 68.6485C102.763 68.3787 102.611 68.0127 102.611 67.6311C102.611 67.2495 102.763 66.8836 103.035 66.6138C103.306 66.344 103.674 66.1924 104.057 66.1924H144.905C145.289 66.1924 145.657 66.344 145.928 66.6138C146.199 66.8836 146.351 67.2495 146.351 67.6311C146.351 68.0127 146.199 68.3787 145.928 68.6485C145.657 68.9183 145.289 69.0699 144.905 69.0699Z" fill="#CCCCCC"/>
<path d="M144.905 76.6226H104.057C103.674 76.622 103.307 76.4702 103.036 76.2004C102.765 75.9307 102.613 75.5651 102.613 75.1839C102.613 74.8027 102.765 74.4371 103.036 74.1673C103.307 73.8976 103.674 73.7457 104.057 73.7451H144.905C145.095 73.7448 145.284 73.7818 145.459 73.854C145.635 73.9262 145.795 74.0321 145.929 74.1657C146.064 74.2994 146.17 74.4581 146.243 74.6328C146.316 74.8075 146.354 74.9947 146.354 75.1839C146.354 75.373 146.316 75.5603 146.243 75.735C146.17 75.9097 146.064 76.0684 145.929 76.202C145.795 76.3356 145.635 76.4416 145.459 76.5137C145.284 76.5859 145.095 76.6229 144.905 76.6226Z" fill="#CCCCCC"/>
<path d="M144.905 84.1763H104.057C103.674 84.1757 103.307 84.0239 103.036 83.7541C102.765 83.4844 102.613 83.1188 102.613 82.7376C102.613 82.3564 102.765 81.9908 103.036 81.721C103.307 81.4513 103.674 81.2994 104.057 81.2988H144.905C145.095 81.2985 145.284 81.3355 145.459 81.4077C145.635 81.4799 145.795 81.5858 145.929 81.7194C146.064 81.8531 146.17 82.0118 146.243 82.1865C146.316 82.3612 146.354 82.5484 146.354 82.7376C146.354 82.9267 146.316 83.114 146.243 83.2887C146.17 83.4634 146.064 83.6221 145.929 83.7557C145.795 83.8893 145.635 83.9953 145.459 84.0674C145.284 84.1396 145.095 84.1766 144.905 84.1763Z" fill="#CCCCCC"/>
<path d="M144.905 91.7291H104.057C103.674 91.7285 103.307 91.5766 103.036 91.3069C102.765 91.0371 102.613 90.6715 102.613 90.2903C102.613 89.9091 102.765 89.5435 103.036 89.2738C103.307 89.004 103.674 88.8522 104.057 88.8516H144.905C145.095 88.8513 145.284 88.8883 145.459 88.9604C145.635 89.0326 145.795 89.1385 145.929 89.2722C146.064 89.4058 146.17 89.5645 146.243 89.7392C146.316 89.9139 146.354 90.1012 146.354 90.2903C146.354 90.4794 146.316 90.6667 146.243 90.8414C146.17 91.0161 146.064 91.1748 145.929 91.3084C145.795 91.4421 145.635 91.548 145.459 91.6202C145.284 91.6924 145.095 91.7294 144.905 91.7291Z" fill="#CCCCCC"/>
<path d="M144.905 99.2818H104.057C103.674 99.2812 103.307 99.1294 103.036 98.8596C102.765 98.5898 102.613 98.2242 102.613 97.843C102.613 97.4618 102.765 97.0962 103.036 96.8265C103.307 96.5567 103.674 96.4049 104.057 96.4043H144.905C145.095 96.404 145.284 96.441 145.459 96.5132C145.635 96.5853 145.795 96.6913 145.929 96.8249C146.064 96.9585 146.17 97.1172 146.243 97.2919C146.316 97.4666 146.354 97.6539 146.354 97.843C146.354 98.0322 146.316 98.2194 146.243 98.3941C146.17 98.5688 146.064 98.7275 145.929 98.8612C145.795 98.9948 145.635 99.1007 145.459 99.1729C145.284 99.2451 145.095 99.2821 144.905 99.2818Z" fill="#CCCCCC"/>
<path d="M159.299 41.6934C170.732 41.6934 180 32.472 180 21.0967C180 9.72146 170.732 0.5 159.299 0.5C147.866 0.5 138.598 9.72146 138.598 21.0967C138.598 32.472 147.866 41.6934 159.299 41.6934Z" fill="#058B94"/>
<path d="M54.1282 132.252H28.1752C27.6592 132.252 27.1644 132.048 26.7995 131.684C26.4346 131.321 26.2293 130.829 26.2288 130.316V121.708C26.2293 121.195 26.4346 120.702 26.7995 120.339C27.1644 119.976 27.6592 119.772 28.1752 119.771H54.1282C54.6443 119.772 55.139 119.976 55.5039 120.339C55.8688 120.702 56.0741 121.195 56.0747 121.708V130.316C56.0741 130.829 55.8688 131.321 55.5039 131.684C55.139 132.048 54.6443 132.252 54.1282 132.252Z" fill="#058B94"/>
<path d="M55.0151 89.815C54.2025 85.6804 51.0466 82.4062 46.9506 81.0599C48.4298 80.5863 49.3702 79.8851 49.3702 79.1008C49.3702 77.6747 46.2717 76.5186 42.4494 76.5186C38.6272 76.5186 35.5286 77.6747 35.5286 79.1008C35.5286 79.8965 36.4946 80.6075 38.0113 81.0812C31.7316 82.944 27.1736 88.3817 27.1736 94.785C27.1736 94.785 25.2406 107.115 23.7228 116.97C22.7518 123.276 28.0573 128.912 34.9618 128.912H59.2445C60.8351 128.912 62.1292 127.718 62.1292 126.251C62.1292 126.251 57.6547 103.246 55.0151 89.815Z" fill="#058B94"/>
<path d="M157.306 29.9925C156.772 29.9934 156.252 29.8208 155.825 29.5006L155.799 29.4808L150.223 25.2159C149.965 25.018 149.748 24.7711 149.585 24.4894C149.422 24.2077 149.317 23.8967 149.274 23.5741C149.231 23.2516 149.253 22.9238 149.337 22.6095C149.421 22.2952 149.566 22.0005 149.764 21.7423C149.962 21.4841 150.209 21.2674 150.491 21.1046C150.772 20.9418 151.083 20.8361 151.406 20.7935C151.729 20.7508 152.056 20.7722 152.371 20.8563C152.685 20.9403 152.98 21.0855 153.238 21.2835L156.85 24.0527L165.384 12.92C165.582 12.6619 165.829 12.4452 166.11 12.2825C166.392 12.1198 166.703 12.0141 167.025 11.9715C167.348 11.9289 167.675 11.9503 167.99 12.0343C168.304 12.1183 168.598 12.2635 168.856 12.4613L168.857 12.4619L168.804 12.5354L168.859 12.4619C169.379 12.8621 169.72 13.4525 169.806 14.1036C169.892 14.7547 169.716 15.4132 169.317 15.9348L159.279 29.0234C159.046 29.325 158.748 29.569 158.406 29.7365C158.064 29.9041 157.688 29.9907 157.308 29.9896L157.306 29.9925Z" fill="white"/>
<path d="M42.3697 78.9146C49.3994 78.9146 55.098 73.2446 55.098 66.2503C55.098 59.256 49.3994 53.5859 42.3697 53.5859C35.34 53.5859 29.6414 59.256 29.6414 66.2503C29.6414 73.2446 35.34 78.9146 42.3697 78.9146Z" fill="#FFB6B6"/>
<path d="M34.2278 58.8471C34.7195 58.8509 35.209 58.9143 35.6851 59.036C36.6238 59.259 37.577 59.417 38.5379 59.5087C41.4803 59.7823 44.2451 61.0222 46.3906 63.0304C48.5362 65.0387 49.9387 67.6995 50.3743 70.5878C51.1129 69.9516 52.7935 68.7812 54.1709 69.8689C54.1919 69.8862 54.2041 69.8951 54.2526 69.8724C55.1674 69.4436 56.7913 64.1656 56.8405 59.5183C56.8664 57.0518 56.4734 53.9021 54.4545 52.9046L54.3482 52.8521L54.3202 52.7379C54.1854 52.183 52.6783 51.2359 50.0592 50.4988C45.2994 49.1591 38.2043 46.5496 34.209 50.39C33.9066 51.6847 32.923 54.4554 31.9292 54.7695C30.8289 55.1171 29.8786 55.4171 29.7288 56.7508C29.6037 58.6487 29.6128 60.553 29.7561 62.4497C30.1289 61.2891 30.8608 60.2733 31.8486 59.5452C32.5509 59.078 33.3812 58.8344 34.2278 58.8471Z" fill="#2F2E41"/>
</g>
<defs>
<clipPath id="clip0_3860_55139">
<rect width="180" height="161" fill="white" transform="translate(0 0.5)"/>
</clipPath>
</defs>
</svg>
