<svg width="220" height="166" viewBox="0 0 220 166" fill="none" xmlns="http://www.w3.org/2000/svg">
<rect width="220" height="165" transform="translate(0 0.5)" fill="white"/>
<g clip-path="url(#clip0_3671_32461)">
<path d="M75.6593 69.5377C80.582 69.5377 84.5726 65.5552 84.5726 60.6424C84.5726 55.7296 80.582 51.7471 75.6593 51.7471C70.7367 51.7471 66.7461 55.7296 66.7461 60.6424C66.7461 65.5552 70.7367 69.5377 75.6593 69.5377Z" fill="#2F2E41"/>
<path d="M76.4086 69.5545C80.4388 69.5545 83.7059 66.2939 83.7059 62.2719C83.7059 58.2498 80.4388 54.9893 76.4086 54.9893C72.3784 54.9893 69.1113 58.2498 69.1113 62.2719C69.1113 66.2939 72.3784 69.5545 76.4086 69.5545Z" fill="#FFCCCF"/>
<path d="M104.198 84.4236C104.082 84.5399 103.976 84.6653 103.88 84.7984L89.1544 84.2792L87.4701 81.127L82.3711 83.0418L84.8092 88.9127C85.0061 89.3869 85.3519 89.7846 85.7945 90.046C86.2372 90.3074 86.7529 90.4184 87.2642 90.3624L103.927 88.5365C104.315 89.037 104.845 89.408 105.449 89.6001C106.053 89.7922 106.701 89.7963 107.307 89.6119C107.913 89.4275 108.448 89.0633 108.842 88.5678C109.235 88.0722 109.468 87.4689 109.51 86.8379C109.551 86.207 109.399 85.5783 109.074 85.0357C108.749 84.493 108.266 84.062 107.689 83.8001C107.113 83.5381 106.47 83.4576 105.846 83.5693C105.222 83.6809 104.648 83.9794 104.198 84.425V84.4236Z" fill="#FFCCCF"/>
<path d="M80.4103 85.8759C80.2226 85.792 80.0553 85.6686 79.9198 85.5142C79.7843 85.3598 79.6838 85.1781 79.625 84.9814L77.575 78.1115C77.3523 77.6401 77.2248 77.1296 77.1998 76.609C77.1749 76.0884 77.253 75.5681 77.4297 75.0776C77.6064 74.5872 77.8782 74.1363 78.2295 73.7508C78.5809 73.3652 79.005 73.0526 79.4775 72.8307C79.95 72.6088 80.4617 72.4819 80.9833 72.4575C81.505 72.433 82.0263 72.5114 82.5176 72.6881C83.0089 72.8649 83.4604 73.1365 83.8464 73.4875C84.2325 73.8385 84.5454 74.2619 84.7674 74.7337L88.7403 80.7336C88.8537 80.9048 88.9287 81.0984 88.9604 81.3012C88.992 81.504 88.9795 81.7113 88.9236 81.9088C88.8678 82.1063 88.7699 82.2895 88.6367 82.4459C88.5035 82.6023 88.3381 82.7282 88.1518 82.8151L81.6032 85.8659C81.4169 85.9528 81.214 85.9986 81.0083 86.0002C80.8026 86.0017 80.5991 85.9589 80.4115 85.8748L80.4103 85.8759Z" fill="#06B9C6"/>
<path d="M94.9126 155.624L98.1119 153.886L92.9169 140.744L88.1953 143.309L94.9126 155.624Z" fill="#FFCCCF"/>
<path d="M93.5293 155.025L99.8295 151.602C100.357 151.316 100.935 151.136 101.532 151.072C102.129 151.009 102.733 151.064 103.309 151.233C103.884 151.403 104.421 151.684 104.888 152.06C105.355 152.437 105.743 152.902 106.03 153.428L106.03 153.428L106.101 153.558L95.7855 159.162L93.5293 155.025Z" fill="#2F2E41"/>
<path d="M59.7094 155.639H63.3517L65.0847 141.617H59.707L59.7094 155.639Z" fill="#FFCCCF"/>
<path d="M58.7812 154.451H65.9549C67.1673 154.451 68.33 154.932 69.1873 155.787C70.0446 156.643 70.5262 157.803 70.5262 159.013V159.162H58.7815L58.7812 154.451Z" fill="#2F2E41"/>
<path d="M82.3442 93.4078L83.5326 107.64L96.7893 147.33C96.889 147.628 96.8658 147.954 96.7248 148.236C96.5838 148.517 96.3367 148.731 96.0376 148.83C96.0046 148.841 95.9711 148.851 95.9372 148.859L91.8742 149.824C91.614 149.886 91.3404 149.859 91.0978 149.746C90.8551 149.634 90.6576 149.443 90.5372 149.204L73.5893 115.652C73.5341 115.543 73.4463 115.453 73.338 115.396C73.2297 115.338 73.1062 115.315 72.9845 115.331C72.8628 115.346 72.7488 115.399 72.6582 115.481C72.5676 115.564 72.5048 115.672 72.4784 115.792L65.021 149.701C64.9629 149.965 64.8161 150.202 64.605 150.371C64.3939 150.541 64.1311 150.633 63.8602 150.633H60.0792C59.9234 150.633 59.7691 150.603 59.625 150.544C59.481 150.484 59.35 150.397 59.2397 150.288C59.1293 150.178 59.0417 150.048 58.9818 149.904C58.9219 149.761 58.8909 149.607 58.8906 149.451C58.8906 149.444 58.8907 149.438 58.8908 149.431C59.2372 125.918 58.0945 99.1269 67.1908 94.8888L68.6763 91.0342L82.3442 93.4078Z" fill="#035D63"/>
<path d="M68.2483 92.044L66.717 82.7997C66.4634 81.2836 66.5964 79.7283 67.1036 78.277C67.6109 76.8258 68.4761 75.5253 69.6194 74.4956C70.737 73.4757 72.0938 72.753 73.5649 72.3942C75.0359 72.0353 76.5738 72.0519 78.0368 72.4422C78.1235 72.4654 78.2106 72.4894 78.2977 72.5137C80.0974 73.0283 81.6956 74.0818 82.8763 75.5319C84.057 76.9819 84.7634 78.7586 84.9 80.6221C85.1924 84.6368 84.9297 90.4615 82.0246 95.4091L81.9681 95.5052L68.2483 92.044Z" fill="#058B94"/>
<path d="M83.6663 58.4016C81.9987 59.5488 80.0194 60.1592 77.9942 60.1511C78.7166 60.651 79.5391 60.9887 80.4049 61.1408C77.7122 61.7173 74.9293 61.7329 72.2303 61.1868C71.6303 61.0908 71.0514 60.8924 70.5189 60.6003C70.2536 60.4524 70.0224 60.2504 69.8405 60.0075C69.6585 59.7646 69.5298 59.4862 69.4627 59.1904C69.2844 58.1677 70.0816 57.2387 70.9114 56.6128C72.1817 55.6688 73.6463 55.0185 75.1993 54.7087C76.7524 54.399 78.355 54.4376 79.8912 54.8219C80.8942 55.0807 81.8991 55.5178 82.5506 56.3219C83.2022 57.1261 83.3953 58.3655 82.7743 59.1933L83.6663 58.4016Z" fill="#2F2E41"/>
<path d="M75.5419 51.703C76.3877 48.2931 73.356 44.5073 69.8374 44.5781C66.2682 44.6502 63.6415 47.8694 61.836 50.9424C60.0305 54.0155 58.2365 57.5004 54.9226 58.8237C53.8257 59.2616 52.6371 59.4209 51.4633 59.2875C50.2896 59.1541 49.1673 58.7321 48.1972 58.0593C47.2271 57.3866 46.4394 56.484 45.9048 55.4327C45.3702 54.3813 45.1054 53.214 45.134 52.0354C44.6884 55.7693 45.3055 59.8096 47.7189 62.6979C50.1323 65.5862 54.6216 66.8876 57.8503 64.9467C59.6923 63.838 60.8716 61.9113 61.8428 59.9949C62.8141 58.0786 63.6783 56.0575 65.1499 54.4905C66.6215 52.9234 68.897 51.8836 70.9453 52.5427C71.7582 52.8045 72.4876 53.3136 73.3275 53.4696C74.1675 53.6256 75.2249 53.2265 75.3395 52.3817L75.5419 51.703Z" fill="#2F2E41"/>
<path d="M57.9531 113.509C57.6502 113.155 57.4289 112.739 57.3046 112.29C57.1804 111.841 57.1562 111.37 57.2339 110.911C57.3116 110.452 57.4893 110.015 57.7543 109.632C58.0194 109.249 58.3654 108.928 58.7681 108.693L65.0979 80.376L71.5193 83.0063L63.2785 110.013C63.6317 110.714 63.7145 111.521 63.5111 112.279C63.3076 113.038 62.8321 113.695 62.1749 114.126C61.5177 114.558 60.7246 114.733 59.9463 114.619C59.168 114.506 58.4586 114.11 57.9531 113.509Z" fill="#FFCCCF"/>
<path d="M62.591 84.4384C62.4898 84.2595 62.4285 84.0609 62.4113 83.8562C62.394 83.6515 62.4213 83.4455 62.4912 83.2523L64.9254 76.5082C65.1303 75.4762 65.7375 74.5678 66.6136 73.9827C67.4896 73.3975 68.5627 73.1837 69.5967 73.3882C70.6307 73.5926 71.541 74.1986 72.1273 75.0729C72.7136 75.9472 72.9279 77.0181 72.723 78.05L72.3531 85.2321C72.3425 85.4371 72.2878 85.6374 72.1927 85.8194C72.0976 86.0014 71.9643 86.1607 71.8019 86.2867C71.6395 86.4126 71.4518 86.5021 71.2516 86.5491C71.0514 86.5961 70.8434 86.5995 70.6418 86.559L63.5557 85.1358C63.3541 85.0954 63.1635 85.012 62.9971 84.8914C62.8306 84.7708 62.6922 84.6158 62.5913 84.4369L62.591 84.4384Z" fill="#06B9C6"/>
<path d="M134.216 8.58493C134.081 8.26542 133.855 7.99237 133.566 7.79955C133.277 7.60673 132.938 7.50259 132.591 7.5H100.158C99.6922 7.50024 99.2452 7.68516 98.9156 8.01413C98.5859 8.3431 98.4006 8.78922 98.4004 9.25446V50.2011C98.4006 50.6664 98.5859 51.1125 98.9156 51.4415C99.2452 51.7704 99.6922 51.9554 100.158 51.9556H132.591C133.057 51.955 133.504 51.7699 133.833 51.441C134.163 51.1121 134.348 50.6663 134.349 50.2011V9.25505C134.35 9.02503 134.304 8.79718 134.216 8.58493ZM133.959 50.2008C133.958 50.5624 133.814 50.9089 133.558 51.1645C133.301 51.4202 132.954 51.5641 132.592 51.5648H100.158C99.7959 51.5648 99.4483 51.4211 99.192 51.1653C98.9357 50.9095 98.7917 50.5626 98.7917 50.2008V9.25505C98.7924 8.89353 98.9366 8.547 99.1928 8.29137C99.4489 8.03573 99.7961 7.8918 100.158 7.8911H132.591C132.864 7.89222 133.131 7.97463 133.357 8.12779C133.583 8.28096 133.759 8.49792 133.861 8.75098C133.88 8.80132 133.898 8.8527 133.912 8.90487C133.943 9.01972 133.959 9.13815 133.959 9.25712L133.959 50.2008Z" fill="#E6E6E6"/>
<path d="M127.447 17.1674H117.678C117.471 17.1674 117.272 17.0852 117.125 16.9389C116.979 16.7926 116.896 16.5943 116.896 16.3874C116.896 16.1805 116.979 15.9821 117.125 15.8359C117.272 15.6896 117.471 15.6074 117.678 15.6074H127.447C127.651 15.6114 127.846 15.6953 127.99 15.8412C128.133 15.987 128.213 16.1831 128.213 16.3874C128.213 16.5917 128.133 16.7878 127.99 16.9336C127.846 17.0795 127.651 17.1634 127.447 17.1674H127.447Z" fill="#E6E6E6"/>
<path d="M127.447 21.2631H117.678C117.471 21.2631 117.272 21.1809 117.125 21.0346C116.979 20.8884 116.896 20.69 116.896 20.4831C116.896 20.2762 116.979 20.0778 117.125 19.9316C117.272 19.7853 117.471 19.7031 117.678 19.7031H127.447C127.651 19.7071 127.846 19.791 127.99 19.9369C128.133 20.0827 128.213 20.2788 128.213 20.4831C128.213 20.6874 128.133 20.8835 127.99 21.0293C127.846 21.1752 127.651 21.2591 127.447 21.2631H127.447Z" fill="#E6E6E6"/>
<path d="M112.666 23.594H105.526C105.293 23.5937 105.069 23.5012 104.904 23.3367C104.739 23.1722 104.647 22.9492 104.646 22.7166V14.309C104.647 14.0764 104.739 13.8534 104.904 13.6889C105.069 13.5244 105.293 13.4319 105.526 13.4316H112.666C112.899 13.432 113.123 13.5245 113.287 13.689C113.452 13.8534 113.545 14.0764 113.545 14.309V22.7166C113.545 22.9492 113.452 23.1722 113.287 23.3367C113.123 23.5012 112.899 23.5937 112.666 23.594Z" fill="#E6E6E6"/>
<path d="M127.378 29.6469H105.301C105.094 29.6469 104.895 29.5647 104.748 29.4184C104.602 29.2721 104.52 29.0737 104.52 28.8669C104.52 28.66 104.602 28.4616 104.748 28.3154C104.895 28.1691 105.094 28.0869 105.301 28.0869H127.378C127.586 28.0869 127.784 28.1691 127.931 28.3154C128.077 28.4616 128.16 28.66 128.16 28.8669C128.16 29.0737 128.077 29.2721 127.931 29.4184C127.784 29.5647 127.586 29.6469 127.378 29.6469Z" fill="#E6E6E6"/>
<path d="M127.378 33.7435H105.301C105.094 33.7435 104.895 33.6614 104.748 33.5151C104.602 33.3688 104.52 33.1704 104.52 32.9636C104.52 32.7567 104.602 32.5583 104.748 32.412C104.895 32.2658 105.094 32.1836 105.301 32.1836H127.378C127.586 32.1836 127.784 32.2658 127.931 32.412C128.077 32.5583 128.16 32.7567 128.16 32.9636C128.16 33.1704 128.077 33.3688 127.931 33.5151C127.784 33.6614 127.586 33.7435 127.378 33.7435Z" fill="#E6E6E6"/>
<path d="M127.378 37.8363H105.301C105.094 37.8363 104.895 37.7541 104.748 37.6079C104.602 37.4616 104.52 37.2632 104.52 37.0563C104.52 36.8495 104.602 36.6511 104.748 36.5048C104.895 36.3585 105.094 36.2764 105.301 36.2764H127.378C127.586 36.2764 127.784 36.3585 127.931 36.5048C128.077 36.6511 128.16 36.8495 128.16 37.0563C128.16 37.2632 128.077 37.4616 127.931 37.6079C127.784 37.7541 127.586 37.8363 127.378 37.8363Z" fill="#E6E6E6"/>
<path d="M127.378 41.932H105.301C105.094 41.932 104.895 41.8498 104.748 41.7036C104.602 41.5573 104.52 41.3589 104.52 41.152C104.52 40.9452 104.602 40.7468 104.748 40.6005C104.895 40.4543 105.094 40.3721 105.301 40.3721H127.378C127.586 40.3721 127.784 40.4543 127.931 40.6005C128.077 40.7468 128.16 40.9452 128.16 41.152C128.16 41.3589 128.077 41.5573 127.931 41.7036C127.784 41.8498 127.586 41.932 127.378 41.932Z" fill="#E6E6E6"/>
<path d="M127.378 46.0258H105.301C105.094 46.0258 104.895 45.9436 104.748 45.7973C104.602 45.6511 104.52 45.4527 104.52 45.2458C104.52 45.0389 104.602 44.8405 104.748 44.6943C104.895 44.548 105.094 44.4658 105.301 44.4658H127.378C127.586 44.4658 127.784 44.548 127.931 44.6943C128.077 44.8405 128.16 45.0389 128.16 45.2458C128.16 45.4527 128.077 45.6511 127.931 45.7973C127.784 45.9436 127.586 46.0258 127.378 46.0258Z" fill="#E6E6E6"/>
<path d="M153.805 32.7616C153.633 32.3555 153.346 32.0084 152.979 31.7633C152.612 31.5182 152.181 31.386 151.74 31.3828H110.523C109.931 31.3831 109.363 31.6182 108.944 32.0362C108.525 32.4543 108.289 33.0213 108.289 33.6126V85.6503C108.289 86.2415 108.525 86.8085 108.944 87.2266C109.363 87.6447 109.931 87.8797 110.523 87.88H151.741C152.333 87.8792 152.901 87.6441 153.32 87.2261C153.739 86.8081 153.975 86.2414 153.975 85.6503V33.6126C153.976 33.3205 153.919 33.0311 153.806 32.7616H153.805Z" fill="#E6E6E6"/>
<path d="M150.448 84.9589H111.929C111.374 84.9583 110.939 84.3523 110.939 83.5793V35.3074C110.94 34.5336 111.375 33.9277 111.929 33.9277H150.448C151.003 33.9285 151.438 34.5344 151.438 35.3074V83.5793C151.437 84.3529 151.002 84.9589 150.448 84.9589Z" fill="white"/>
<path d="M153.805 32.7616C153.633 32.3555 153.346 32.0084 152.979 31.7633C152.612 31.5182 152.181 31.386 151.74 31.3828H110.523C109.931 31.3831 109.363 31.6182 108.944 32.0362C108.525 32.4543 108.289 33.0213 108.289 33.6126V85.6503C108.289 86.2415 108.525 86.8085 108.944 87.2266C109.363 87.6447 109.931 87.8797 110.523 87.88H151.741C152.333 87.8792 152.901 87.6441 153.32 87.2261C153.739 86.8081 153.975 86.2414 153.975 85.6503V33.6126C153.976 33.3205 153.919 33.0311 153.806 32.7616H153.805ZM153.478 85.6503C153.477 86.1101 153.294 86.551 152.968 86.8762C152.642 87.2014 152.2 87.3843 151.74 87.3849H110.523C110.062 87.3848 109.621 87.2021 109.295 86.8769C108.969 86.5518 108.785 86.1108 108.785 85.6508V33.6129C108.786 33.153 108.969 32.7122 109.295 32.387C109.621 32.0619 110.063 31.8789 110.523 31.8783H151.741C152.088 31.8796 152.427 31.9841 152.714 32.1784C153.002 32.3728 153.225 32.6482 153.354 32.9694C153.38 33.0335 153.402 33.0988 153.42 33.1651C153.459 33.3111 153.479 33.4617 153.479 33.6129L153.478 85.6503Z" fill="#333333"/>
<path d="M145.203 43.669H132.788C132.525 43.669 132.272 43.5646 132.086 43.3787C131.9 43.1928 131.795 42.9406 131.795 42.6778C131.795 42.4149 131.9 42.1627 132.086 41.9769C132.272 41.791 132.525 41.6865 132.788 41.6865H145.203C145.467 41.6865 145.719 41.791 145.905 41.9769C146.092 42.1627 146.196 42.4149 146.196 42.6778C146.196 42.9406 146.092 43.1928 145.905 43.3787C145.719 43.5646 145.467 43.669 145.203 43.669Z" fill="#333333"/>
<path d="M145.203 48.8731H132.788C132.525 48.8731 132.272 48.7687 132.086 48.5828C131.9 48.3969 131.795 48.1447 131.795 47.8819C131.795 47.619 131.9 47.3668 132.086 47.1809C132.272 46.9951 132.525 46.8906 132.788 46.8906H145.203C145.467 46.8906 145.719 46.9951 145.905 47.1809C146.092 47.3668 146.196 47.619 146.196 47.8819C146.196 48.1447 146.092 48.3969 145.905 48.5828C145.719 48.7687 145.467 48.8731 145.203 48.8731Z" fill="#333333"/>
<path d="M126.419 51.8354H117.346C117.05 51.835 116.766 51.7174 116.556 51.5084C116.347 51.2993 116.229 51.0158 116.229 50.7202V40.0351C116.229 39.7394 116.347 39.456 116.556 39.2469C116.766 39.0378 117.05 38.9202 117.346 38.9199H126.419C126.715 38.9202 126.999 39.0378 127.209 39.2469C127.418 39.456 127.536 39.7394 127.536 40.0351V50.7202C127.536 51.0158 127.418 51.2993 127.209 51.5084C126.999 51.7174 126.715 51.835 126.419 51.8354Z" fill="#058B94"/>
<path d="M145.117 59.5284H117.06C116.796 59.5284 116.544 59.4239 116.357 59.238C116.171 59.0521 116.066 58.8 116.066 58.5371C116.066 58.2742 116.171 58.0221 116.357 57.8362C116.544 57.6503 116.796 57.5459 117.06 57.5459H145.117C145.381 57.5459 145.633 57.6503 145.82 57.8362C146.006 58.0221 146.111 58.2742 146.111 58.5371C146.111 58.8 146.006 59.0521 145.82 59.238C145.633 59.4239 145.381 59.5284 145.117 59.5284Z" fill="#E6E6E6"/>
<path d="M145.116 64.7325H117.058C116.795 64.7332 116.542 64.6295 116.355 64.4441C116.169 64.2587 116.063 64.0069 116.063 63.744C116.062 63.4811 116.166 63.2287 116.351 63.0423C116.537 62.8559 116.79 62.7507 117.053 62.75H145.116C145.38 62.75 145.632 62.8544 145.819 63.0403C146.005 63.2262 146.109 63.4783 146.109 63.7412C146.109 64.0041 146.005 64.2563 145.819 64.4421C145.632 64.628 145.38 64.7325 145.116 64.7325Z" fill="#E6E6E6"/>
<path d="M145.117 69.9356H117.06C116.796 69.9356 116.544 69.8312 116.357 69.6453C116.171 69.4594 116.066 69.2073 116.066 68.9444C116.066 68.6815 116.171 68.4294 116.357 68.2435C116.544 68.0576 116.796 67.9531 117.06 67.9531H145.117C145.381 67.9524 145.634 68.0561 145.82 68.2415C146.007 68.4269 146.113 68.6787 146.113 68.9416C146.114 69.2045 146.01 69.4569 145.824 69.6433C145.639 69.8297 145.386 69.9349 145.123 69.9356H145.117Z" fill="#E6E6E6"/>
<path d="M145.116 75.1397H117.058C116.928 75.1401 116.799 75.1148 116.678 75.0653C116.558 75.0158 116.448 74.9431 116.355 74.8513C116.263 74.7595 116.189 74.6505 116.139 74.5303C116.089 74.4102 116.063 74.2814 116.063 74.1512C116.062 74.021 116.087 73.8921 116.137 73.7717C116.187 73.6513 116.259 73.5418 116.351 73.4495C116.443 73.3572 116.553 73.2839 116.673 73.2337C116.793 73.1836 116.923 73.1576 117.053 73.1572H145.116C145.38 73.1572 145.632 73.2617 145.819 73.4475C146.005 73.6334 146.109 73.8856 146.109 74.1485C146.109 74.4114 146.005 74.6635 145.819 74.8494C145.632 75.0353 145.38 75.1397 145.116 75.1397Z" fill="#E6E6E6"/>
<path d="M145.116 80.3438H117.058C116.795 80.3445 116.542 80.2408 116.355 80.0554C116.169 79.87 116.063 79.6182 116.063 79.3553C116.062 79.0924 116.166 78.84 116.351 78.6536C116.537 78.4672 116.79 78.3621 117.053 78.3613H145.116C145.38 78.3613 145.632 78.4658 145.819 78.6516C146.005 78.8375 146.109 79.0897 146.109 79.3526C146.109 79.6155 146.005 79.8676 145.819 80.0535C145.632 80.2394 145.38 80.3438 145.116 80.3438Z" fill="#E6E6E6"/>
<path d="M158.956 43.5642C167.817 43.5642 175 36.3956 175 27.5526C175 18.7097 167.817 11.541 158.956 11.541C150.095 11.541 142.912 18.7097 142.912 27.5526C142.912 36.3956 150.095 43.5642 158.956 43.5642Z" fill="#058B94"/>
<path d="M161.483 28.0834V19.25H156.925V28.0834H154.797L157 31.892L159.204 35.7013L161.408 31.892L163.612 28.0828L161.483 28.0834Z" fill="white"/>
<path d="M164.921 159.5H51.7229C51.6441 159.5 51.5685 159.469 51.5128 159.413C51.4571 159.358 51.4258 159.282 51.4258 159.204C51.4258 159.125 51.4571 159.05 51.5128 158.994C51.5685 158.938 51.6441 158.907 51.7229 158.907H164.921C165 158.907 165.075 158.938 165.131 158.994C165.187 159.05 165.218 159.125 165.218 159.204C165.218 159.282 165.187 159.358 165.131 159.413C165.075 159.469 165 159.5 164.921 159.5Z" fill="#E6E6E6"/>
<path d="M155.249 156.863C152.397 158.914 148.701 159.017 145.129 158.765C144.63 158.73 144.135 158.689 143.643 158.644H143.633C143.61 158.642 143.586 158.64 143.564 158.638L143.261 158.609L143.284 158.654L143.359 158.794C143.332 158.747 143.305 158.701 143.278 158.654C143.271 158.64 143.262 158.626 143.254 158.612C142.329 157.004 141.412 155.338 141.177 153.503C140.934 151.598 141.615 149.441 143.295 148.505C143.515 148.382 143.748 148.285 143.99 148.214C144.091 148.184 144.192 148.158 144.296 148.137C144.926 147.997 145.582 148.027 146.196 148.225C146.811 148.422 147.362 148.779 147.792 149.259C148.222 149.739 148.517 150.325 148.645 150.956C148.773 151.588 148.73 152.242 148.521 152.851C149.946 151.394 149.68 149.029 149.189 147.053C148.697 145.077 148.1 142.878 149.102 141.103C149.385 140.627 149.766 140.216 150.22 139.898C150.674 139.579 151.191 139.36 151.736 139.255C151.769 139.248 151.803 139.24 151.837 139.234C153.145 138.97 154.506 139.208 155.646 139.901C157.747 141.221 158.825 143.726 159.175 146.179C159.74 150.126 158.491 154.532 155.249 156.863Z" fill="#F2F2F2"/>
</g>
<defs>
<clipPath id="clip0_3671_32461">
<rect width="130" height="152" fill="white" transform="translate(45 7.5)"/>
</clipPath>
</defs>
</svg>
