<svg width="180" height="162" viewBox="0 0 180 162" fill="none" xmlns="http://www.w3.org/2000/svg">
<g clip-path="url(#clip0_3353_45340)">
<path d="M111.838 94.0575H45.9058C43.67 94.055 41.5264 93.1727 39.9455 91.6041C38.3645 90.0355 37.4752 87.9088 37.4727 85.6906V8.86693C37.4752 6.64865 38.3645 4.52194 39.9455 2.95338C41.5264 1.38482 43.67 0.502506 45.9058 0.5H107.245L120.271 10.8012V85.6906C120.268 87.9088 119.379 90.0355 117.798 91.6041C116.217 93.1727 114.074 94.055 111.838 94.0575Z" fill="#E6E6E6"/>
<path d="M45.9039 2.9082C44.3117 2.90998 42.7852 3.5383 41.6594 4.65531C40.5335 5.77231 39.9002 7.28679 39.8984 8.86647V85.6901C39.9002 87.2698 40.5335 88.7842 41.6594 89.9013C42.7852 91.0183 44.3117 91.6466 45.9039 91.6484H111.836C113.428 91.6466 114.955 91.0183 116.08 89.9013C117.206 88.7842 117.839 87.2698 117.841 85.6901V11.9611L106.394 2.9082H45.9039Z" fill="white"/>
<path d="M99.0121 25.2476H68.9942C68.8098 25.2476 68.6272 25.2115 68.4568 25.1415C68.2864 25.0715 68.1316 24.9689 68.0012 24.8395C67.8708 24.7101 67.7673 24.5565 67.6967 24.3875C67.6262 24.2184 67.5898 24.0372 67.5898 23.8543C67.5898 23.6713 67.6262 23.4901 67.6967 23.3211C67.7673 23.152 67.8708 22.9984 68.0012 22.869C68.1316 22.7396 68.2864 22.637 68.4568 22.567C68.6272 22.497 68.8098 22.4609 68.9942 22.4609H99.0121C99.1965 22.4609 99.3791 22.497 99.5495 22.567C99.7199 22.637 99.8747 22.7396 100.005 22.869C100.136 22.9984 100.239 23.152 100.31 23.3211C100.38 23.4901 100.416 23.6713 100.416 23.8543C100.416 24.0372 100.38 24.2184 100.31 24.3875C100.239 24.5565 100.136 24.7101 100.005 24.8395C99.8747 24.9689 99.7199 25.0715 99.5495 25.1415C99.3791 25.2115 99.1965 25.2476 99.0121 25.2476Z" fill="#CCCCCC"/>
<path d="M104.805 29.9507H68.9942C68.6217 29.9507 68.2645 29.8039 68.0012 29.5426C67.7378 29.2813 67.5898 28.9269 67.5898 28.5574C67.5898 28.1879 67.7378 27.8335 68.0012 27.5722C68.2645 27.3109 68.6217 27.1641 68.9942 27.1641H104.805C105.177 27.1641 105.535 27.3109 105.798 27.5722C106.061 27.8335 106.209 28.1879 106.209 28.5574C106.209 28.9269 106.061 29.2813 105.798 29.5426C105.535 29.8039 105.177 29.9507 104.805 29.9507Z" fill="#CCCCCC"/>
<path d="M99.0121 46.3218H68.9942C68.6217 46.3218 68.2645 46.175 68.0012 45.9137C67.7378 45.6524 67.5898 45.298 67.5898 44.9285C67.5898 44.5589 67.7378 44.2045 68.0012 43.9432C68.2645 43.682 68.6217 43.5352 68.9942 43.5352H99.0121C99.3846 43.5352 99.7418 43.682 100.005 43.9432C100.269 44.2045 100.416 44.5589 100.416 44.9285C100.416 45.298 100.269 45.6524 100.005 45.9137C99.7418 46.175 99.3846 46.3218 99.0121 46.3218Z" fill="#CCCCCC"/>
<path d="M104.805 51.023H68.9942C68.6217 51.023 68.2645 50.8762 68.0012 50.6149C67.7378 50.3536 67.5898 49.9992 67.5898 49.6296C67.5898 49.2601 67.7378 48.9057 68.0012 48.6444C68.2645 48.3831 68.6217 48.2363 68.9942 48.2363H104.805C105.177 48.2363 105.535 48.3831 105.798 48.6444C106.061 48.9057 106.209 49.2601 106.209 49.6296C106.209 49.9992 106.061 50.3536 105.798 50.6149C105.535 50.8762 105.177 51.023 104.805 51.023Z" fill="#CCCCCC"/>
<path d="M99.0121 67.396H68.9942C68.6217 67.396 68.2645 67.2492 68.0012 66.9879C67.7378 66.7266 67.5898 66.3722 67.5898 66.0027C67.5898 65.6332 67.7378 65.2788 68.0012 65.0175C68.2645 64.7562 68.6217 64.6094 68.9942 64.6094H99.0121C99.3846 64.6094 99.7418 64.7562 100.005 65.0175C100.269 65.2788 100.416 65.6332 100.416 66.0027C100.416 66.3722 100.269 66.7266 100.005 66.9879C99.7418 67.2492 99.3846 67.396 99.0121 67.396Z" fill="#CCCCCC"/>
<path d="M104.805 72.0972H68.9942C68.6217 72.0972 68.2645 71.9504 68.0012 71.6891C67.7378 71.4278 67.5898 71.0734 67.5898 70.7039C67.5898 70.3343 67.7378 69.9799 68.0012 69.7186C68.2645 69.4573 68.6217 69.3105 68.9942 69.3105H104.805C105.177 69.3105 105.535 69.4573 105.798 69.7186C106.061 69.9799 106.209 70.3343 106.209 70.7039C106.209 71.0734 106.061 71.4278 105.798 71.6891C105.535 71.9504 105.177 72.0972 104.805 72.0972Z" fill="#CCCCCC"/>
<path d="M56.4948 31.1285C59.2362 31.1285 61.4584 28.9237 61.4584 26.2039C61.4584 23.4841 59.2362 21.2793 56.4948 21.2793C53.7535 21.2793 51.5312 23.4841 51.5312 26.2039C51.5312 28.9237 53.7535 31.1285 56.4948 31.1285Z" fill="#06B9C6"/>
<path d="M56.0047 28.0833C55.893 28.0835 55.7843 28.0476 55.695 27.9812L55.6895 27.9771L54.5229 27.0917C54.414 27.0087 54.3427 26.8861 54.3247 26.7509C54.3068 26.6158 54.3437 26.4791 54.4273 26.3709C54.5109 26.2627 54.6344 26.1919 54.7706 26.174C54.9068 26.156 55.0446 26.1925 55.1537 26.2754L55.9093 26.8502L57.6948 24.5392C57.7362 24.4856 57.7878 24.4407 57.8467 24.4069C57.9056 24.3731 57.9707 24.3512 58.0381 24.3423C58.1056 24.3335 58.1742 24.3379 58.2399 24.3554C58.3056 24.3728 58.3673 24.4029 58.4213 24.444L58.4214 24.4441L58.4103 24.4594L58.4217 24.4441C58.5307 24.5272 58.6019 24.6497 58.6199 24.7849C58.6379 24.9201 58.6011 25.0568 58.5176 25.165L56.4175 27.8821C56.3689 27.9447 56.3064 27.9954 56.2349 28.0302C56.1634 28.0649 56.0848 28.0829 56.0052 28.0827L56.0047 28.0833Z" fill="white"/>
<path d="M57.0066 52.2027C59.7479 52.2027 61.9702 49.9979 61.9702 47.2781C61.9702 44.5583 59.7479 42.3535 57.0066 42.3535C54.2652 42.3535 52.043 44.5583 52.043 47.2781C52.043 49.9979 54.2652 52.2027 57.0066 52.2027Z" fill="#CCCCCC"/>
<path d="M56.4948 73.277C59.2362 73.277 61.4584 71.0721 61.4584 68.3523C61.4584 65.6326 59.2362 63.4277 56.4948 63.4277C53.7535 63.4277 51.5312 65.6326 51.5312 68.3523C51.5312 71.0721 53.7535 73.277 56.4948 73.277Z" fill="#CCCCCC"/>
<path d="M120.016 11.1334H109.813C109.068 11.1334 108.353 10.8398 107.827 10.3172C107.3 9.79458 107.004 9.08579 107.004 8.34672V0.86948C107.004 0.836744 107.013 0.804668 107.031 0.776936C107.048 0.749203 107.073 0.726935 107.103 0.712683C107.133 0.698432 107.166 0.692774 107.199 0.696361C107.231 0.699947 107.263 0.712632 107.288 0.732959L120.125 10.8227C120.154 10.8451 120.175 10.8758 120.185 10.9106C120.195 10.9453 120.194 10.9823 120.182 11.0164C120.17 11.0506 120.148 11.0802 120.118 11.1012C120.088 11.1221 120.053 11.1334 120.016 11.1334Z" fill="#E6E6E6"/>
<path d="M50.942 108.453L11.9333 116.61C10.806 116.845 9.63103 116.626 8.66612 116.002C7.70121 115.378 7.02518 114.4 6.78636 113.282L0.0925228 81.7741C-0.143768 80.6556 0.0767526 79.4899 0.705705 78.5325C1.33466 77.5752 2.32068 76.9045 3.44744 76.6675L42.4562 68.5098C43.5834 68.2753 44.7584 68.4941 45.7234 69.1181C46.6883 69.7421 47.3643 70.7204 47.6031 71.8383L54.297 103.346C54.5333 104.464 54.3127 105.63 53.6838 106.588C53.0548 107.545 52.0688 108.216 50.942 108.453Z" fill="white"/>
<path d="M50.942 108.453L11.9333 116.61C10.806 116.845 9.63103 116.626 8.66612 116.002C7.70121 115.378 7.02518 114.4 6.78636 113.282L0.0925228 81.7741C-0.143768 80.6556 0.0767526 79.4899 0.705705 78.5325C1.33466 77.5752 2.32068 76.9045 3.44744 76.6675L42.4562 68.5098C43.5834 68.2753 44.7584 68.4941 45.7234 69.1181C46.6883 69.7421 47.3643 70.7204 47.6031 71.8383L54.297 103.346C54.5333 104.464 54.3127 105.63 53.6838 106.588C53.0548 107.545 52.0688 108.216 50.942 108.453ZM3.55286 77.1637C2.55866 77.3728 1.68864 77.9646 1.13369 78.8093C0.578729 79.654 0.384146 80.6826 0.592631 81.6695L7.28647 113.177C7.4972 114.164 8.0937 115.027 8.94509 115.577C9.79648 116.128 10.8332 116.321 11.8279 116.114L50.8366 107.956C51.8308 107.747 52.7008 107.156 53.2558 106.311C53.8108 105.466 54.0053 104.437 53.7969 103.451L47.103 71.9429C46.8923 70.9566 46.2958 70.0934 45.4444 69.5428C44.593 68.9922 43.5562 68.7991 42.5616 69.006L3.55286 77.1637Z" fill="#3F3D56"/>
<path d="M40.0314 78.8986L20.3442 83.0157C20.1719 83.0554 19.9909 83.0287 19.8377 82.941C19.6845 82.8533 19.5706 82.7112 19.5189 82.5434C19.4953 82.4558 19.49 82.3645 19.5031 82.2748C19.5163 82.1852 19.5477 82.0991 19.5955 82.0219C19.6433 81.9447 19.7064 81.8779 19.7811 81.8258C19.8557 81.7736 19.9403 81.737 20.0297 81.7183L40.07 77.5273C40.8525 77.9649 40.6052 78.7786 40.0311 78.8987L40.0314 78.8986Z" fill="#CCCCCC"/>
<path d="M40.7619 82.3244L21.0747 86.4415C20.9024 86.4812 20.7214 86.4545 20.5682 86.3668C20.415 86.2791 20.301 86.137 20.2494 85.9692C20.2258 85.8816 20.2204 85.7903 20.2336 85.7006C20.2467 85.6109 20.2782 85.5249 20.326 85.4477C20.3738 85.3705 20.4369 85.3037 20.5116 85.2515C20.5862 85.1994 20.6708 85.1628 20.7602 85.1441L40.8005 80.9531C41.583 81.3906 41.3357 82.2044 40.7616 82.3245L40.7619 82.3244Z" fill="#CCCCCC"/>
<path d="M17.2313 89.2825L11.2229 90.539C11.0267 90.5798 10.8222 90.5417 10.6542 90.4331C10.4863 90.3245 10.3686 90.1542 10.327 89.9596L8.83253 82.925C8.79137 82.7303 8.82974 82.5274 8.93922 82.3607C9.0487 82.1941 9.22035 82.0773 9.41648 82.0361L15.4248 80.7796C15.621 80.7389 15.8255 80.777 15.9935 80.8856C16.1614 80.9942 16.2791 81.1644 16.3207 81.359L17.8152 88.3936C17.8564 88.5883 17.818 88.7912 17.7085 88.9579C17.599 89.1245 17.4274 89.2413 17.2313 89.2825V89.2825Z" fill="#CCCCCC"/>
<path d="M42.1951 89.3499L12.1489 95.6333C11.9766 95.673 11.7956 95.6463 11.6424 95.5586C11.4892 95.4709 11.3753 95.3288 11.3236 95.161C11.3 95.0734 11.2946 94.9821 11.3078 94.8924C11.321 94.8027 11.3524 94.7167 11.4002 94.6395C11.448 94.5623 11.5111 94.4955 11.5858 94.4433C11.6604 94.3912 11.745 94.3546 11.8344 94.3359L42.234 87.9785C43.0165 88.416 42.7692 89.2298 42.1951 89.3499Z" fill="#CCCCCC"/>
<path d="M42.9217 92.7776L12.8754 99.0611C12.7032 99.1007 12.5221 99.074 12.3689 98.9863C12.2157 98.8986 12.1018 98.7565 12.0502 98.5887C12.0266 98.5012 12.0212 98.4098 12.0344 98.3201C12.0475 98.2305 12.079 98.1444 12.1268 98.0672C12.1745 97.99 12.2377 97.9233 12.3123 97.8711C12.387 97.8189 12.4716 97.7823 12.5609 97.7636L42.9606 91.4062C43.7431 91.8438 43.4958 92.6575 42.9217 92.7776Z" fill="#CCCCCC"/>
<path d="M43.6522 96.2034L13.6059 102.487C13.4336 102.527 13.2526 102.5 13.0994 102.412C12.9462 102.324 12.8323 102.182 12.7807 102.014C12.7571 101.927 12.7517 101.836 12.7648 101.746C12.778 101.656 12.8094 101.57 12.8572 101.493C12.905 101.416 12.9682 101.349 13.0428 101.297C13.1175 101.245 13.202 101.208 13.2914 101.189L43.6911 94.832C44.4736 95.2695 44.2262 96.0833 43.6522 96.2034Z" fill="#CCCCCC"/>
<path d="M44.3787 99.6311L14.3325 105.915C14.1602 105.954 13.9792 105.928 13.826 105.84C13.6728 105.752 13.5588 105.61 13.5072 105.442C13.4836 105.355 13.4782 105.263 13.4914 105.174C13.5046 105.084 13.536 104.998 13.5838 104.921C13.6316 104.844 13.6947 104.777 13.7694 104.725C13.844 104.672 13.9286 104.636 14.018 104.617L44.4176 98.2598C45.2001 98.6973 44.9528 99.511 44.3787 99.6311Z" fill="#CCCCCC"/>
<path d="M45.1053 103.055L15.059 109.338C14.8868 109.378 14.7057 109.351 14.5525 109.264C14.3993 109.176 14.2854 109.034 14.2338 108.866C14.2102 108.779 14.2048 108.687 14.218 108.597C14.2311 108.508 14.2626 108.422 14.3104 108.345C14.3581 108.267 14.4213 108.201 14.4959 108.148C14.5706 108.096 14.6552 108.06 14.7445 108.041L45.1442 101.684C45.9267 102.121 45.6793 102.935 45.1053 103.055Z" fill="#CCCCCC"/>
<path d="M50.4092 87.3691C50.3409 87.4919 50.2825 87.62 50.2346 87.752L37.9341 90.7804L35.7942 88.584L32.0312 91.3548L35.4386 95.6083C35.7138 95.9519 36.094 96.1976 36.522 96.3086C36.9501 96.4196 37.4028 96.3899 37.8124 96.2239L51.1596 90.8127C51.5983 91.1331 52.1249 91.3134 52.6694 91.3296C53.2139 91.3458 53.7505 91.1971 54.2078 90.9034C54.665 90.6096 55.0213 90.1847 55.2292 89.6852C55.4372 89.1856 55.4869 88.6351 55.3718 88.1069C55.2567 87.5786 54.9822 87.0976 54.5848 86.7279C54.1875 86.3582 53.6861 86.1173 53.1474 86.0372C52.6086 85.9571 52.0581 86.0416 51.569 86.2796C51.0798 86.5175 50.6753 86.8975 50.4092 87.3691L50.4092 87.3691Z" fill="#A0616A"/>
<path d="M8.42371 114.319C8.80719 114.202 9.16003 114.002 9.45739 113.735C9.75475 113.467 9.9894 113.139 10.1448 112.771C10.3002 112.404 10.3726 112.008 10.3568 111.61C10.3411 111.212 10.2376 110.822 10.0537 110.468L18.5186 87.1254L12.64 86.0918L6.16776 109.362C5.58898 109.708 5.15822 110.253 4.95712 110.893C4.75601 111.533 4.79852 112.224 5.07659 112.835C5.35467 113.446 5.84899 113.934 6.46588 114.208C7.08278 114.482 7.77939 114.521 8.42371 114.319Z" fill="#A0616A"/>
<path d="M17.4456 91.2693L11.6414 89.0592C11.4763 88.9963 11.3267 88.8988 11.203 88.7735C11.0792 88.6481 10.9842 88.4977 10.9243 88.3325C10.8644 88.1674 10.8411 87.9914 10.8559 87.8165C10.8707 87.6416 10.9234 87.472 11.0103 87.3191L14.0552 81.9628C14.3843 81.1265 15.0343 80.4537 15.8626 80.092C16.6909 79.7304 17.63 79.7093 18.4739 80.0335C19.3178 80.3576 19.9978 81.0006 20.3647 81.8213C20.7316 82.6421 20.7555 83.5737 20.4311 84.412L19.0881 90.395C19.0496 90.5663 18.9743 90.7273 18.8674 90.8671C18.7605 91.007 18.6245 91.1223 18.4686 91.2053C18.3128 91.2882 18.1407 91.3369 17.9642 91.348C17.7876 91.359 17.6108 91.3322 17.4456 91.2693V91.2693Z" fill="#06B9C6"/>
<path d="M30.5435 158.144L33.6765 158.144L35.1669 146.154L30.543 146.155L30.5435 158.144Z" fill="#A0616A"/>
<path d="M29.7461 157.129L35.916 157.129H35.9163C36.4327 157.129 36.944 157.23 37.421 157.426C37.8981 157.622 38.3315 157.909 38.6967 158.271C39.0618 158.634 39.3514 159.064 39.549 159.537C39.7466 160.01 39.8483 160.518 39.8483 161.03V161.157L29.7463 161.157L29.7461 157.129Z" fill="#333333"/>
<path d="M12.9107 158.146L16.0437 158.146L17.5341 146.156L12.9102 146.157L12.9107 158.146Z" fill="#A0616A"/>
<path d="M12.1133 157.129L18.2832 157.129H18.2835C18.7999 157.129 19.3112 157.23 19.7882 157.426C20.2653 157.622 20.6987 157.909 21.0639 158.271C21.429 158.634 21.7186 159.064 21.9162 159.537C22.1138 160.01 22.2155 160.518 22.2155 161.03V161.157L12.1135 161.157L12.1133 157.129Z" fill="#333333"/>
<path d="M16.1968 153.318H12.232C12.0764 153.318 11.9224 153.287 11.7793 153.226C11.6363 153.165 11.5072 153.076 11.3998 152.964C11.2924 152.853 11.209 152.721 11.1546 152.576C11.1002 152.431 11.0759 152.277 11.0833 152.123L12.9666 111.979L13.0852 111.976L32.2309 111.48L35.9773 151.648C35.9917 151.798 35.9758 151.95 35.9305 152.094C35.8852 152.239 35.8114 152.373 35.7134 152.489C35.6154 152.605 35.4952 152.7 35.3597 152.769C35.2242 152.839 35.0762 152.881 34.9243 152.893L30.471 153.246C30.1912 153.268 29.913 153.188 29.6886 153.021C29.4642 152.853 29.3092 152.611 29.2527 152.338L23.5564 123.744C23.5409 123.657 23.4945 123.579 23.4256 123.523C23.3567 123.467 23.2699 123.438 23.181 123.44H23.1795C23.0903 123.438 23.0033 123.468 22.9345 123.524C22.8657 123.581 22.8197 123.66 22.8048 123.747L17.3251 152.398C17.2732 152.657 17.1324 152.89 16.9267 153.058C16.721 153.226 16.4631 153.318 16.1968 153.318Z" fill="#333333"/>
<path d="M23.4563 76.1753C26.9227 76.1753 29.7328 73.3872 29.7328 69.948C29.7328 66.5088 26.9227 63.7207 23.4563 63.7207C19.9898 63.7207 17.1797 66.5088 17.1797 69.948C17.1797 73.3872 19.9898 76.1753 23.4563 76.1753Z" fill="#A0616A"/>
<path d="M21.3528 116.685C18.3613 116.685 15.2886 115.905 12.7413 113.598C12.6058 113.476 12.5011 113.324 12.4359 113.155C12.3706 112.985 12.3466 112.803 12.3658 112.622C12.6384 110.192 13.961 97.6424 13.2162 89.2596C13.0708 87.6939 13.2943 86.116 13.8688 84.6505C14.4434 83.1851 15.3534 81.8722 16.527 80.8155C17.68 79.7611 19.0642 78.9871 20.5704 78.5543C22.0766 78.1216 23.6636 78.0421 25.206 78.3221H25.2061C25.2843 78.336 25.3624 78.3506 25.4406 78.3654C30.4656 79.3303 33.9571 83.9444 33.562 89.0982C32.9855 96.6183 32.4687 106.79 33.2802 112.543C33.3138 112.778 33.2724 113.018 33.1617 113.229C33.0511 113.44 32.8767 113.611 32.6631 113.718C30.8168 114.644 26.191 116.685 21.3528 116.685Z" fill="#06B9C6"/>
<path d="M29.5462 91.7176C29.399 91.6204 29.2746 91.4928 29.1815 91.3436C29.0885 91.1943 29.029 91.0269 29.0071 90.8527L28.2425 84.7702C27.9997 83.9052 28.1126 82.98 28.5563 82.1975C29.0001 81.4149 29.7385 80.8388 30.6097 80.5956C31.4808 80.3523 32.4137 80.4617 33.2037 80.8998C33.9937 81.3379 34.5763 82.0689 34.8239 82.9325L37.3427 88.5513C37.4146 88.7117 37.4508 88.8855 37.4488 89.061C37.4469 89.2365 37.4068 89.4095 37.3314 89.5683C37.256 89.727 37.147 89.8678 37.0118 89.981C36.8766 90.0941 36.7184 90.1771 36.548 90.2241L30.5586 91.8777C30.3882 91.9249 30.2095 91.935 30.0348 91.9074C29.8601 91.8797 29.6934 91.815 29.5462 91.7176Z" fill="#06B9C6"/>
<path d="M21.2699 76.0877C20.6758 76.0987 20.0854 75.9927 19.5328 75.7759C19.2897 75.683 19.0373 75.6066 18.7946 75.5135C16.6514 74.692 15.2396 72.4274 15.1891 70.1484C15.1385 67.8694 16.328 65.6575 18.0944 64.1997C19.8608 62.742 22.1487 61.9935 24.4397 61.8205C26.9075 61.634 29.6862 62.2549 31.0652 64.2939C31.4322 64.8367 31.6889 65.4952 31.4714 66.1505C31.4063 66.3482 31.29 66.5256 31.134 66.6647C30.5182 67.2083 29.9043 66.7995 29.2765 66.7634C28.4136 66.7138 27.6386 67.4068 27.3601 68.2185C27.0815 69.0303 27.2041 69.924 27.429 70.752C27.6004 71.2502 27.7084 71.7677 27.7506 72.2925C27.7688 72.5557 27.7189 72.819 27.6057 73.0577C27.4925 73.2963 27.3197 73.5024 27.1038 73.6562C26.5646 73.9796 25.8565 73.7924 25.317 73.4696C24.7775 73.1467 24.3113 72.6979 23.7286 72.4603C23.1458 72.2227 22.3629 72.2754 22.0237 72.8022C21.9159 72.9939 21.8429 73.2029 21.8081 73.4196C21.504 74.7942 21.5739 74.7132 21.2699 76.0877V76.0877Z" fill="#333333"/>
<path d="M48.982 161.499H0.427425C0.359649 161.499 0.294649 161.473 0.246724 161.425C0.198799 161.377 0.171875 161.313 0.171875 161.246C0.171875 161.178 0.198799 161.114 0.246724 161.066C0.294649 161.019 0.359649 160.992 0.427425 160.992H48.982C49.0498 160.992 49.1148 161.019 49.1627 161.066C49.2106 161.114 49.2375 161.178 49.2375 161.246C49.2375 161.313 49.2106 161.377 49.1627 161.425C49.1148 161.473 49.0498 161.499 48.982 161.499Z" fill="#CCCCCC"/>
<path d="M173.267 109.175L138.498 128.525C137.492 129.083 136.305 129.222 135.196 128.913C134.088 128.603 133.148 127.87 132.583 126.874L116.706 98.7903C116.144 97.793 116.003 96.6151 116.315 95.5151C116.627 94.415 117.366 93.4826 118.37 92.9225L153.139 73.5727C154.144 73.0148 155.332 72.8752 156.44 73.1847C157.549 73.4941 158.489 74.2273 159.053 75.2233L174.931 103.307C175.493 104.304 175.634 105.482 175.322 106.582C175.01 107.682 174.271 108.615 173.267 109.175Z" fill="white"/>
<path d="M173.267 109.175L138.498 128.525C137.492 129.083 136.305 129.222 135.196 128.913C134.088 128.603 133.148 127.87 132.583 126.874L116.706 98.7903C116.144 97.793 116.003 96.6151 116.315 95.5151C116.627 94.415 117.366 93.4826 118.37 92.9225L153.139 73.5727C154.144 73.0148 155.332 72.8752 156.44 73.1847C157.549 73.4941 158.489 74.2273 159.053 75.2233L174.931 103.307C175.493 104.304 175.634 105.482 175.322 106.582C175.01 107.682 174.271 108.615 173.267 109.175ZM118.62 93.3647C117.734 93.859 117.082 94.6817 116.807 95.6523C116.531 96.623 116.656 97.6623 117.152 98.5422L133.029 126.626C133.527 127.505 134.357 128.152 135.335 128.425C136.313 128.698 137.361 128.575 138.248 128.082L173.017 108.733C173.903 108.238 174.555 107.416 174.83 106.445C175.105 105.474 174.981 104.435 174.485 103.555L158.608 75.4714C158.11 74.5925 157.28 73.9456 156.302 73.6726C155.324 73.3996 154.276 73.5227 153.389 74.015L118.62 93.3647Z" fill="#3F3D56"/>
<path d="M153.953 84.2068L136.405 93.9724C136.253 94.0613 136.072 94.0895 135.899 94.0512C135.727 94.013 135.575 93.9111 135.476 93.7663C135.427 93.6897 135.394 93.6041 135.38 93.5147C135.365 93.4252 135.369 93.3337 135.392 93.2459C135.414 93.158 135.454 93.0756 135.51 93.0037C135.565 92.9318 135.635 92.8718 135.714 92.8275L153.577 82.8867C154.455 83.0723 154.465 83.9222 153.953 84.2069L153.953 84.2068Z" fill="#CCCCCC"/>
<path d="M155.68 87.2615L138.132 97.0271C137.979 97.116 137.799 97.1442 137.626 97.1059C137.453 97.0677 137.302 96.9658 137.202 96.8209C137.153 96.7444 137.121 96.6588 137.106 96.5693C137.092 96.4799 137.096 96.3884 137.118 96.3006C137.14 96.2127 137.181 96.1303 137.236 96.0584C137.292 95.9864 137.361 95.9265 137.441 95.8822L155.304 85.9414C156.182 86.1269 156.191 86.9769 155.679 87.2616L155.68 87.2615Z" fill="#CCCCCC"/>
<path d="M135.323 100.876L129.968 103.856C129.793 103.953 129.586 103.977 129.393 103.923C129.2 103.87 129.036 103.742 128.938 103.569L125.393 97.2984C125.295 97.1248 125.271 96.9198 125.325 96.7283C125.379 96.5369 125.508 96.3746 125.683 96.2771L131.038 93.2967C131.213 93.1997 131.42 93.1754 131.613 93.2292C131.806 93.2831 131.969 93.4107 132.068 93.584L135.613 99.8542C135.711 100.028 135.735 100.233 135.681 100.424C135.626 100.616 135.498 100.778 135.323 100.876L135.323 100.876Z" fill="#CCCCCC"/>
<path d="M159.163 93.5429L132.382 108.447C132.229 108.536 132.049 108.564 131.876 108.526C131.703 108.487 131.552 108.386 131.452 108.241C131.403 108.164 131.371 108.079 131.356 107.989C131.342 107.9 131.346 107.808 131.368 107.72C131.39 107.633 131.431 107.55 131.486 107.478C131.542 107.406 131.611 107.346 131.691 107.302L158.787 92.2227C159.666 92.4082 159.675 93.2581 159.163 93.5429Z" fill="#CCCCCC"/>
<path d="M160.893 96.5976L134.112 111.502C133.96 111.591 133.779 111.619 133.607 111.58C133.434 111.542 133.282 111.44 133.183 111.295C133.134 111.219 133.101 111.133 133.087 111.044C133.072 110.954 133.076 110.863 133.099 110.775C133.121 110.687 133.161 110.605 133.217 110.533C133.272 110.461 133.342 110.401 133.421 110.357L160.518 95.2773C161.396 95.4629 161.405 96.3128 160.893 96.5975V96.5976Z" fill="#CCCCCC"/>
<path d="M162.62 99.6503L135.839 114.554C135.686 114.643 135.506 114.671 135.333 114.633C135.16 114.595 135.009 114.493 134.909 114.348C134.86 114.272 134.828 114.186 134.813 114.097C134.799 114.007 134.803 113.916 134.825 113.828C134.847 113.74 134.888 113.658 134.943 113.586C134.999 113.514 135.068 113.454 135.148 113.409L162.244 98.3301C163.123 98.5156 163.132 99.3655 162.62 99.6503Z" fill="#CCCCCC"/>
<path d="M164.347 102.703L137.566 117.607C137.413 117.696 137.232 117.724 137.06 117.686C136.887 117.648 136.736 117.546 136.636 117.401C136.587 117.324 136.554 117.239 136.54 117.149C136.525 117.06 136.529 116.968 136.552 116.881C136.574 116.793 136.614 116.71 136.67 116.638C136.725 116.566 136.795 116.506 136.875 116.462L163.971 101.383C164.849 101.568 164.858 102.418 164.347 102.703H164.347Z" fill="#CCCCCC"/>
<path d="M166.069 105.756L139.288 120.66C139.136 120.749 138.955 120.777 138.782 120.739C138.61 120.7 138.458 120.599 138.358 120.454C138.309 120.377 138.277 120.292 138.262 120.202C138.248 120.113 138.252 120.021 138.274 119.933C138.297 119.845 138.337 119.763 138.392 119.691C138.448 119.619 138.518 119.559 138.597 119.515L165.693 104.436C166.572 104.621 166.581 105.471 166.069 105.756V105.756Z" fill="#CCCCCC"/>
<path d="M161.398 117.196C161.544 116.877 161.618 116.53 161.614 116.18C161.61 115.829 161.528 115.484 161.375 115.168C161.222 114.852 161.001 114.574 160.728 114.352C160.455 114.13 160.136 113.97 159.793 113.884L159.065 105.396L155.562 108.138L156.791 115.777C156.683 116.357 156.793 116.957 157.101 117.462C157.408 117.967 157.892 118.342 158.459 118.517C159.027 118.692 159.64 118.654 160.182 118.411C160.724 118.167 161.156 117.735 161.398 117.196Z" fill="#FFCCCF"/>
<path d="M159.131 112.995L156.222 113.339C156.074 113.356 155.924 113.343 155.782 113.301C155.639 113.258 155.507 113.187 155.394 113.091C155.28 112.995 155.188 112.878 155.122 112.745C155.057 112.612 155.02 112.468 155.014 112.32L154.589 102.583L149.075 87.6381C148.854 87.1744 148.753 86.6632 148.782 86.151C148.811 85.6389 148.968 85.1419 149.239 84.7052C149.374 84.4943 149.529 84.2962 149.701 84.1137C150.041 83.7512 150.463 83.4754 150.933 83.3098C151.403 83.1442 151.906 83.0938 152.4 83.1628C152.909 83.23 153.394 83.4166 153.816 83.7072C154.237 83.9978 154.583 84.3839 154.824 84.8336L158.42 92.3098C159.924 95.4368 160.634 98.8814 160.488 102.343L160.083 111.975C160.072 112.227 159.972 112.467 159.801 112.653C159.629 112.839 159.397 112.96 159.145 112.993L159.131 112.995Z" fill="#06B9C6"/>
<path d="M169.461 155.075L166.764 156.25L160.914 146.487L164.895 144.754L169.461 155.075Z" fill="#FFCCCF"/>
<path d="M171.299 157.37L162.602 161.157L162.554 161.048C162.359 160.607 162.253 160.132 162.243 159.651C162.233 159.169 162.318 158.69 162.495 158.242C162.671 157.793 162.935 157.383 163.271 157.035C163.607 156.688 164.008 156.409 164.453 156.216L164.453 156.215L169.765 153.902L171.299 157.37Z" fill="#333333"/>
<path d="M133.253 158.325H130.307L128.906 147.053L133.253 147.053L133.253 158.325Z" fill="#FFCCCF"/>
<path d="M134.005 161.158L124.508 161.158V161.039C124.508 160.557 124.603 160.08 124.789 159.635C124.975 159.19 125.247 158.786 125.591 158.445C125.934 158.105 126.341 157.835 126.79 157.65C127.238 157.466 127.719 157.371 128.204 157.371H128.205L134.005 157.371L134.005 161.158Z" fill="#333333"/>
<path d="M161.93 154.471L145.522 118.143C145.493 118.075 145.442 118.018 145.379 117.979C145.315 117.941 145.24 117.923 145.166 117.928C145.091 117.933 145.02 117.961 144.962 118.008C144.905 118.055 144.863 118.119 144.844 118.191L134.846 153.28C134.78 153.525 134.628 153.739 134.417 153.884C134.206 154.028 133.95 154.092 133.695 154.066L128.235 153.524C127.954 153.495 127.695 153.358 127.514 153.142C127.333 152.927 127.244 152.65 127.265 152.37C129.001 130.94 131.739 110.713 139.941 97.4729L139.984 97.4023L152.389 99.8158L168.951 152.14C169.033 152.41 169.005 152.701 168.874 152.95C168.742 153.199 168.518 153.388 168.248 153.475L163.254 155.068C162.998 155.15 162.72 155.135 162.475 155.025C162.23 154.914 162.036 154.717 161.93 154.471Z" fill="#333333"/>
<path d="M145.979 78.8632C149.238 78.8632 151.88 76.2421 151.88 73.0088C151.88 69.7754 149.238 67.1543 145.979 67.1543C142.72 67.1543 140.078 69.7754 140.078 73.0088C140.078 76.2421 142.72 78.8632 145.979 78.8632Z" fill="#FFCCCF"/>
<path d="M139.176 98.4864L139.101 98.4711L139.083 98.397C138.288 95.0667 138.269 91.4321 139.027 87.5948C139.411 85.6334 140.481 83.8696 142.047 82.6139C143.614 81.3581 145.577 80.6911 147.59 80.7301C149.775 80.7741 151.86 81.6447 153.419 83.1638C154.978 84.6829 155.893 86.7356 155.977 88.902C156.23 95.5022 153.511 101.224 153.484 101.281L153.443 101.365L139.176 98.4864Z" fill="#06B9C6"/>
<path d="M123.358 109.625C123.708 109.574 124.042 109.447 124.336 109.254C124.631 109.061 124.879 108.806 125.064 108.507C125.249 108.209 125.365 107.873 125.405 107.525C125.445 107.177 125.408 106.825 125.296 106.492L132.092 101.288L127.873 99.8516L122.065 105.014C121.515 105.238 121.067 105.654 120.806 106.184C120.544 106.714 120.488 107.321 120.647 107.889C120.807 108.458 121.171 108.948 121.67 109.268C122.17 109.588 122.771 109.715 123.358 109.625V109.625Z" fill="#FFCCCF"/>
<path d="M127.074 105.7C126.852 105.83 126.592 105.877 126.338 105.832C126.085 105.788 125.856 105.655 125.693 105.458L123.826 103.219C123.731 103.105 123.661 102.973 123.62 102.831C123.579 102.689 123.568 102.54 123.588 102.394C123.607 102.247 123.657 102.106 123.734 101.98C123.811 101.854 123.914 101.744 124.035 101.659L132.055 96.0321L141.732 83.3385C142.005 82.903 142.383 82.5421 142.833 82.2886C143.282 82.0351 143.788 81.897 144.305 81.8868C144.557 81.8852 144.809 81.907 145.057 81.9518C145.548 82.0384 146.01 82.2415 146.405 82.5438C146.8 82.8462 147.115 83.2387 147.324 83.6881C147.543 84.1487 147.647 84.6545 147.63 85.1634C147.612 85.6723 147.472 86.1695 147.221 86.614L140.056 98.1265L140.04 98.1517L127.074 105.7Z" fill="#06B9C6"/>
<path d="M147.037 72.646C146.602 71.9362 145.642 71.7357 144.809 71.8167C143.976 71.8977 143.165 72.1882 142.328 72.1818C140.003 72.1639 138.209 69.3528 139.186 67.2601C139.988 65.5438 141.99 64.7901 143.801 64.1986C147.598 62.9585 151.959 61.7669 155.405 63.7777C156.503 64.4375 157.403 65.3761 158.013 66.4967C158.624 67.6172 158.921 68.8791 158.875 70.1518C158.798 71.7344 158.187 73.3599 158.703 74.8591C159.299 76.5887 161.189 77.5167 162.975 77.9655C166.106 78.7524 169.407 78.6257 172.557 79.3314C175.707 80.0372 178.935 81.9112 179.784 85.0026C180.342 87.0332 179.76 89.2191 178.796 91.094C177.813 93.0068 176.446 94.7003 174.78 96.0708C173.114 97.4412 171.183 98.4599 169.107 99.0642C167.03 99.6686 164.851 99.846 162.702 99.5855C160.554 99.3251 158.482 98.6322 156.613 97.5495C152.805 95.3432 150.055 91.6143 148.416 87.5523C147.487 85.1829 146.832 82.7161 146.466 80.1997C146.099 77.8441 146.41 75.4635 147.075 73.1731C147.107 73.0875 147.119 72.9963 147.113 72.9055C147.106 72.8146 147.08 72.7262 147.037 72.646Z" fill="#333333"/>
<path d="M168.322 161.499H119.767C119.699 161.499 119.634 161.473 119.587 161.425C119.539 161.377 119.512 161.313 119.512 161.246C119.512 161.178 119.539 161.114 119.587 161.066C119.634 161.019 119.699 160.992 119.767 160.992H168.322C168.39 160.992 168.455 161.019 168.503 161.066C168.55 161.114 168.577 161.178 168.577 161.246C168.577 161.313 168.55 161.377 168.503 161.425C168.455 161.473 168.39 161.499 168.322 161.499Z" fill="#CCCCCC"/>
</g>
<defs>
<clipPath id="clip0_3353_45340">
<rect width="180" height="161" fill="white" transform="translate(0 0.5)"/>
</clipPath>
</defs>
</svg>
