<svg width="220" height="166" viewBox="0 0 220 166" fill="none" xmlns="http://www.w3.org/2000/svg">
<rect width="220" height="165" transform="translate(0 0.5)" fill="white"/>
<g clip-path="url(#clip0_3671_1777)">
<path d="M132.688 39.6934H124.122V112.781C124.122 113.927 123.896 115.063 123.458 116.122C123.019 117.182 122.376 118.144 121.566 118.955C120.756 119.766 119.794 120.409 118.735 120.848C117.677 121.287 116.542 121.513 115.396 121.513H49.9023V121.596C49.9023 122.743 50.128 123.879 50.5665 124.938C51.005 125.997 51.6478 126.96 52.458 127.771C53.2683 128.582 54.2302 129.225 55.2889 129.664C56.3475 130.103 57.4822 130.328 58.628 130.328H132.688C133.834 130.328 134.969 130.103 136.028 129.664C137.086 129.225 138.048 128.582 138.858 127.771C139.669 126.96 140.311 125.997 140.75 124.938C141.188 123.879 141.414 122.743 141.414 121.596V48.4255C141.414 46.1096 140.495 43.8885 138.858 42.2509C137.222 40.6133 135.003 39.6934 132.688 39.6934Z" fill="#F2F2F2"/>
<path d="M173.297 155.841C173.449 155.848 173.599 155.808 173.727 155.727C173.855 155.646 173.956 155.527 174.014 155.387C174.073 155.246 174.087 155.092 174.054 154.943C174.022 154.795 173.945 154.66 173.834 154.557L173.783 154.355C173.79 154.339 173.796 154.323 173.803 154.306C173.956 153.945 174.212 153.637 174.539 153.421C174.866 153.205 175.25 153.091 175.641 153.092C176.033 153.094 176.416 153.211 176.741 153.43C177.067 153.648 177.321 153.958 177.471 154.32C178.071 155.766 178.834 157.214 179.022 158.743C179.105 159.419 179.07 160.104 178.919 160.767C180.328 157.692 181.06 154.349 181.064 150.965C181.065 150.116 181.018 149.268 180.923 148.424C180.845 147.733 180.737 147.046 180.599 146.364C179.844 142.664 178.222 139.196 175.868 136.246C174.728 135.623 173.807 134.667 173.227 133.504C173.017 133.086 172.869 132.64 172.787 132.18C172.915 132.197 173.272 130.237 173.175 130.117C173.354 129.845 173.674 129.71 173.87 129.445C174.843 128.124 176.184 128.355 176.883 130.149C178.379 130.904 178.393 132.156 177.476 133.361C176.892 134.127 176.812 135.164 176.3 135.984C176.352 136.052 176.407 136.117 176.46 136.184C177.423 137.424 178.262 138.754 178.966 140.158C178.795 138.586 178.999 136.996 179.562 135.518C180.132 134.141 181.201 132.981 182.143 131.791C182.392 131.471 182.73 131.232 183.114 131.105C183.499 130.977 183.913 130.967 184.303 131.075C184.694 131.182 185.044 131.404 185.309 131.71C185.574 132.017 185.742 132.395 185.792 132.798C185.794 132.815 185.796 132.833 185.797 132.85C185.658 132.929 185.521 133.013 185.387 133.102C185.218 133.214 185.088 133.375 185.013 133.563C184.937 133.751 184.92 133.957 184.964 134.155C185.008 134.353 185.11 134.532 185.258 134.671C185.406 134.809 185.592 134.9 185.792 134.931L185.812 134.934C185.762 135.438 185.674 135.938 185.549 136.429C186.757 141.103 184.149 142.806 180.426 142.882C180.344 142.924 180.264 142.967 180.181 143.007C180.888 145.012 181.332 147.1 181.501 149.219C181.596 150.47 181.59 151.726 181.484 152.975L181.49 152.931C181.76 151.542 182.5 150.288 183.587 149.382C185.2 148.055 187.48 147.567 189.221 146.501C189.406 146.382 189.621 146.318 189.841 146.318C190.061 146.317 190.276 146.38 190.462 146.497C190.647 146.615 190.795 146.784 190.888 146.983C190.981 147.183 191.015 147.405 190.986 147.623L190.979 147.669C190.72 147.775 190.467 147.897 190.223 148.034C190.083 148.113 189.946 148.197 189.812 148.285C189.644 148.398 189.513 148.559 189.438 148.747C189.363 148.935 189.346 149.141 189.389 149.339C189.433 149.536 189.536 149.716 189.683 149.855C189.831 149.993 190.017 150.084 190.217 150.115L190.238 150.118C190.252 150.12 190.265 150.122 190.28 150.124C189.836 151.183 189.214 152.159 188.44 153.007C187.685 157.087 184.441 157.474 180.972 156.286H180.97C180.589 157.942 180.037 159.553 179.324 161.094H173.444C173.423 161.029 173.404 160.961 173.385 160.896C173.93 160.93 174.476 160.898 175.012 160.799C174.576 160.263 174.14 159.724 173.704 159.188C173.694 159.178 173.685 159.167 173.676 159.156C173.455 158.882 173.231 158.61 173.01 158.336L173.01 158.336C172.998 157.495 173.095 156.657 173.297 155.841L173.297 155.841Z" fill="#F2F2F2"/>
<path d="M108.54 29.7521C108.754 30.0776 109.037 30.3525 109.368 30.5578C109.7 30.7632 110.071 30.8941 110.458 30.9415C110.845 30.9888 111.237 30.9516 111.608 30.8322C111.979 30.7129 112.32 30.5143 112.607 30.2503L124.83 35.7692L127.187 32.761L112.621 26.3124C112.141 25.8624 111.513 25.6043 110.855 25.5869C110.198 25.5695 109.557 25.7941 109.054 26.2181C108.551 26.6421 108.22 27.236 108.126 27.8874C108.031 28.5387 108.178 29.2022 108.54 29.7521H108.54Z" fill="#A0616A"/>
<path d="M160.999 33.1932L162.212 40.0682C162.268 40.389 162.257 40.718 162.179 41.0342C162.101 41.3504 161.958 41.6468 161.759 41.9043C161.559 42.1619 161.308 42.3748 161.022 42.5296C160.736 42.6844 160.42 42.7776 160.096 42.8031L139.496 44.4242L115.281 33.5791L118.173 28.085L139.194 34.7464L160.999 33.1932Z" fill="#058B94"/>
<path d="M112.786 28.2656H38.7257C33.9066 28.2656 30 32.1751 30 36.9977V110.169C30 114.991 33.9066 118.901 38.7257 118.901H112.786C117.605 118.901 121.512 114.991 121.512 110.169V36.9977C121.512 32.1751 117.605 28.2656 112.786 28.2656Z" fill="#F2F2F2"/>
<path d="M38.7262 30.0615C37.816 30.0615 36.9146 30.2409 36.0737 30.5895C35.2328 30.9381 34.4687 31.449 33.825 32.0931C33.1814 32.7372 32.6709 33.5019 32.3225 34.3434C31.9742 35.185 31.7949 36.087 31.7949 36.9979V110.169C31.7949 112.008 32.5252 113.773 33.825 115.074C35.1249 116.374 36.8879 117.105 38.7262 117.105H85.9933C90.422 117.105 94.8074 116.232 98.899 114.536C102.991 112.84 106.708 110.354 109.84 107.22C112.972 104.086 115.456 100.366 117.151 96.2712C118.845 92.1766 119.718 87.788 119.718 83.356V36.9979C119.718 36.087 119.538 35.185 119.19 34.3434C118.842 33.5019 118.331 32.7372 117.688 32.0931C117.044 31.449 116.28 30.9381 115.439 30.5895C114.598 30.2409 113.697 30.0615 112.786 30.0615H38.7262Z" fill="white"/>
<path d="M96.4598 52.2672H54.8913C54.5099 52.2672 54.1441 52.1155 53.8744 51.8456C53.6046 51.5757 53.4531 51.2096 53.4531 50.8279C53.4531 50.4462 53.6046 50.0801 53.8744 49.8102C54.1441 49.5403 54.5099 49.3887 54.8913 49.3887H96.4598C96.8412 49.3887 97.207 49.5403 97.4768 49.8102C97.7465 50.0801 97.898 50.4462 97.898 50.8279C97.898 51.2096 97.7465 51.5757 97.4768 51.8456C97.207 52.1155 96.8412 52.2672 96.4598 52.2672Z" fill="#F2F2F2"/>
<path d="M96.4598 82.9595H54.8913C54.5099 82.9595 54.1441 82.8079 53.8744 82.538C53.6046 82.2681 53.4531 81.902 53.4531 81.5203C53.4531 81.1386 53.6046 80.7725 53.8744 80.5026C54.1441 80.2327 54.5099 80.0811 54.8913 80.0811H96.4598C96.8412 80.0811 97.207 80.2327 97.4768 80.5026C97.7465 80.7725 97.898 81.1386 97.898 81.5203C97.898 81.902 97.7465 82.2681 97.4768 82.538C97.207 82.8079 96.8412 82.9595 96.4598 82.9595Z" fill="#F2F2F2"/>
<path d="M113.339 67.6236H38.0105C37.629 67.6236 37.2632 67.472 36.9935 67.2021C36.7238 66.9322 36.5723 66.5661 36.5723 66.1844C36.5723 65.8027 36.7238 65.4366 36.9935 65.1667C37.2632 64.8968 37.629 64.7451 38.0105 64.7451H113.339C113.721 64.7451 114.086 64.8968 114.356 65.1667C114.626 65.4366 114.777 65.8027 114.777 66.1844C114.777 66.5661 114.626 66.9322 114.356 67.2021C114.086 67.472 113.721 67.6236 113.339 67.6236Z" fill="#F2F2F2"/>
<path d="M158.397 63.4955L150.893 79.4943L179.76 76.5685L173.734 61.21L158.397 63.4955Z" fill="#A0616A"/>
<path d="M165.107 155.45L162.37 155.427L161.158 144.616L165.197 144.65L165.107 155.45Z" fill="#A0616A"/>
<path d="M156.34 159.806C156.337 160.13 156.464 160.443 156.691 160.674C156.919 160.906 157.229 161.038 157.553 161.041L162.995 161.086L163.947 159.154L164.297 161.096L166.351 161.115L165.832 154.188L165.118 154.14L162.204 153.939L161.264 153.876L161.247 155.836L156.876 158.803C156.712 158.914 156.578 159.064 156.485 159.238C156.391 159.413 156.342 159.608 156.34 159.806Z" fill="#2F2E41"/>
<path d="M134.818 155.463L132.209 154.636L134.225 143.946L138.076 145.166L134.818 155.463Z" fill="#A0616A"/>
<path d="M125.16 157.048C125.063 157.358 125.092 157.694 125.241 157.982C125.391 158.27 125.648 158.487 125.957 158.586L131.145 160.229L132.623 158.662L132.388 160.622L134.345 161.243L135.883 154.469L135.214 154.214L132.488 153.165L131.608 152.828L131.017 154.697L125.967 156.248C125.778 156.306 125.606 156.409 125.465 156.549C125.325 156.688 125.22 156.86 125.16 157.048Z" fill="#2F2E41"/>
<path d="M178.445 72.0693L152.198 76.8823C152.198 76.8823 147.988 80.0337 149.114 81.1623C150.24 82.291 150.415 82.1161 149.675 82.8566C148.935 83.597 147.335 84.5868 147.32 85.2347C147.304 85.8825 135.558 114.942 135.558 114.942C135.558 114.942 136.863 114.289 135.884 115.268C134.906 116.248 134.906 117.057 134.906 117.057L130.338 147.919L137.756 148.356L145.02 120.22L161.222 93.9347C161.222 93.9347 162.83 117.374 162.897 118.933C162.965 120.492 163.943 118.533 162.965 120.492C161.986 122.451 161.333 121.145 161.986 122.451C162.638 123.757 159.635 150.346 159.635 150.346H166.406L180.928 95.2348C180.928 95.2348 186.095 79.4791 178.445 72.0693Z" fill="#035D63"/>
<path d="M170.712 27.9878L160.198 26.8945L157.474 30.4336L154.3 32.125C152.958 32.8408 151.849 33.9285 151.108 35.2581C150.366 36.5876 150.023 38.1028 150.119 39.6224L153.828 61.2106C153.828 61.2106 150.695 68.2694 152.849 70.0263C155.003 71.7832 151.184 76.1343 155.786 73.9444C160.387 71.7545 180.256 74.2709 180.256 74.2709L176.014 62.1902L179.183 50.3192L179.531 40.3655C179.596 38.5056 179.045 36.6762 177.963 35.1627C176.88 33.6492 175.328 32.5366 173.548 31.9982L173.105 31.8642L170.712 27.9878Z" fill="#058B94"/>
<path d="M185.188 19.9211C185.256 22.8867 184.149 25.7584 182.558 28.2806C182.085 26.8082 181.235 25.468 180.349 24.1905C180.796 26.9541 180.32 29.7881 178.995 32.2538C178.948 32.2872 178.9 32.3183 178.85 32.3468C177.553 33.1275 175.909 33.4437 174.506 32.8798C177.405 29.753 177.774 24.5722 175.343 21.065C174.655 20.0698 173.766 19.1896 173.339 18.0571C172.667 16.25 173.313 14.2604 173.721 12.3764C174.103 10.6229 174.17 8.53623 172.994 7.25115C173.12 7.07156 173.291 6.92861 173.49 6.83694C173.689 6.74528 173.908 6.70819 174.126 6.72948C174.851 6.83193 175.379 7.46237 175.715 8.11169C176.051 8.76098 176.272 9.48062 176.741 10.0414C177.608 11.0912 179.084 11.3393 180.329 11.8926C183.343 13.236 185.115 16.6211 185.188 19.9211Z" fill="#2F2E41"/>
<path d="M107.537 161.111C107.537 161.162 107.547 161.213 107.566 161.26C107.586 161.307 107.614 161.35 107.65 161.386C107.687 161.422 107.729 161.451 107.777 161.47C107.824 161.49 107.874 161.5 107.925 161.5H190.566C190.668 161.5 190.767 161.459 190.84 161.386C190.913 161.313 190.954 161.214 190.954 161.111C190.954 161.008 190.913 160.909 190.84 160.836C190.767 160.764 190.668 160.723 190.566 160.723H107.925C107.874 160.723 107.824 160.732 107.777 160.752C107.729 160.771 107.687 160.8 107.65 160.836C107.614 160.872 107.586 160.915 107.566 160.962C107.547 161.01 107.537 161.06 107.537 161.111Z" fill="#CCCCCC"/>
<path d="M185.837 88.6564C187.459 88.6564 188.773 87.3408 188.773 85.7179C188.773 84.0949 187.459 82.7793 185.837 82.7793C184.215 82.7793 182.9 84.0949 182.9 85.7179C182.9 87.3408 184.215 88.6564 185.837 88.6564Z" fill="#6C63FF"/>
<path d="M159.818 18.2251C159.99 17.6219 158.803 21.3094 159.376 21.376C161.985 21.6755 165.566 23.2348 167.383 23.9623C167.465 23.9528 167.547 23.9433 167.626 23.9314C167.821 23.91 168.011 23.8791 168.199 23.8434C172.43 23.0423 174.058 16.5378 174.058 16.4784C174.058 16.186 173.356 8.15475 172.252 8.0359C171.961 8.00439 171.67 7.98852 171.378 7.98835H168.636C168.069 7.86602 167.494 7.78262 166.916 7.73873H166.911C161.392 7.31794 157.04 10.6842 157.447 14.7804C157.449 14.7851 157.454 14.7899 157.457 14.7946C157.575 14.9706 157.678 15.137 157.77 15.2963C157.859 15.446 157.933 15.5887 157.998 15.7242C158.501 16.7702 157.208 18.0864 158.066 18.3321C159.206 18.6589 155.066 29.3986 159.58 29.3986C157.385 30.0232 159.343 19.8892 159.818 18.2251Z" fill="#2F2E41"/>
<path d="M164.745 24.5269C168.329 24.5269 171.235 21.6188 171.235 18.0315C171.235 14.4442 168.329 11.5361 164.745 11.5361C161.16 11.5361 158.254 14.4442 158.254 18.0315C158.254 21.6188 161.16 24.5269 164.745 24.5269Z" fill="#A0616A"/>
<path d="M157.447 15.1352C157.556 15.1923 157.661 15.2446 157.77 15.2969C157.883 15.3516 157.996 15.4063 158.109 15.4562C160.283 16.4428 162.052 16.5521 163.125 15.1352C163.154 14.3897 163.321 13.656 163.618 12.9719C163.566 13.7365 163.767 14.497 164.191 15.1352H166.353C168.579 16.6139 169.722 16.7685 168.177 21.623C167.746 22.9757 166.033 30.847 166.707 32.0143C166.902 31.9929 168.976 23.3713 169.164 23.3357C173.395 22.5345 176.083 15.5584 175.739 15.1638C175.741 14.0415 175.483 12.9341 174.986 11.9282C174.357 10.6538 173.376 9.5863 172.16 8.85196C171.435 8.50022 170.68 8.21611 169.903 8.00325C169.883 7.99849 169.867 7.99373 169.847 7.98899C169.609 7.92479 169.366 7.86536 169.123 7.81544C168.621 7.70932 168.113 7.63233 167.602 7.58484C167.566 7.58246 167.53 7.58008 167.496 7.58008C167.292 7.58056 167.092 7.63555 166.916 7.73937C166.913 7.73937 166.913 7.74174 166.911 7.74174C166.785 7.81517 166.676 7.91297 166.588 8.02939C166.435 8.22527 166.352 8.46737 166.353 8.71644H163.946C163.857 8.71644 163.768 8.71881 163.679 8.72356C162.072 8.7785 160.544 9.43134 159.393 10.5543C158.243 11.6773 157.552 13.1896 157.457 14.7953C157.45 14.9094 157.447 15.0211 157.447 15.1352Z" fill="#2F2E41"/>
<path d="M171.637 13.0584C173.999 13.0584 175.913 11.1425 175.913 8.77919C175.913 6.41586 173.999 4.5 171.637 4.5C169.276 4.5 167.361 6.41586 167.361 8.77919C167.361 11.1425 169.276 13.0584 171.637 13.0584Z" fill="#2F2E41"/>
<path d="M185.871 86.929C186.08 86.5997 186.215 86.2289 186.266 85.8424C186.318 85.4558 186.284 85.0627 186.169 84.6902C186.054 84.3177 185.859 83.9748 185.598 83.685C185.337 83.3953 185.017 83.1657 184.659 83.0121L184.68 69.5923L180.972 68.6738L181.063 84.613C180.85 85.2356 180.872 85.9149 181.126 86.5222C181.379 87.1295 181.847 87.6226 182.439 87.9081C183.032 88.1936 183.709 88.2516 184.341 88.0711C184.974 87.8907 185.518 87.4843 185.871 86.929V86.929Z" fill="#A0616A"/>
<path d="M167.51 37.6327L173.279 33.7086C173.548 33.5256 173.853 33.4009 174.173 33.3425C174.493 33.2841 174.822 33.2934 175.139 33.3698C175.455 33.4461 175.752 33.5878 176.01 33.7858C176.269 33.9837 176.483 34.2336 176.639 34.5193L186.559 52.6596L186.597 79.2079L180.404 78.8195L177.861 56.9013L167.51 37.6327Z" fill="#058B94"/>
<path d="M123.196 97.8408H61.5317C60.1905 97.8408 58.9042 98.374 57.9558 99.3231C57.0074 100.272 56.4746 101.559 56.4746 102.902C56.4746 104.244 57.0074 105.531 57.9558 106.48C58.9042 107.429 60.1905 107.963 61.5317 107.963H123.196C124.537 107.963 125.824 107.429 126.772 106.48C127.721 105.531 128.253 104.244 128.253 102.902C128.253 101.559 127.721 100.272 126.772 99.3231C125.824 98.374 124.537 97.8408 123.196 97.8408Z" fill="white"/>
<path d="M123.196 108.288H61.5318C60.1041 108.288 58.7348 107.721 57.7252 106.71C56.7156 105.7 56.1484 104.33 56.1484 102.901C56.1484 101.472 56.7156 100.102 57.7252 99.0916C58.7348 98.0813 60.1041 97.5137 61.5318 97.5137H123.196C124.624 97.5137 125.993 98.0813 127.003 99.0916C128.013 100.102 128.58 101.472 128.58 102.901C128.58 104.33 128.013 105.7 127.003 106.71C125.993 107.721 124.624 108.288 123.196 108.288ZM61.5318 98.1667C60.2771 98.1667 59.0738 98.6655 58.1866 99.5533C57.2994 100.441 56.801 101.645 56.801 102.901C56.801 104.157 57.2994 105.361 58.1866 106.249C59.0738 107.137 60.2771 107.635 61.5318 107.635H123.196C124.451 107.635 125.654 107.137 126.541 106.249C127.429 105.361 127.927 104.157 127.927 102.901C127.927 101.645 127.429 100.441 126.541 99.5533C125.654 98.6655 124.451 98.1667 123.196 98.1667H61.5318Z" fill="#035D63"/>
<path d="M126.833 119.926H99.6201C99.2386 119.926 98.8728 119.775 98.6031 119.505C98.3334 119.235 98.1819 118.869 98.1819 118.487C98.1819 118.105 98.3334 117.739 98.6031 117.469C98.8728 117.199 99.2386 117.048 99.6201 117.048H126.833C127.214 117.048 127.58 117.199 127.85 117.469C128.119 117.739 128.271 118.105 128.271 118.487C128.271 118.869 128.119 119.235 127.85 119.505C127.58 119.775 127.214 119.926 126.833 119.926Z" fill="#06B9C6"/>
</g>
<defs>
<clipPath id="clip0_3671_1777">
<rect width="161" height="157" fill="white" transform="translate(30 4.5)"/>
</clipPath>
</defs>
</svg>
