<svg width="180" height="162" viewBox="0 0 180 162" fill="none" xmlns="http://www.w3.org/2000/svg">
<g clip-path="url(#clip0_3860_55589)">
<path d="M178.406 133.017C176.768 143.078 169.391 150.868 161.538 157.676C160.441 158.627 159.342 159.559 158.24 160.472C158.233 160.477 158.225 160.485 158.217 160.49C158.164 160.534 158.111 160.578 158.062 160.621C157.835 160.809 157.607 160.998 157.382 161.184L157.523 161.228L157.964 161.363C157.813 161.322 157.663 161.282 157.512 161.241C157.467 161.228 157.42 161.217 157.375 161.204C152.168 159.8 146.855 158.258 142.598 154.967C138.182 151.55 135.14 145.723 136.663 140.354C136.864 139.651 137.142 138.972 137.494 138.33C137.637 138.062 137.795 137.802 137.962 137.546C138.968 135.967 140.378 134.685 142.045 133.83C143.712 132.975 145.578 132.58 147.449 132.684C149.32 132.788 151.13 133.388 152.692 134.422C154.254 135.456 155.512 136.886 156.337 138.567C156.263 132.652 150.852 128.338 145.778 125.285C140.701 122.234 134.953 118.938 133.357 113.238C132.468 110.067 133.216 106.801 134.963 104.041C135.018 103.957 135.072 103.873 135.128 103.791C137.271 100.564 140.554 98.2627 144.322 97.3474C151.352 95.7547 158.719 98.6883 164.485 103.011C173.766 109.965 180.267 121.577 178.406 133.017Z" fill="#F2F2F2"/>
<path d="M163.495 121.903C165.117 123.862 166.443 126.046 167.434 128.388C168.285 130.484 168.818 132.696 169.014 134.95C169.441 139.581 168.562 144.261 166.808 148.546C165.443 151.799 163.672 154.867 161.538 157.676C160.441 158.627 159.342 159.559 158.24 160.473C158.232 160.478 158.225 160.486 158.217 160.491C158.164 160.534 158.111 160.578 158.062 160.622C157.835 160.81 157.607 160.999 157.381 161.185L157.523 161.229L157.964 161.364C157.813 161.323 157.663 161.283 157.512 161.242C157.467 161.229 157.42 161.218 157.375 161.205C157.382 157.507 156.501 153.861 154.806 150.573C153.112 147.286 150.652 144.451 147.635 142.308C144.615 140.203 141.14 138.84 137.493 138.331C137.637 138.062 137.795 137.803 137.962 137.547C139.373 137.765 140.762 138.108 142.113 138.571C146.94 140.212 151.109 143.362 154.004 147.554C156.607 151.363 158.069 155.835 158.216 160.445C158.398 160.236 158.579 160.022 158.755 159.812C162.107 155.845 164.974 151.41 166.682 146.483C168.176 142.305 168.619 137.824 167.97 133.435C167.208 128.656 164.757 124.439 161.518 120.9C158.049 117.113 153.884 113.894 149.524 111.195C145.058 108.425 140.27 106.212 135.266 104.603C135.153 104.566 135.058 104.487 135.002 104.383C134.946 104.278 134.932 104.156 134.963 104.042C134.983 103.94 135.042 103.85 135.128 103.792C135.173 103.766 135.223 103.75 135.274 103.746C135.326 103.742 135.377 103.75 135.425 103.769C136.043 103.968 136.658 104.171 137.269 104.386C142.358 106.181 147.205 108.601 151.697 111.589C156.035 114.468 160.2 117.851 163.495 121.903Z" fill="white"/>
<path d="M74.9833 98.9276C74.4828 98.9269 74.0013 98.7362 73.6363 98.3942C73.2713 98.0523 73.05 97.5846 73.0173 97.0858L72.7244 92.6208C72.6902 92.0993 72.8649 91.5856 73.21 91.1927C73.555 90.7997 74.0423 90.5598 74.5645 90.5256L109.593 88.2347C110.145 88.1983 110.699 88.2709 111.224 88.4485C111.748 88.626 112.232 88.9049 112.648 89.2693C113.064 89.6337 113.405 90.0764 113.649 90.5721C113.894 91.0679 114.039 91.607 114.075 92.1585C114.111 92.7101 114.038 93.2634 113.86 93.7868C113.682 94.3102 113.403 94.7935 113.038 95.209C112.672 95.6245 112.229 95.964 111.732 96.2083C111.236 96.4526 110.696 96.5967 110.144 96.6326L75.1152 98.9233C75.0711 98.9261 75.0271 98.9276 74.9833 98.9276Z" fill="#FFB7B7"/>
<path d="M81.89 99.5037C81.3797 99.5028 80.8896 99.3049 80.5222 98.9512C80.1548 98.5976 79.9386 98.1157 79.919 97.6065L79.6693 90.9375C79.6597 90.6789 79.7011 90.421 79.7913 90.1784C79.8814 89.9357 80.0185 89.7132 80.1948 89.5236C80.3711 89.3339 80.583 89.1807 80.8186 89.0729C81.0541 88.965 81.3086 88.9045 81.5676 88.8949L110.372 87.8197C110.895 87.8002 111.405 87.989 111.788 88.3445C112.172 88.7 112.398 89.1931 112.418 89.7154L112.668 96.3844C112.677 96.643 112.636 96.901 112.546 97.1436C112.456 97.3862 112.318 97.6087 112.142 97.7984C111.966 97.9881 111.754 98.1412 111.518 98.2491C111.283 98.357 111.028 98.4174 110.769 98.4271L81.9645 99.5022C81.9396 99.5032 81.9147 99.5037 81.89 99.5037Z" fill="#058B94"/>
<path d="M115.645 160.979H111.164C110.641 160.978 110.139 160.77 109.77 160.401C109.4 160.032 109.192 159.531 109.191 159.008V121.715C109.192 121.192 109.4 120.691 109.77 120.322C110.139 119.953 110.641 119.745 111.164 119.744H115.645C116.168 119.745 116.669 119.953 117.039 120.322C117.409 120.691 117.617 121.192 117.618 121.715V159.008C117.617 159.531 117.409 160.032 117.039 160.401C116.669 160.77 116.168 160.978 115.645 160.979Z" fill="#035D63"/>
<path d="M95.7568 141.266L91.9251 138.947C91.4781 138.675 91.157 138.238 91.0324 137.73C90.9078 137.223 90.9899 136.687 91.2605 136.24L110.618 104.348C110.889 103.901 111.327 103.581 111.835 103.456C112.343 103.332 112.88 103.414 113.328 103.684L117.16 106.003C117.607 106.275 117.928 106.712 118.052 107.219C118.177 107.727 118.095 108.263 117.824 108.71L98.4671 140.602C98.1954 141.049 97.7575 141.369 97.2494 141.494C96.7413 141.618 96.2045 141.536 95.7568 141.266Z" fill="#058B94"/>
<path d="M121.767 131.721H95.66C94.9758 131.72 94.32 131.448 93.8362 130.965C93.3525 130.482 93.0804 129.827 93.0796 129.144L98.5452 87.2878C98.5495 86.6077 98.8232 85.957 99.3065 85.4779C99.7897 84.9987 100.443 84.73 101.124 84.7305H110.389C114.09 84.7346 117.638 86.2046 120.255 88.8179C122.871 91.4311 124.343 94.9743 124.348 98.67V129.144C124.347 129.827 124.075 130.482 123.591 130.965C123.107 131.448 122.451 131.72 121.767 131.721Z" fill="#058B94"/>
<path d="M115.193 129.489C115.035 129.835 114.779 130.128 114.458 130.332C114.136 130.536 113.763 130.643 113.382 130.64L108.901 130.601C108.642 130.599 108.386 130.546 108.148 130.445C107.909 130.344 107.693 130.197 107.511 130.012C107.33 129.828 107.186 129.609 107.089 129.369C106.992 129.129 106.943 128.873 106.945 128.614L107.25 93.559C107.255 93.0064 107.368 92.4602 107.584 91.9516C107.801 91.4429 108.115 90.9818 108.51 90.5944C108.904 90.2071 109.371 89.9012 109.884 89.6942C110.397 89.4872 110.946 89.3831 111.5 89.3879C112.053 89.3926 112.6 89.5062 113.109 89.7221C113.618 89.938 114.08 90.2519 114.468 90.646C114.856 91.0401 115.162 91.5067 115.37 92.019C115.577 92.5313 115.681 93.0794 115.676 93.6319L115.372 128.687C115.37 128.964 115.309 129.237 115.193 129.489Z" fill="#FFB7B7"/>
<path d="M117.172 120.132C117.014 120.477 116.758 120.77 116.437 120.974C116.115 121.179 115.742 121.286 115.361 121.283L107.708 121.216C107.185 121.211 106.685 120.999 106.318 120.627C105.952 120.254 105.748 119.751 105.752 119.229L106.002 90.4437C106.004 90.185 106.057 89.9292 106.159 89.6909C106.26 89.4527 106.407 89.2367 106.592 89.0553C106.777 88.8739 106.996 88.7307 107.236 88.6337C107.476 88.5368 107.733 88.488 107.992 88.4903L115.645 88.5566C115.904 88.5588 116.16 88.612 116.399 88.7131C116.637 88.8142 116.854 88.9612 117.035 89.1458C117.217 89.3303 117.36 89.5488 117.457 89.7888C117.554 90.0287 117.603 90.2854 117.601 90.5441L117.351 119.329C117.349 119.606 117.288 119.88 117.172 120.132Z" fill="#058B94"/>
<path d="M90.9242 136.779C90.9298 136.745 90.9363 136.711 90.9437 136.677C90.9977 136.423 91.1014 136.183 91.2489 135.97C91.3964 135.758 91.5847 135.576 91.803 135.436L95.5682 133.011C96.0082 132.728 96.5424 132.631 97.0538 132.742C97.5652 132.852 98.0119 133.16 98.296 133.599L109.911 151.582C110.195 152.022 110.292 152.555 110.182 153.066C110.071 153.577 109.762 154.023 109.322 154.307L105.557 156.732C105.117 157.015 104.583 157.111 104.071 157.001C103.56 156.891 103.113 156.583 102.829 156.144L91.2142 138.16C90.9488 137.752 90.8454 137.26 90.9242 136.779Z" fill="#035D63"/>
<path d="M76.8227 18.2574C76.5334 17.5714 76.0491 16.9852 75.4297 16.5713C74.8102 16.1574 74.0828 15.934 73.3375 15.9287H3.77106C2.77108 15.9292 1.8122 16.3262 1.10511 17.0323C0.398015 17.7385 0.000537318 18.696 0 19.6947V107.584C0.000537318 108.583 0.398015 109.54 1.10511 110.247C1.8122 110.953 2.77108 111.35 3.77106 111.35H73.34C74.3398 111.349 75.2982 110.952 76.0051 110.246C76.712 109.54 77.1098 108.583 77.1111 107.584V19.6947C77.1127 19.2013 77.0156 18.7127 76.8252 18.2574H76.8227ZM76.2711 107.584C76.2702 108.361 75.9608 109.106 75.4109 109.655C74.8609 110.204 74.1153 110.513 73.3375 110.514H3.77106C2.99314 110.514 2.24712 110.205 1.697 109.656C1.14688 109.107 0.837705 108.362 0.837441 107.585V19.6952C0.838501 18.9185 1.14792 18.174 1.69785 17.6248C2.24778 17.0756 2.99334 16.7666 3.77106 16.7655H73.34C73.9259 16.7677 74.4978 16.9442 74.9828 17.2725C75.4678 17.6007 75.8438 18.0658 76.063 18.6084C76.1057 18.7166 76.1425 18.8269 76.1733 18.939C76.2399 19.1855 76.2736 19.4398 76.2736 19.6952L76.2711 107.584Z" fill="#3F3D56"/>
<path d="M62.3051 36.6794H41.3507C40.9061 36.6794 40.4797 36.503 40.1653 36.189C39.8509 35.8751 39.6743 35.4492 39.6743 35.0052C39.6743 34.5612 39.8509 34.1354 40.1653 33.8214C40.4797 33.5074 40.9061 33.3311 41.3507 33.3311H62.3051C62.7498 33.3311 63.1762 33.5074 63.4906 33.8214C63.8049 34.1354 63.9816 34.5612 63.9816 35.0052C63.9816 35.4492 63.8049 35.8751 63.4906 36.189C63.1762 36.503 62.7498 36.6794 62.3051 36.6794Z" fill="#3F3D56"/>
<path d="M62.3049 45.4684H41.3505C41.1302 45.4687 40.912 45.4256 40.7083 45.3416C40.5047 45.2576 40.3196 45.1344 40.1637 44.9789C40.0078 44.8234 39.8841 44.6387 39.7997 44.4355C39.7153 44.2322 39.6719 44.0143 39.6719 43.7943C39.6719 43.5742 39.7153 43.3563 39.7997 43.1531C39.8841 42.9498 40.0078 42.7652 40.1637 42.6097C40.3196 42.4542 40.5047 42.3309 40.7083 42.2469C40.912 42.1629 41.1302 42.1198 41.3505 42.1201H62.3049C62.5253 42.1198 62.7435 42.1629 62.9472 42.2469C63.1508 42.3309 63.3359 42.4542 63.4918 42.6097C63.6477 42.7652 63.7714 42.9498 63.8558 43.1531C63.9402 43.3563 63.9836 43.5742 63.9836 43.7943C63.9836 44.0143 63.9402 44.2322 63.8558 44.4355C63.7714 44.6387 63.6477 44.8234 63.4918 44.9789C63.3359 45.1344 63.1508 45.2576 62.9472 45.3416C62.7435 45.4256 62.5253 45.4687 62.3049 45.4684Z" fill="#3F3D56"/>
<path d="M30.5993 50.4728H15.2859C14.7859 50.4723 14.3065 50.2737 13.9529 49.9206C13.5993 49.5675 13.4004 49.0887 13.3999 48.5893V30.5427C13.4004 30.0433 13.5993 29.5645 13.9529 29.2114C14.3065 28.8583 14.7859 28.6597 15.2859 28.6592H30.5993C31.0994 28.6597 31.5788 28.8583 31.9324 29.2114C32.2859 29.5645 32.4848 30.0433 32.4853 30.5427V48.5893C32.4848 49.0887 32.2859 49.5675 31.9324 49.9206C31.5788 50.2737 31.0994 50.4723 30.5993 50.4728Z" fill="#058B94"/>
<path d="M62.1597 63.4655H14.8029C14.3583 63.4655 13.9319 63.2891 13.6175 62.9752C13.3031 62.6612 13.1265 62.2354 13.1265 61.7913C13.1265 61.3473 13.3031 60.9215 13.6175 60.6075C13.9319 60.2936 14.3583 60.1172 14.8029 60.1172H62.1597C62.6043 60.1172 63.0307 60.2936 63.3451 60.6075C63.6595 60.9215 63.8361 61.3473 63.8361 61.7913C63.8361 62.2354 63.6595 62.6612 63.3451 62.9752C63.0307 63.2891 62.6043 63.4655 62.1597 63.4655Z" fill="#CCCCCC"/>
<path d="M62.1597 72.2536H14.8029C14.3583 72.2536 13.9319 72.0772 13.6175 71.7632C13.3031 71.4493 13.1265 71.0234 13.1265 70.5794C13.1265 70.1354 13.3031 69.7096 13.6175 69.3956C13.9319 69.0817 14.3583 68.9053 14.8029 68.9053H62.1597C62.6043 68.9053 63.0307 69.0817 63.3451 69.3956C63.6595 69.7096 63.8361 70.1354 63.8361 70.5794C63.8361 71.0234 63.6595 71.4493 63.3451 71.7632C63.0307 72.0772 62.6043 72.2536 62.1597 72.2536Z" fill="#CCCCCC"/>
<path d="M62.1599 81.0427H14.8031C14.3589 81.0421 13.933 80.8654 13.6191 80.5515C13.3052 80.2376 13.1289 79.8121 13.1289 79.3685C13.1289 78.9249 13.3052 78.4994 13.6191 78.1855C13.933 77.8716 14.3589 77.6949 14.8031 77.6943H62.1599C62.3803 77.694 62.5985 77.7371 62.8021 77.8211C63.0058 77.9051 63.1909 78.0284 63.3468 78.1839C63.5027 78.3394 63.6264 78.524 63.7108 78.7273C63.7951 78.9306 63.8386 79.1485 63.8386 79.3685C63.8386 79.5885 63.7951 79.8064 63.7108 80.0097C63.6264 80.2129 63.5027 80.3976 63.3468 80.5531C63.1909 80.7086 63.0058 80.8319 62.8021 80.9159C62.5985 80.9999 62.3803 81.043 62.1599 81.0427Z" fill="#CCCCCC"/>
<path d="M62.1597 89.8317H14.8029C14.3583 89.8317 13.9319 89.6553 13.6175 89.3414C13.3031 89.0274 13.1265 88.6016 13.1265 88.1576C13.1265 87.7135 13.3031 87.2877 13.6175 86.9737C13.9319 86.6598 14.3583 86.4834 14.8029 86.4834H62.1597C62.6043 86.4834 63.0307 86.6598 63.3451 86.9737C63.6595 87.2877 63.8361 87.7135 63.8361 88.1576C63.8361 88.6016 63.6595 89.0274 63.3451 89.3414C63.0307 89.6553 62.6043 89.8317 62.1597 89.8317Z" fill="#CCCCCC"/>
<path d="M62.1597 98.6208H14.8029C14.3583 98.6208 13.9319 98.4444 13.6175 98.1304C13.3031 97.8165 13.1265 97.3906 13.1265 96.9466C13.1265 96.5026 13.3031 96.0768 13.6175 95.7628C13.9319 95.4488 14.3583 95.2725 14.8029 95.2725H62.1597C62.6043 95.2725 63.0307 95.4488 63.3451 95.7628C63.6595 96.0768 63.8361 96.5026 63.8361 96.9466C63.8361 97.3906 63.6595 97.8165 63.3451 98.1304C63.0307 98.4444 62.6043 98.6208 62.1597 98.6208Z" fill="#CCCCCC"/>
<path d="M77.343 32.8133C86.2781 32.8133 93.5214 25.5797 93.5214 16.6567C93.5214 7.73358 86.2781 0.5 77.343 0.5C68.4079 0.5 61.1646 7.73358 61.1646 16.6567C61.1646 25.5797 68.4079 32.8133 77.343 32.8133Z" fill="#058B94"/>
<path d="M179.701 161.5H69.6306C69.5513 161.5 69.4752 161.468 69.4191 161.412C69.363 161.356 69.3315 161.28 69.3315 161.201C69.3315 161.122 69.363 161.046 69.4191 160.99C69.4752 160.934 69.5513 160.902 69.6306 160.902H179.701C179.78 160.902 179.856 160.934 179.912 160.99C179.968 161.046 180 161.122 180 161.201C180 161.28 179.968 161.356 179.912 161.412C179.856 161.468 179.78 161.5 179.701 161.5Z" fill="#3F3D56"/>
<rect width="4.1429" height="17.9534" rx="2.07145" transform="matrix(0.685132 -0.728419 0.728912 0.684608 69.5088 12.252)" fill="#F7FEFF"/>
<rect width="4.14309" height="17.9526" rx="2.07154" transform="matrix(0.728912 0.684608 -0.685132 0.728419 82.1128 8.93164)" fill="#F7FEFF"/>
<path d="M106.442 83.3342C113.844 84.7932 121.011 80.0679 122.449 72.78C123.888 65.4921 119.053 58.4014 111.652 56.9425C104.25 55.4835 97.0829 60.2088 95.6443 67.4967C94.2058 74.7845 99.0401 81.8753 106.442 83.3342Z" fill="#2F2E41"/>
<path d="M111.704 62.914C115.153 60.5803 119.076 59.0281 123.197 58.3665C125.841 57.9443 128.635 57.9121 131.111 58.9359C133.587 59.9596 135.674 62.213 135.897 64.8692C136.079 67.0413 135.035 69.1355 133.74 70.8912C132.446 72.6469 130.873 74.2016 129.739 76.064C128.582 77.9642 127.92 80.1228 127.815 82.3437C127.71 84.5646 128.164 86.7776 129.136 88.7817C130.108 90.7858 131.568 92.5176 133.382 93.8199C135.197 95.1222 137.308 95.9537 139.526 96.239C136.927 96.0775 134.359 96.8007 131.759 96.9427C129.16 97.0847 126.246 96.4661 124.755 94.3402C123.177 92.0909 123.737 89.0499 124.361 86.382C125.289 82.4161 126.218 78.4502 127.146 74.4842C127.619 72.4616 128.095 70.3718 127.731 68.3253C127.368 66.2788 125.941 64.2682 123.888 63.8816C122.332 63.5886 120.773 64.2532 119.345 64.9304C117.917 65.6075 116.405 66.3321 114.831 66.1644C113.256 65.9967 111.715 64.5101 112.134 62.9927L111.704 62.914Z" fill="#2F2E41"/>
<path d="M107.489 82.3035C112.769 80.6394 115.7 75.0131 114.034 69.7367C112.369 64.4602 106.738 61.5319 101.457 63.1959C96.1767 64.86 93.2462 70.4864 94.9118 75.7628C96.5773 81.0392 102.208 83.9676 107.489 82.3035Z" fill="#FFB7B7"/>
<path d="M90.804 69.2019L105.025 72.0049L105.567 70.028L105.9 72.1774L108.09 72.609L109.164 68.6908L109.824 72.9508L114.061 73.786L114.1 73.589C114.643 70.8209 114.046 67.9468 112.441 65.5972C110.835 63.2476 108.351 61.6145 105.535 61.0561L103.529 60.6609C100.712 60.1087 97.7934 60.6771 95.415 62.2414C93.0366 63.8056 91.3923 66.2381 90.8429 69.0049L90.804 69.2019Z" fill="#2F2E41"/>
</g>
<defs>
<clipPath id="clip0_3860_55589">
<rect width="180" height="161" fill="white" transform="translate(0 0.5)"/>
</clipPath>
</defs>
</svg>
