<svg xmlns="http://www.w3.org/2000/svg" viewBox="0 0 587 560"><g id="Layer_6" data-name="Layer 6"><path d="M21.26,184.66V375.34a69,69,0,0,0,34.49,59.74l165.13,95.33a68.94,68.94,0,0,0,69,0L455,435.08a69,69,0,0,0,34.49-59.74V184.66A69,69,0,0,0,455,124.92L289.86,29.58a69,69,0,0,0-69,0L55.75,124.92A69,69,0,0,0,21.26,184.66Z" style="fill:#035d63"/><path d="M383.39,476.41l-93.53,54a68.94,68.94,0,0,1-69,0L55.75,435.07a69,69,0,0,1-34.49-59.73V184.66a68.55,68.55,0,0,1,3.27-20.95C205.69,168.54,354.74,302.2,383.39,476.41Z" style="fill:#023c40"/><path d="M118,204.34h29.14a9.06,9.06,0,0,1,9,8.26l4,44.91q.61,4.82,1,11.18t.73,13.23q.33,6.85.38,13.84t-.27,13h1.17q2.29-6.5,5.63-14.08T175.47,280q3.22-7.1,6.12-13.11t4.53-9.38l24-48.15a9,9,0,0,1,8.11-5h28.31a9.07,9.07,0,0,1,9,10.32L236.88,348.09a9.05,9.05,0,0,1-9,7.81H213.27a9.07,9.07,0,0,1-9-10.49l6.48-40.75q1-7.21,2.6-15.76t3.29-17.44q1.74-8.9,3.56-17.56L223.57,238h-.7q-3.3,7.93-7,16.36t-7.58,16.72q-3.84,8.29-7.57,16.12t-7.2,14.31L168.3,351a9.08,9.08,0,0,1-8.08,4.95H147.33a9.05,9.05,0,0,1-9-8.12l-4.86-46q-.71-6.74-1.16-14.55t-.71-16.12q-.26-8.31-.36-16.72t.15-16.36h-.7q-1.38,7.69-3.37,16.72t-4.13,18q-2.12,9-4.2,17.32t-3.63,14.56l-11.52,44.45a9.08,9.08,0,0,1-8.78,6.79H81.29a9.07,9.07,0,0,1-8.74-11.47L109.29,211A9.07,9.07,0,0,1,118,204.34Z" style="fill:#fff;stroke:#fff;stroke-miterlimit:10;stroke-width:9.19066328376674px"/><path d="M304.82,204.34h29.45a8.89,8.89,0,0,1,8.85,8.1l4,45.07q.62,4.82,1,11.18t.74,13.23q.31,6.85.37,13.84t-.26,13h1.16q2.3-6.5,5.63-14.08T362.4,280q3.23-7.1,6.12-13.11t4.53-9.38l24.07-48.25a8.89,8.89,0,0,1,7.95-4.92H433.7a8.88,8.88,0,0,1,8.8,10.12L423.79,348.24a8.88,8.88,0,0,1-8.8,7.66H400a8.88,8.88,0,0,1-8.77-10.28l6.51-41q1-7.21,2.6-15.76t3.29-17.44q1.75-8.9,3.56-17.56L410.5,238h-.7q-3.3,7.93-7,16.36t-7.58,16.72q-3.84,8.29-7.57,16.12t-7.19,14.31l-25.24,49.52a8.88,8.88,0,0,1-7.91,4.85H334.1a8.88,8.88,0,0,1-8.83-7.95l-4.88-46.18q-.69-6.74-1.16-14.55t-.71-16.12q-.25-8.31-.36-16.72t.16-16.36h-.7q-1.38,7.69-3.38,16.72t-4.13,18q-2.12,9-4.2,17.32t-3.63,14.56l-11.56,44.58a8.88,8.88,0,0,1-8.6,6.66H268a8.89,8.89,0,0,1-8.57-11.25l36.84-133.78A8.88,8.88,0,0,1,304.82,204.34Z" style="fill:#fff;stroke:#fff;stroke-miterlimit:10;stroke-width:9.19066328376674px"/><path d="M525.73,201.45q15.4,0,25.93,3.25,3.92,1.22,7.37,2.6a10.65,10.65,0,0,1,5.56,14.7l-3.89,7.68A10.6,10.6,0,0,1,547,234.62a78.1,78.1,0,0,0-7.83-3,55.5,55.5,0,0,0-17-2.77q-10.74,0-17.19,4.09A16.58,16.58,0,0,0,497,243.79c-1.07,5.14-.07,8.87,3,11.19s8.1,4.77,15,7.34l12.82,4.57A64.9,64.9,0,0,1,541.6,274a38.81,38.81,0,0,1,10,9.75,32.24,32.24,0,0,1,5.21,12.51,38.4,38.4,0,0,1-.37,15.15,56,56,0,0,1-21.06,33.2,65.75,65.75,0,0,1-20.11,10.22,86.07,86.07,0,0,1-26.34,3.73,104.18,104.18,0,0,1-25.62-3,88.53,88.53,0,0,1-10.69-3.42A10.68,10.68,0,0,1,447,337.38l3.83-7.55a10.69,10.69,0,0,1,13.8-5,89,89,0,0,0,9,3.43A63,63,0,0,0,493,331.12q12.38,0,18.74-4.21a17.59,17.59,0,0,0,7.87-11.43,12.56,12.56,0,0,0,.08-4.81,10,10,0,0,0-2.62-4.81,23.84,23.84,0,0,0-6.48-4.69,81.72,81.72,0,0,0-11.27-4.69l-10.58-4.09a94.59,94.59,0,0,1-13.72-7,35.73,35.73,0,0,1-10.1-9.14A29.88,29.88,0,0,1,459.67,264q-1.34-7,.68-16.6a54.23,54.23,0,0,1,7.44-18.28,53.46,53.46,0,0,1,13.78-14.55,66.71,66.71,0,0,1,19.51-9.63A82.25,82.25,0,0,1,525.73,201.45Z" style="fill:#035d63;stroke:#035d63;stroke-miterlimit:10;stroke-width:9.19066328376674px"/><path d="M478.86,210.85a58.46,58.46,0,0,0-23,35.61c-1.46,7-1.69,13.18-.69,18.41A34.65,34.65,0,0,0,461.23,279a40.63,40.63,0,0,0,11.38,10.31A100.08,100.08,0,0,0,487,296.63l2.89,1.12V204.37A66.53,66.53,0,0,0,478.86,210.85Zm-3.9,113a94.15,94.15,0,0,1-17.1-7.57h0a4.59,4.59,0,0,0-6.35,1.92L438,344.93a4.59,4.59,0,0,0,1.76,6h0a84.73,84.73,0,0,0,22.41,9,109.69,109.69,0,0,0,27.7,3.15h0V326.44A57.4,57.4,0,0,1,475,323.86Z" style="fill:#fff"/></g></svg>