<svg width="168" height="166" viewBox="0 0 168 166" fill="none" xmlns="http://www.w3.org/2000/svg">
<g clip-path="url(#clip0_3523_46172)">
<path d="M46.5397 56.7605L11.0594 49.0338L10.5983 48.9337C10.3634 48.8822 10.119 48.8986 9.89306 48.9812C9.6671 49.0637 9.46881 49.2089 9.32097 49.4001C9.17314 49.5914 9.08177 49.8208 9.05738 50.0622C9.03298 50.3035 9.07656 50.5469 9.18308 50.7643L23.2702 79.6446C23.3614 79.8302 23.4954 79.9909 23.6609 80.1133C23.8265 80.2356 24.0187 80.3161 24.2214 80.3478C24.4248 80.3797 24.6329 80.3612 24.8276 80.2938C25.0223 80.2264 25.1978 80.1121 25.339 79.9609L35.1236 69.5456C35.1932 69.4696 35.2776 69.409 35.3715 69.3676C35.4655 69.3262 35.5669 69.3048 35.6694 69.3049C35.8087 69.3029 35.9459 69.3392 36.0664 69.4099C36.1868 69.4806 36.286 69.5831 36.3532 69.7063L38.3574 73.4487C38.4853 73.6982 38.6923 73.8973 38.9453 74.0144C39.1983 74.1314 39.4828 74.1597 39.7536 74.0946L39.7635 74.0924C40.0376 74.0338 40.2842 73.8838 40.4636 73.6667C40.6431 73.4495 40.745 73.1778 40.753 72.8951L41.1544 64.2564C41.1592 64.1486 41.1859 64.043 41.2328 63.946C41.2831 63.8501 41.3514 63.7649 41.434 63.6953L47.0788 59.0174C47.2643 58.8637 47.4032 58.6603 47.4795 58.4305C47.5558 58.2007 47.5664 57.9539 47.5101 57.7183C47.4538 57.4827 47.333 57.2679 47.1613 57.0985C46.9897 56.9291 46.7743 56.812 46.5397 56.7605ZM46.7564 58.6198L41.1116 63.2976C41.038 63.3574 40.9714 63.4254 40.9129 63.5003L10.9952 49.8028C10.9688 49.7904 10.9413 49.7806 10.913 49.7736C10.7977 49.7436 10.6755 49.7553 10.5677 49.8065C10.4599 49.8578 10.3732 49.9455 10.3227 50.0545C10.2722 50.1634 10.2609 50.2868 10.2909 50.4032C10.321 50.5196 10.3903 50.6218 10.4871 50.692L35.0861 68.9339C34.9613 68.9994 34.8486 69.0862 34.7529 69.1904L24.9685 79.6057C24.8836 79.6959 24.7783 79.764 24.6618 79.8044C24.5452 79.8447 24.4207 79.8561 24.2988 79.8374C24.1769 79.8188 24.0613 79.7708 23.9618 79.6974C23.8623 79.624 23.7818 79.5275 23.7271 79.4159L9.63999 50.5356C9.57701 50.4051 9.55161 50.2594 9.56667 50.115C9.58173 49.9707 9.63665 49.8335 9.72517 49.7191C9.8137 49.6047 9.93227 49.5178 10.0674 49.4681C10.2025 49.4184 10.3487 49.4081 10.4893 49.4382L10.9614 49.5412L46.4306 57.265C46.5715 57.2958 46.7009 57.366 46.804 57.4676C46.9072 57.5692 46.9799 57.698 47.0139 57.8394C47.0479 57.9807 47.0418 58.1289 46.9962 58.2669C46.9507 58.4049 46.8676 58.5272 46.7564 58.6198Z" fill="#035D63"/>
<path d="M5.50667 108.017C3.95657 105.095 3.92314 99.7905 8.0918 96.9989C10.1592 95.6144 12.3963 95.6779 14.2649 96.1694C16.8494 96.8494 19.0049 98.3673 20.8052 100.091C22.8817 102.08 24.5563 104.444 26.2018 106.81C27.8264 109.146 29.4823 111.452 31.2509 113.669C38.1765 122.339 46.3868 129.89 55.5979 136.061C57.8719 137.583 60.213 139.021 62.621 140.373C64.8662 141.688 67.2031 142.841 69.6139 143.821C72.8564 145.071 78.4813 146.77 82.1623 142.725C84.1141 140.58 84.6358 137.759 84.6382 135.409C84.6412 132.567 83.9384 129.944 83.2424 127.383C80.0048 115.471 76.7029 103.59 73.4328 91.6939C72.6696 88.9174 71.8687 86.1533 71.3244 83.2734C70.8148 80.5771 70.4855 77.7255 70.9328 74.7465C71.3235 72.1445 72.3465 69.1836 74.634 67.0952C76.531 65.3633 78.9109 64.7158 81.0689 64.6369C86.4117 64.4416 91.0097 66.9588 94.7134 69.6603C99.3148 73.0167 103.194 77.1663 107.771 80.5504C111.467 83.2829 115.936 85.7116 121.181 85.8209C123.355 85.909 125.514 85.3852 127.414 84.3086C129.352 83.1256 130.88 81.3701 131.786 79.2844C132.845 76.9142 133.145 74.4451 133.138 72.1534C133.111 69.538 132.687 66.9442 131.878 64.4621C130.213 59.2011 127.543 54.5364 125.392 49.5672C124.337 47.1303 123.328 44.6155 122.863 41.8673C122.469 39.539 122.285 36.7713 123.439 34.1799C125.82 28.8333 131.834 30.5525 134.802 31.941C136.792 32.9106 138.697 34.0462 140.497 35.3359C140.883 35.6032 141.42 34.8279 141.036 34.5619C139.146 33.2001 137.135 32.0156 135.028 31.0233C133.213 30.2089 131.184 29.5175 128.934 29.6555C127.915 29.7138 126.918 29.9865 126.009 30.4559C125.099 30.9253 124.296 31.5808 123.654 32.3799C122.033 34.4349 121.719 37.0163 121.736 39.1466C121.758 41.9638 122.46 44.5374 123.351 46.9766C124.29 49.5456 125.438 51.9914 126.596 54.4255C128.911 59.2895 131.512 64.1992 132.144 69.9654C132.587 73.999 132.273 80.3416 127.422 83.439C125.269 84.814 122.848 85.1023 120.727 84.9504C118.272 84.7376 115.879 84.0794 113.664 83.0078C103.636 78.3712 98.0791 68.0972 87.151 64.6737C83.4354 63.5096 78.0777 62.8928 74.0626 66.6363C71.9769 68.5809 70.852 71.2057 70.3093 73.6504C69.6593 76.5784 69.8179 79.4261 70.2211 82.0952C70.6886 84.8651 71.3196 87.6038 72.1107 90.2969C72.9291 93.2821 73.7494 96.2664 74.5715 99.2498L79.5508 117.364L82.0248 126.364C82.7799 129.111 83.6184 131.868 83.7659 134.874C83.8866 137.335 83.4969 140.746 81.0039 142.836C79.0241 144.496 76.5051 144.529 74.5353 144.247C71.9846 143.881 69.6779 142.943 67.5071 141.893C65.0032 140.681 62.594 139.321 60.2421 137.9C55.426 134.987 50.8499 131.695 46.5568 128.053C42.2718 124.423 38.2752 120.464 34.6027 116.212C32.7474 114.063 30.9775 111.84 29.293 109.542C27.5574 107.172 25.9691 104.681 24.1471 102.383C22.4991 100.304 20.6382 98.3908 18.3489 96.9724C16.4374 95.7881 14.1088 94.8287 11.4998 95.0225C9.53779 95.2021 7.70478 96.0948 6.34569 97.5324C4.98882 98.9664 4.09103 100.775 3.76901 102.722C3.43555 104.705 3.76421 106.74 4.70385 108.51C4.9253 108.927 5.7291 108.437 5.50667 108.017Z" fill="#E6E6E6"/>
<path d="M136.164 160.223H53.4727V160.8H136.164V160.223Z" fill="#3F3D56"/>
<path d="M129.539 133.03C132.522 133.03 134.941 130.588 134.941 127.577C134.941 124.565 132.522 122.123 129.539 122.123C126.555 122.123 124.137 124.565 124.137 127.577C124.137 130.588 126.555 133.03 129.539 133.03Z" fill="#E6E6E6"/>
<path d="M119.683 56.1647C122.667 56.1647 125.085 53.7231 125.085 50.7113C125.085 47.6994 122.667 45.2578 119.683 45.2578C116.7 45.2578 114.281 47.6994 114.281 50.7113C114.281 53.7231 116.7 56.1647 119.683 56.1647Z" fill="#E6E6E6"/>
<path d="M162.032 33.8119L146.98 27.351C146.315 27.0662 145.562 27.0586 144.888 27.3299C144.214 27.6011 143.673 28.1289 143.384 28.7977L138.724 39.6126C138.436 40.282 138.425 41.037 138.691 41.7119C138.958 42.3869 139.481 42.9267 140.145 43.213L155.197 49.6739C155.863 49.9586 156.615 49.9662 157.289 49.695C157.963 49.4238 158.504 48.8959 158.793 48.2272L163.453 37.4122C163.741 36.7429 163.753 35.9879 163.486 35.3129C163.22 34.638 162.697 34.0982 162.032 33.8119ZM161.411 35.2539C161.501 35.2928 161.585 35.343 161.662 35.4031L151.178 38.3104L146.132 28.722C146.21 28.7378 146.286 28.7616 146.359 28.793L161.411 35.2539ZM155.819 48.2319L140.767 41.771C140.482 41.6483 140.258 41.4169 140.143 41.1277C140.029 40.8384 140.034 40.5148 140.158 40.228L144.776 29.5101L150.087 39.6026C150.17 39.7597 150.303 39.8836 150.466 39.9538C150.629 40.0241 150.811 40.0364 150.982 39.9889L161.956 36.9459L157.36 47.6119C157.236 47.8985 157.004 48.1247 156.715 48.2409C156.426 48.3572 156.104 48.3539 155.819 48.2319Z" fill="#E6E6E6"/>
<path d="M90.646 88.3025C98.189 88.3025 104.304 82.1294 104.304 74.5145C104.304 66.8996 98.189 60.7266 90.646 60.7266C83.1031 60.7266 76.9883 66.8996 76.9883 74.5145C76.9883 82.1294 83.1031 88.3025 90.646 88.3025Z" fill="#FFCCCF"/>
<path d="M88.4918 160.392H84.7252C84.2854 160.392 83.8638 160.215 83.5528 159.901C83.2418 159.587 83.0669 159.162 83.0664 158.718V127.026C83.0669 126.582 83.2418 126.157 83.5528 125.843C83.8638 125.529 84.2854 125.352 84.7252 125.352H88.4918C88.9315 125.352 89.3532 125.529 89.6641 125.843C89.9751 126.157 90.15 126.582 90.1505 127.026V158.718C90.15 159.162 89.9751 159.587 89.6641 159.901C89.3532 160.215 88.9315 160.392 88.4918 160.392Z" fill="#035D63"/>
<path d="M95.941 160.392H92.1744C91.7346 160.392 91.313 160.215 91.002 159.901C90.6911 159.587 90.5161 159.162 90.5156 158.718V127.026C90.5161 126.582 90.6911 126.157 91.002 125.843C91.313 125.529 91.7346 125.352 92.1744 125.352H95.941C96.3808 125.352 96.8024 125.529 97.1134 125.843C97.4243 126.157 97.5992 126.582 97.5998 127.026V158.718C97.5992 159.162 97.4243 159.587 97.1134 159.901C96.8024 160.215 96.3808 160.392 95.941 160.392Z" fill="#035D63"/>
<path d="M111.552 123.712C111.387 123.712 111.222 123.687 111.064 123.638C110.856 123.574 110.662 123.469 110.494 123.329C110.326 123.189 110.187 123.017 110.085 122.822L95.3693 94.8281C95.2672 94.6338 95.204 94.4212 95.1833 94.2023C95.1626 93.9834 95.1848 93.7625 95.2486 93.5523C95.3125 93.342 95.4167 93.1466 95.5554 92.977C95.6941 92.8074 95.8645 92.6671 96.0569 92.564L99.3839 90.7815C99.5763 90.6784 99.787 90.6145 100.004 90.5935C100.221 90.5726 100.44 90.595 100.648 90.6595C100.856 90.7239 101.05 90.8292 101.218 90.9692C101.386 91.1093 101.525 91.2814 101.627 91.4756L116.342 119.47C116.445 119.664 116.508 119.877 116.529 120.095C116.549 120.314 116.527 120.535 116.463 120.746C116.399 120.956 116.295 121.151 116.156 121.321C116.018 121.49 115.847 121.631 115.655 121.734L112.328 123.516C112.089 123.645 111.823 123.712 111.552 123.712Z" fill="#FFCCCF"/>
<path d="M80.9196 97.9101C80.7206 97.9101 80.5232 97.8737 80.337 97.8027H80.3367L50.9696 86.6027C50.7659 86.525 50.5794 86.4075 50.4207 86.2569C50.262 86.1064 50.1343 85.9257 50.0448 85.7253C49.9553 85.5248 49.9058 85.3085 49.8992 85.0888C49.8926 84.8691 49.9289 84.6501 50.0061 84.4446L51.3347 80.8874C51.4915 80.4725 51.8047 80.1372 52.2058 79.9548C52.6068 79.7724 53.0631 79.7578 53.4748 79.9142L82.8413 91.1117C83.252 91.2695 83.5842 91.585 83.7653 91.9893C83.9463 92.3936 83.9615 92.8538 83.8075 93.2693L82.4765 96.827C82.3562 97.1455 82.143 97.4197 81.865 97.6131C81.5869 97.8065 81.2573 97.9101 80.9196 97.9101Z" fill="#FFCCCF"/>
<path d="M99.0474 90.6973H81.9335C81.0879 90.6973 80.4023 91.3893 80.4023 92.243V128.949C80.4023 129.802 81.0879 130.494 81.9335 130.494H99.0474C99.8931 130.494 100.579 129.802 100.579 128.949V92.243C100.579 91.3893 99.8931 90.6973 99.0474 90.6973Z" fill="#058B94"/>
<path d="M100.734 61.0124C101.536 62.7901 102.304 64.9388 101.441 66.8405C101.124 67.6088 100.529 68.2266 99.7778 68.5686C98.8876 68.9271 97.9172 68.7225 97.0923 68.2891C95.3554 67.3766 94.2358 65.681 92.685 64.5193C91.9791 63.9643 91.1441 63.6011 90.2597 63.4641C89.2406 63.3301 88.229 63.5727 87.2324 63.76C86.1723 63.9592 85.0768 64.0644 84.0957 63.5218C83.2326 63.0124 82.5571 62.2334 82.1713 61.3022C81.9693 60.8495 81.3093 61.242 81.5103 61.6923C82.3445 63.5618 84.0697 64.8358 86.1426 64.6884C87.2395 64.6105 88.2989 64.2529 89.3976 64.2017C90.3998 64.1683 91.3828 64.4855 92.18 65.0997C93.8827 66.325 95.0383 68.2067 96.9916 69.0966C97.9132 69.5165 98.9686 69.6915 99.9403 69.3299C100.778 69.0008 101.477 68.3869 101.915 67.5941C103.197 65.3658 102.373 62.7899 101.395 60.6223C101.191 60.1703 100.531 60.5626 100.734 61.0124Z" fill="#2F2E41"/>
<path d="M92.1552 79.1192C91.3116 79.0953 90.2614 79.0656 89.4527 78.4691C89.2119 78.2842 89.014 78.0483 88.8729 77.7781C88.7319 77.5079 88.651 77.2098 88.636 76.9047C88.6214 76.6878 88.6566 76.4705 88.739 76.2697C88.8214 76.0689 88.9486 75.89 89.1108 75.7471C89.533 75.3867 90.1498 75.3021 90.8152 75.4996L90.1261 70.4176L90.632 70.3477L91.4417 76.3219L91.0195 76.1265C90.5303 75.8998 89.8579 75.7842 89.4403 76.1406C89.3377 76.2337 89.2579 76.3495 89.2069 76.4788C89.1559 76.6082 89.1351 76.7477 89.1462 76.8864C89.1586 77.1135 89.2192 77.3352 89.3241 77.5365C89.4289 77.7378 89.5755 77.9139 89.7538 78.0529C90.3833 78.5171 91.2201 78.5772 92.1696 78.6039L92.1552 79.1192Z" fill="#2F2E41"/>
<path d="M87.6238 70.8555H84.875V71.3707H87.6238V70.8555Z" fill="#2F2E41"/>
<path d="M96.3035 70.8535H93.5547V71.3688H96.3035V70.8535Z" fill="#2F2E41"/>
<path d="M80.3802 97.6819L68.3111 93.9667C67.9347 93.8508 67.617 93.5931 67.4238 93.247C67.2306 92.9009 67.1768 92.493 67.2736 92.1079L68.6826 86.5034C68.7382 86.282 68.8418 86.0758 68.9858 85.8997C69.1298 85.7235 69.3107 85.5818 69.5155 85.4846C69.7203 85.3875 69.9438 85.3374 70.1701 85.3379C70.3963 85.3384 70.6197 85.3895 70.824 85.4876L82.7947 91.2319C83.1741 91.3772 83.4809 91.6684 83.6481 92.0417C83.8152 92.4149 83.8291 92.8398 83.6866 93.2234L82.3554 96.7813C82.2115 97.1649 81.9226 97.4752 81.5523 97.6441C81.182 97.8129 80.7604 97.8265 80.3802 97.6819Z" fill="#058B94"/>
<path d="M95.5846 94.5107L100.761 106.128C100.922 106.49 101.215 106.775 101.58 106.925C101.944 107.075 102.352 107.077 102.718 106.932L108.047 104.812C108.258 104.729 108.447 104.599 108.602 104.432C108.757 104.266 108.873 104.067 108.943 103.849C109.013 103.632 109.034 103.402 109.004 103.175C108.975 102.949 108.897 102.732 108.775 102.539L101.617 91.2775C101.427 90.916 101.102 90.6455 100.714 90.5252C100.326 90.405 99.9066 90.4448 99.5477 90.636L96.22 92.4188C95.8612 92.6114 95.5928 92.9399 95.4736 93.3321C95.3545 93.7243 95.3944 94.1482 95.5846 94.5107Z" fill="#058B94"/>
<path d="M46.5397 56.7605L11.0594 49.0338L10.5983 48.9337C10.3634 48.8822 10.119 48.8986 9.89306 48.9812C9.6671 49.0637 9.46881 49.2089 9.32097 49.4001C9.17314 49.5914 9.08177 49.8208 9.05738 50.0622C9.03298 50.3035 9.07656 50.5469 9.18308 50.7643L23.2702 79.6446C23.3614 79.8302 23.4954 79.9909 23.6609 80.1133C23.8265 80.2356 24.0187 80.3161 24.2214 80.3478C24.4248 80.3797 24.6329 80.3612 24.8276 80.2938C25.0223 80.2264 25.1978 80.1121 25.339 79.9609L35.1236 69.5456C35.1932 69.4696 35.2776 69.409 35.3715 69.3676C35.4655 69.3262 35.5669 69.3048 35.6694 69.3049C35.8087 69.3029 35.9459 69.3392 36.0664 69.4099C36.1868 69.4806 36.286 69.5831 36.3532 69.7063L38.3574 73.4487C38.4853 73.6982 38.6923 73.8973 38.9453 74.0144C39.1983 74.1314 39.4828 74.1597 39.7536 74.0946L39.7635 74.0924C40.0376 74.0338 40.2842 73.8838 40.4636 73.6667C40.6431 73.4495 40.745 73.1778 40.753 72.8951L41.1544 64.2564C41.1592 64.1486 41.1859 64.043 41.2328 63.946C41.2831 63.8501 41.3514 63.7649 41.434 63.6953L47.0788 59.0174C47.2643 58.8637 47.4032 58.6603 47.4795 58.4305C47.5558 58.2007 47.5664 57.9539 47.5101 57.7183C47.4538 57.4827 47.333 57.2679 47.1613 57.0985C46.9897 56.9291 46.7742 56.812 46.5397 56.7605H46.5397ZM46.7564 58.6198L41.1116 63.2976C41.0381 63.3574 40.9714 63.4254 40.9129 63.5003C40.8602 63.5669 40.8146 63.639 40.777 63.7154C40.7377 63.7935 40.7066 63.8756 40.6845 63.9603L40.685 63.9628C40.6616 64.0511 40.6482 64.1417 40.6448 64.233L40.2435 72.8717C40.2401 73.0415 40.1796 73.2052 40.0719 73.3357C39.9641 73.4662 39.8156 73.5558 39.6507 73.5898L39.6457 73.5909C39.4833 73.6317 39.3119 73.6158 39.1595 73.546C39.0071 73.4761 38.8825 73.3563 38.806 73.2059L36.8013 69.4611C36.698 69.2685 36.5476 69.1057 36.3645 68.9882C36.1814 68.8707 35.9716 68.8024 35.755 68.7897L35.7526 68.7903C35.7234 68.7889 35.6944 68.7875 35.6659 68.7885C35.4638 68.7886 35.2648 68.8385 35.0861 68.9339C34.9613 68.9994 34.8486 69.0862 34.753 69.1904L24.9685 79.6057C24.8836 79.6959 24.7784 79.764 24.6618 79.8044C24.5452 79.8447 24.4207 79.8561 24.2988 79.8375C24.1769 79.8188 24.0613 79.7708 23.9618 79.6974C23.8623 79.624 23.7818 79.5275 23.7271 79.4159L9.63999 50.5356C9.57701 50.4051 9.55161 50.2594 9.56667 50.115C9.58173 49.9707 9.63665 49.8335 9.72517 49.7191C9.8137 49.6047 9.93227 49.5178 10.0674 49.4681C10.2025 49.4184 10.3487 49.4081 10.4893 49.4382L10.9614 49.5412L46.4306 57.265C46.5715 57.2958 46.7009 57.366 46.804 57.4676C46.9072 57.5692 46.9799 57.698 47.0139 57.8394C47.0479 57.9807 47.0418 58.1289 46.9962 58.2669C46.9507 58.4049 46.8676 58.5272 46.7564 58.6198Z" fill="#3F3D56"/>
<path d="M41.029 63.5501L40.8182 64.0194L40.6879 63.9614L40.6873 63.9589L10.7934 50.2745L35.7555 68.7888L35.7579 68.7883L35.824 68.8395L35.523 69.255L35.089 68.9325L10.49 50.6906C10.3932 50.6203 10.3238 50.5181 10.2938 50.4017C10.2638 50.2853 10.275 50.1619 10.3256 50.053C10.3761 49.944 10.4628 49.8563 10.5706 49.8051C10.6784 49.7538 10.8005 49.7422 10.9159 49.7722C10.9442 49.7792 10.9717 49.7889 10.9981 49.8013L40.9158 63.4988L41.029 63.5501Z" fill="#023C40"/>
</g>
<defs>
<clipPath id="clip0_3523_46172">
<rect width="168" height="165" fill="white" transform="translate(0 0.5)"/>
</clipPath>
</defs>
</svg>
